/* XPM */
static char *result[] = {
/* columns rows colors chars-per-pixel */
"46 46 239 2 ",
"   c #020102",
".  c #0C0302",
"X  c #090807",
"o  c #05020A",
"O  c #0C0A0B",
"+  c #170604",
"@  c #121508",
"#  c #030517",
"$  c #0D0C13",
"%  c #120D14",
"&  c #151215",
"*  c #16141A",
"=  c #19151B",
"-  c #1B1B1C",
";  c #291803",
":  c #2C190D",
">  c #262018",
",  c #040727",
"<  c #0E172B",
"1  c #1D1A22",
"2  c #1A1826",
"3  c #02063A",
"4  c #0B1636",
"5  c #211D25",
"6  c #231F2B",
"7  c #211E35",
"8  c #25212C",
"9  c #28242B",
"0  c #252232",
"q  c #2B2633",
"w  c #2E2935",
"e  c #2C243C",
"r  c #2E2A39",
"t  c #312D35",
"y  c #312D3B",
"u  c #353537",
"i  c #34323B",
"p  c #3C3B3C",
"a  c #7F1700",
"s  c #522D06",
"d  c #6C3102",
"f  c #4A3938",
"g  c #6A4705",
"h  c #735B38",
"j  c #010449",
"k  c #091647",
"l  c #000353",
"z  c #051556",
"x  c #0E2651",
"c  c #2A304D",
"v  c #373242",
"b  c #3D3B42",
"n  c #071774",
"m  c #13366A",
"M  c #253073",
"N  c #423F47",
"B  c #3F4043",
"V  c #444345",
"C  c #454449",
"Z  c #48484B",
"A  c #4B4B4D",
"S  c #464956",
"D  c #4C4C53",
"F  c #524E57",
"G  c #505051",
"H  c #545354",
"J  c #53545A",
"K  c #595758",
"L  c #5C5B5B",
"P  c #615D5D",
"I  c #63625E",
"U  c #565561",
"Y  c #5D5D63",
"T  c #615E61",
"R  c #646363",
"E  c #696866",
"W  c #6C6C6C",
"Q  c #706E6C",
"!  c #6E706F",
"~  c #72736C",
"^  c #6D6A78",
"/  c #706D7A",
"(  c #747373",
")  c #777878",
"_  c #7C7C7C",
"`  c #8B3500",
"'  c #9B3300",
"]  c #975001",
"[  c #B55007",
"{  c #A96C03",
"}  c #B76602",
"|  c #C95A04",
" . c #CE7401",
".. c #AC7B41",
"X. c #817E7D",
"o. c #7E827E",
"O. c #BD9F37",
"+. c #D49003",
"@. c #E48B00",
"#. c #E79800",
"$. c #F49601",
"%. c #DFAB01",
"&. c #ECA900",
"*. c #FAA901",
"=. c #EDB200",
"-. c #FABA00",
";. c #C9B13D",
":. c #E9C301",
">. c #F9C900",
",. c #FCD501",
"<. c #83827D",
"1. c #AF8B74",
"2. c #D6BD5E",
"3. c #DCB86F",
"4. c #DCCA79",
"5. c #152C91",
"6. c #1B498F",
"7. c #2C4E8E",
"8. c #1B4EB0",
"9. c #2D53AE",
"0. c #3062B8",
"q. c #4D698B",
"w. c #6D6B81",
"e. c #767584",
"r. c #4D6EB0",
"t. c #1A58D0",
"y. c #2A54D2",
"u. c #3069D1",
"i. c #3874DA",
"p. c #3C78E7",
"a. c #4D71CF",
"s. c #4A7BE8",
"d. c #587EE0",
"f. c #477EF3",
"g. c #817F82",
"h. c #638389",
"j. c #7E8481",
"k. c #7B8BBB",
"l. c #3F83D7",
"z. c #3B87EE",
"x. c #5486D4",
"c. c #6C88D2",
"v. c #78A8DD",
"b. c #528DEB",
"n. c #4888FB",
"m. c #578CF9",
"M. c #4A9BF8",
"N. c #5496FC",
"B. c #5D95FC",
"V. c #5D9AFE",
"C. c #6A92EE",
"Z. c #6597F6",
"A. c #6494FE",
"S. c #6B96FE",
"D. c #649AFE",
"F. c #6B9AFE",
"G. c #43ADFF",
"H. c #58A4FD",
"J. c #64A1FF",
"K. c #68A7FC",
"L. c #73B2F5",
"P. c #76C0DB",
"I. c #838483",
"U. c #858985",
"Y. c #8A8B86",
"T. c #868A8A",
"R. c #8B8C8B",
"E. c #908D85",
"W. c #8E9087",
"Q. c #8D918C",
"!. c #999387",
"~. c #93928D",
"^. c #8B8E90",
"/. c #8E9292",
"(. c #949592",
"). c #9A9692",
"_. c #969A95",
"`. c #9B9C95",
"'. c #9B9D9A",
"]. c #A19B8F",
"[. c #A19E99",
"{. c #9CA097",
"}. c #9EA29A",
"|. c #A2A49D",
" X c #A8A69D",
".X c #B2B59B",
"XX c #8EA4AA",
"oX c #A4A5A2",
"OX c #A7A7A6",
"+X c #A6AAA3",
"@X c #AAABA5",
"#X c #ACAEA9",
"$X c #B3ACA5",
"%X c #B5ADA9",
"&X c #ACB5A9",
"*X c #AEB2AC",
"=X c #B3B4AB",
"-X c #B7B6AA",
";X c #AFB4B3",
":X c #B5B7B4",
">X c #B5BAB3",
",X c #BBBCB4",
"<X c #C0BEB8",
"1X c #BAC2B6",
"2X c #BDC3BA",
"3X c #BEC9BB",
"4X c #C5C5B5",
"5X c #C2C5BB",
"6X c #C4CBBE",
"7X c #CACCBE",
"8X c #CAD1BD",
"9X c #D5D6BC",
"0X c #F4EFBE",
"qX c #91A6CB",
"wX c #83B3ED",
"eX c #ABC2D3",
"rX c #98CDFD",
"tX c #C5C7C1",
"yX c #C5CCC1",
"uX c #CBCDC2",
"iX c #D0CFC6",
"pX c #C8D3C3",
"aX c #CCD2C4",
"sX c #CDD5C9",
"dX c #D2D5C5",
"fX c #D4D9C6",
"gX c #D5D7C9",
"hX c #D4DACB",
"jX c #DADDCB",
"kX c #DBDDD2",
"lX c #DDDFD8",
"zX c #E4DFD7",
"xX c #DEE1CE",
"cX c #DEE1D3",
"vX c #E3E3CD",
"bX c #EAF4CE",
"nX c #E6E7D8",
"mX c #D3E5F6",
"MX c #F2F2E3",
/* pixels */
"].P 6 y y y w y y y y y y i y y i i y i i v i y v v v v v v v r r e e e e w -X4X@XOX&XoXOXOX",
"[.K q e w y y y y y i y y y y y y y y y r r y y r y y y r v r e r v v c e 6  X<X%X#X;X*X@X@X",
" XA q w e w y y y t t t t y y w r y y y y r y y r r r r e v v r y q 0 1 % t  X[.'.[.[.|.|.`.",
" XA 0 e y y y w y y y t y y y y y y y y i y r r r r r q e 0 2 6 t u p Z v V gXiX5X<X,X2X,X=X",
" XF 6 y y w t w t w t q w w q q q q 8 8 8 8 8 6 1 = * * % O G E ( ( ) e.K N 7X7X,X#X#X#X@XOX",
"%XH 6 q q w w w q q q q 9 9 8 6 5 5 5 5 1 1 = * * * * & % % ].-X_._./.T.F G uX7X#X#X@X#XOX'.",
"%XK 6 e w q w w q w q q r q e q q q w r r w w 9 8 8 5 5 = > .X$X_.(.(.T.H H iXdX:X:X:X2X,XOX",
"$XK q e e q w q w q t r t w q q q q 0 0 9 8 6 w p p p N t > <X$X'._._.R.J K gXjX,X,X4X5X,X@X",
"$XF 0 e q q q 9 8 9 6 5 5 1 - - * = & % $ $ 5.9.R W R Y S p 4X$X'.'.(./.J K uX=X`.'.'.oX`.Y.",
"$XN 5 5 8 6 6 5 1 1 1 - = = = = * = = & $ < t.p.4 - W R F V 9X4X&X}.(./.J L vX7X4XuX2XuX=X~.",
"%XK 6 7 0 q 8 8 9 6 6 9 8 9 9 5 = = & % X j u.f.< # 8.6.K A 9X4X:X#XoX/.H I xX9X7XhXdXhX6X|.",
"%XF 7 e e 0 0 8 6 6 6 6 6 = % @ & = = & O l u.s.# , i.i.x A jX7X*X#X'.^.J R xX8XaXdXaXgX1X'.",
"%XD 7 0 0 0 8 1 - = & % O O H H A G G K   z p.u.X # b.b.k A 9X.XW.Y._ j.K I bXjXfXhXpXsX2X`.",
"%XN % * % $ O O O O O O X O !.).~ W ~ )   z f.0.  X c 7.O > vXdX6X5X,XOXJ I nXjXdXaXpXsX2X{.",
"%Xf   X X X X O O O X X o @ `.~.W !       3 l.0.o       . @ xXfXfX8X6X;XD E nXxXgXgXpXsX1X|.",
"%Xf   X o X o   o . o X   & $X X.         < i.6.            fXdXaXpX5X;XA Q MXxXjXhXkXkX6X$X",
"-Xu   X o . @ 5 t u b A V V %X  4 6.7.# o o r.q.    , m M #   uX8X6X1X;XF W vX,X-X&X$X>X{.Y.",
"-Xt   X o O R ( I Y R Y K G   z b.N.A.a.c = $ $ # M s.n.M.a.k   7X6X2X;XA E aX=X-X>X-X1X#XY.",
".Xu   o   - X._ L L L J F . k f.S.S.S.S.S.d.r.0.a.m.m.n.f.n.a.4   6XpX*XZ ~ nXxXcXkXhXhX6X|.",
"-Xf   @ O p (.R.! ! W Y   o 0.D.B.S.S.Z.S.S.wXF.V.N.m.m.b.n.N.7.    6X;XC ( vXfXhXhXpXhX2X}.",
"$XG i Y D H }._.( ! o.    , s.D.B.S.S.F.F.S.F.F.A.S.A.A.m.m.N.7.      &XA ~ zXuXaXaXpXpX,X_.",
"@XW J / C L oX(.o.o.  ; X x D.F.A.A.D.F.S.S.F.F.F.S.D.D.B.N.H.M   +     L _ nXaXdXdXpXsX3X_.",
"_.Y S w.b Y #X_._   ] &. .h K.D.D.D.D.F.F.F.S.F.S.S.K.J.A.B.B.f ` | ] ;   <.bXjXfXhXaXhXtX|.",
"(.W S w.b R #X_.I..  .*.>.*.R.V.B.D.B.B.F.D.F.F.F.S.B.N.Z.H.k. .>.>.*.d   ~.nXfXfXaXfXhXtX+X",
"(.! S w.v E #X_.X . ] *.-.>.+.x.A.d.5.5.D.D.D.K.K.C.n n d.L.1.@.:.,.#.a     nXfXfXsXsXsX3X|.",
"~.) S w.v E @X  X @ d *.>.,. .( C.C.4 3 f.J.A.D.K.c.# 3 u.P...$.:.>.#.[ s X   9XhXpXpXsX3X X",
"(._ S e.y R OXX g { ` &.,.,. .X.L.C.3 z m.V.V.B.J.c., j s.v.[ $.=.,.$.|  .s   1XhXhXsXhXyX&X",
").I.S e.i Q :X@ g +.' &.>.,.@.h wXC.j 9.D.V.V.B.J.Z.l 5.M.c.| -.:.:.@.[ +.g   xXcXjXxXcXaX,X",
"(.I.S w.i K ( . X ; s @.-.-.$.g eXB.y.V.F.D.D.D.J.V.u.t.K.qX .&.%.:.+.' d + fX-X$X#X@X@X|.~.",
"~.I.F w.i V G H     s #.&.*.@.d q.v.rXL.L.K.L.wXL.L.rXH.x.XX{ %.%.&.@.d     7X#X=X-X=X1X#XW.",
"(.I.U w.y R `.R.j.  { >.=.#.d + # w.mXmXlXzXkXzXvX0XbXXX< X + g #.&.$.d   <.nXxXxXhXhXxXyX|.",
"Q.I.U ^ y W '.(.o.X g $.} :     # O f 1.3.3.4.4.2.;.O.s       @ s { } ;   ) nXfXaXsXsXpX2X|.",
"^.e.U / t W '.(.T.j.- ; + o   , 8.x o . + + + ; ; + . o 8.6.o X   . .   Z _ nXfXdXaXsXsX2X'.",
"R.I.Y / t Q |._.T.j.j.u O O   , u.0.m 2 # $ O .   o # l t.t.$ o     >X;XV _ nXjXaXaXsXsX3X'.",
"^.I.U w.i ( [._.T.j.j.e.J R H # 8.u.0.r.c.eX5X4X&Xh.z t.i.8.# X aXpXyX>XV _ nXhXdXaXpXsXyX+X",
"^.R.Y / t / #X_.R.Y.T.I.F R {.# y.M.z.l.r.W 4X.X.XP.z.n.z.8.o % 8XpX3X>Xb <.MXjXjXhXhXhXpX>X",
"g./ F ^ i L ( R L K L L V L  XQ 9.M.M.H.b E hX-X&X+Xz.z.G.6.E 4X6X1X2X>XB e.nX<X,X-X=X>XOX`.",
"( R C ^ v Z H H L T U Y N L 5X=Xx i.M.0.D P vX7XyXpXq.i.z.z vXaX6X6X2X>XA ( 5X+X X#X&X>X&XR.",
"$X=X) / b P '.R.T.R.I./ J L -X|.oX_.{.^.D I jX7XpX3X1X+XV W xXaX6X3X3X>XV ~ cXhXxXhXhXhXaX|.",
"@X@XW / N Y oX^.T.U.j.W A K -X|.}.{._.R.Z P fX7X6X3X1X+XV E hXaX6X6X1X=XV ~ kXdX8XpX6XaX6X|.",
"|.&X( / V T oX/.Q.T.o.) G K &X|.}.'._.Q.Z P dX7X3X3X>X#XZ E jX7X1X3X3X>XN ( kXdXpXpXpXsX3X`.",
"-X,XU./ Z R OX_.Q.T.o.o.G K -X|.'.'././.Z P fXaX6X1X1X;XZ E jXiX6X3X3X>Xp Q vXdXaXpXpXpXtX}.",
"5X5XY._ C L #X|.{._.Q.Q.A K 1X#XoXOXoX'.D G hXdXpX6X>X:XV K jXaX6X6X1X;Xb E nXuXpXyX6XpX6X+X",
"-X,XU.W Z R =X[.{.{.T.o.V A =X).R.R.) g.G G uX+X@X;X_.OXR E zX7X6XyX,XtXH ( MXjXxXkXkXkXsX2X",
"4X<X.X XOX[.%X'.[.oX'._.~.R.OX~.Y.I.g.g.( ^ ~.) ( ( ( ) E ^ Y.) ) _ _ <.K W '.<.<.Y.<.X.I.<.",
"8X7X5X,X<X=XtX5X<X,X,X,X5X<X@XoX[._.'./.I.R.Y._ Y.T.R.R.W Y.[.(.{.).~.(.K I.|.Y.W.Y.).).E.W."
};
