/* XPM */
static char *result[] = {
/* columns rows colors chars-per-pixel */
"46 46 71 1 ",
"  c #695E54",
". c #746B5C",
"X c #756F62",
"o c #7C7463",
"O c #7E7A65",
"+ c #807A66",
"@ c #847C6C",
"# c #887E6F",
"$ c #857E71",
"% c #887F71",
"& c #88826F",
"* c #858072",
"= c #8C8574",
"- c #8F8A76",
"; c #8C8378",
": c #8F8979",
"> c #928976",
", c #92877C",
"< c #938C7D",
"1 c #988E7F",
"2 c #95917E",
"3 c #98907C",
"4 c #978E82",
"5 c #9A8F83",
"6 c #979183",
"7 c #9B9485",
"8 c #9C9887",
"9 c #9D9689",
"0 c #9F998A",
"q c #A19A85",
"w c #A1978B",
"e c #A39B8D",
"r c #A89F8F",
"t c #A59E91",
"y c #A89F93",
"u c #A6A18E",
"i c #A9A48E",
"p c #A6A192",
"a c #AAA394",
"s c #ADA896",
"d c #ADA699",
"f c #AEA99A",
"g c #B0A797",
"h c #B1A897",
"j c #B0A79A",
"k c #B2AB9D",
"l c #B6B19F",
"z c #B8B09F",
"x c #AFA9A0",
"c c #B4AEA1",
"v c #B9AFA3",
"b c #B6B1A3",
"n c #BAB3A5",
"m c #BDB8A7",
"M c #B7B3A8",
"N c #BCB5AA",
"B c #BEB9AC",
"V c #BEB9B1",
"C c #C0B7A9",
"Z c #C1BBAE",
"A c #C4BDB2",
"S c #C8BFB4",
"D c #C6C0B4",
"F c #C9C2B6",
"G c #C7C2B8",
"H c #CBC5BA",
"J c #CEC8BD",
"K c #D1CABE",
"L c #CECBC3",
"P c #D3CDC2",
"I c #DCD5CB",
/* pixels */
"bnlbp0ffueslnblikkqufbNb88cdMMs<7fBMmfufsulbbb",
"7sisb8kAlshDDmbkkitappkbmalfMklllbfsMDn87a*6mu",
"is3>6esBDf7fZZmmbtcAfkmMuMfMDZlmblsimDDbslp@8Z",
"bliup8e00ae8blkbNBbMmmkfa0ssfbbBFMl0NBufmmDFfb",
"mHZmMa8888p:-7wdsafdBf<eMf<ebsfbPLbmbNd,abpbmb",
"ZZFmfsaMVbuO+:0wdtdppbafmblpb8lmibspbcSMubBfpu",
"afkkkafccFh1#2ydw8wcBMBcpkmnpi22O-cfsaABZDBbsp",
"2wkpfbmMsakZADHJcptpVa0fafMDm8<=o.8p8cCmDHVBbp",
"faaNNcMDbffsCcNVatBBesysfnZFF; :ufMffsuskbBNnn",
"cp6dNt7aarANZJBBxtwna7kdpwvccBp968BAbcck=pBl8i",
"0t00fcahaedSDFFFcMdbcwmZZknk0dxLVeBVBMBNeebfka",
"4$60cBNcewwggbNnfdbHPFNZcaykMxdVVVMxMNffbcbBDB",
"GV*.*uNActt00tkbd648fkbAZMFZbMSZdMMxpcfwbtelDF",
"d0&2eaBbktccdabbft8epknDJPPFNkt064dtVApwcAbnbk",
"NxfdbMedNk$0cpkhpbNMatCCkbKFkkcxdpdMVcjwcMpcAN",
"VMdxMMapttXXwccbfcVMkeazp5bFADZVcp4pGVBccMMcfm",
"epddBAj15yyjyabNfadt7wabhajZJHZZkdcbSKAbccw4ei",
"bfdBBmNmvZFFJMMbNt7kw9cthNjkCZbmZZNAccjdcjt5up",
"VBbBAFFDJnmZCSBbdabfNSctacNSDDCCnbAbZFv7rwrlAH",
"xbZAZBkdDNpp57aaakFAMc09xddtbnhkeeNMbZCnad9wbm",
"pewfmhcNNNps9wAa44aAZAAwdAhtuavSkcZMcjavDBMNZk",
"bpppphjbbbchhbSDcyjccccanAt:smCDdtcdcvccDDNbha",
"mnCCpkk90hbckBFFPPSMNSm57AZ%%,wkktxptccccmbcyr",
"DDDZwanbcbckBBZFNScakZvckkZPDe@1dbGNxcaabnZbbn",
"mfNAMxckkbcNKSbNZNdwycFdbkj5NFSBpvBMZAFktkdvAm",
"krmAMAMd7fZZFDZttdBAANctkkaaZSBM7tMdaNbZZbkcck",
"dsfctaFAn1anSFdvNw,xZZZBjcZNvFISd9bt9ca=wvZccm",
"kcfpjhmDZd,pNFmamNjccnNnzhkbcMZJJAccdhraqaZcCn",
"bBNbcjsCHAcanzn2kMSFCvvy7wcNZbjnSLKHANvwyZnasa",
"nmk14tcbbMMfrpCbcjab7aCr@<tdaANvAASABNccavkgCz",
"bbcZw.1ddcMtkZNnMccSbew1o=waAt4dBNscjyjjZjwiZD",
"abhbAAcdcfccaCc,ccVAANd0jmw4bvasnkpyNAcccFvkdh",
"p0fn0dHAppaBcxAftywjSASAGJJJvNcyzjyyZBaddjdVft",
"BfffaVVVctsp99bAABvdSNMjpVkrNSNyjN6tyMdcNBcdMx",
"bVDHHASAAMby909kASZCNvjkacfpNcvgaNjjSSCccker#7",
"MxAVfkkakMncMFffavCpka79MBfANkcyhjcKNNShw,.,6o",
"0MNfafSkyyxxvMVVcMZNckNtddesPPZckytavNHZzao1Nb",
"sfZkacpujyVAcyxNNNacmcjwakssnSZZZNSjaAKnnzayhn",
"ms8udFh2yjVMtxd9wNScvSFSpkZkpzhwvBNcwtZZAntjAk",
"MlasanmNNANdxx9%wccccNLAbwpwihjyvAcjjkrsvSMck8",
"VMkwwctdSBbNSFc4bh7=sckBASNbkBSNZCadeve4ahbCbn",
"SNNAyjNnSSbebAAd7raadhpbbcvZJVSNbbcjnkMccbpw5a",
"9cdhNNFLLFcccdkjnbtvAGbgky&>cFbAAbvt7mABkFJypb",
"pcCdvZcAFbcZZSZakZNdFFNskw>6pnkmZbMZykSVNCvZnz",
"Hb8tdCtyHd5tjnAAScMccbNpkZbkr-afrbFAcNAAnvkahz",
"BNcbxcSccVyttMNckctxdkmbwZHHBtdmnwbZdedZcjwpak"
};
