/* XPM */
static char *result[] = {
/* columns rows colors chars-per-pixel */
"46 46 217 2 ",
"   c #010101",
".  c #01010B",
"X  c #070709",
"o  c #170703",
"O  c #010114",
"+  c #01021B",
"@  c #171411",
"#  c #151516",
"$  c #2D1709",
"%  c #361210",
"&  c #3C2603",
"*  c #29271A",
"=  c #000123",
"-  c #03082B",
";  c #010431",
":  c #00033B",
">  c #060A38",
",  c #101232",
"<  c #2E1C27",
"1  c #4E2E12",
"2  c #712800",
"3  c #693703",
"4  c #774C06",
"5  c #6B4C1C",
"6  c #736407",
"7  c #564428",
"8  c #020343",
"9  c #020449",
"0  c #091346",
"q  c #10164A",
"w  c #040B56",
"e  c #091A5C",
"r  c #112459",
"t  c #363454",
"y  c #050E66",
"u  c #091567",
"i  c #12136E",
"p  c #081478",
"a  c #162666",
"s  c #1A2C77",
"d  c #123074",
"f  c #313C72",
"g  c #473044",
"h  c #34477C",
"j  c #4C4C5E",
"k  c #695E54",
"l  c #746B5C",
"z  c #445267",
"x  c #7C7562",
"c  c #895602",
"v  c #905301",
"b  c #B55900",
"n  c #98650D",
"m  c #B16F04",
"M  c #C36400",
"N  c #DF6D00",
"B  c #CA7A00",
"V  c #DC7E01",
"C  c #E27303",
"Z  c #837E70",
"A  c #9B8F1A",
"S  c #AF8F0D",
"D  c #B8A82F",
"F  c #CA8201",
"G  c #CA8B00",
"H  c #D48701",
"J  c #CC9300",
"K  c #EB8A01",
"L  c #EB9303",
"P  c #EE9609",
"I  c #D2A100",
"U  c #F9A901",
"Y  c #EEB301",
"T  c #F2BD01",
"R  c #FCB800",
"E  c #E9B92B",
"W  c #EDC801",
"Q  c #F7C901",
"!  c #FCD904",
"~  c #FFD41C",
"^  c #FFE10C",
"/  c #FFD62A",
"(  c #88826F",
")  c #8B8474",
"_  c #8D8777",
"`  c #948B78",
"'  c #938C7C",
"]  c #96917D",
"[  c #1A1A96",
"{  c #291C81",
"}  c #092288",
"|  c #17289B",
" . c #222885",
".. c #243787",
"X. c #263898",
"o. c #1737A4",
"O. c #1634B3",
"+. c #314D8F",
"@. c #274799",
"#. c #1643AB",
"$. c #284AAB",
"%. c #324DA3",
"&. c #3954A7",
"*. c #2C49B4",
"=. c #2951B9",
"-. c #3756B6",
";. c #3C69BA",
":. c #4D658B",
">. c #506784",
",. c #405FB9",
"<. c #506FAC",
"1. c #2138CA",
"2. c #1C52C6",
"3. c #234CC5",
"4. c #2B59C7",
"5. c #3658C8",
"6. c #295AD6",
"7. c #3259D7",
"8. c #3765CA",
"9. c #346CD7",
"0. c #3B68D6",
"q. c #335DE3",
"w. c #3565E7",
"e. c #3A76E6",
"r. c #367CEA",
"t. c #475AC8",
"y. c #4768D1",
"u. c #4378D9",
"i. c #537CD6",
"p. c #4A76E7",
"a. c #447CE3",
"s. c #457DED",
"d. c #497DF8",
"f. c #6B8BB4",
"g. c #368EED",
"h. c #4389DF",
"j. c #5A88D9",
"k. c #6788C7",
"l. c #7CA8CC",
"z. c #4A88E9",
"x. c #5486EA",
"c. c #528DEB",
"v. c #5C8EED",
"b. c #5594E6",
"n. c #5493EC",
"m. c #5D96EE",
"M. c #5A9BEC",
"N. c #4988F8",
"B. c #548BF3",
"V. c #5B8EF4",
"C. c #5589F9",
"Z. c #4B93F6",
"A. c #5694F4",
"S. c #5B93F3",
"D. c #5C9AF4",
"F. c #5D95FB",
"G. c #559AFD",
"H. c #5C99FB",
"J. c #628BEC",
"K. c #6295EC",
"L. c #669CED",
"P. c #7B9FE0",
"I. c #6296F5",
"U. c #649BF5",
"Y. c #6A9DF3",
"T. c #6197FB",
"R. c #659BFA",
"E. c #6A9DF8",
"W. c #5FA1F9",
"Q. c #63A1F7",
"!. c #6BA1F6",
"~. c #6AA1FC",
"^. c #978E82",
"/. c #979183",
"(. c #9B9484",
"). c #9C9887",
"_. c #9D9689",
"`. c #9F9989",
"'. c #A49B8A",
"]. c #A39C8D",
"[. c #A59E91",
"{. c #A89F93",
"}. c #A6A18E",
"|. c #A9A48E",
" X c #A6A192",
".X c #AAA494",
"XX c #ADA896",
"oX c #ADA69A",
"OX c #AEA99A",
"+X c #B1A897",
"@X c #B0A799",
"#X c #B2AB9D",
"$X c #B6B19F",
"%X c #B8B09F",
"&X c #AFA9A0",
"*X c #B4AEA2",
"=X c #B8AFA4",
"-X c #B6B1A3",
";X c #B9B3A5",
":X c #BDB8A7",
">X c #B7B4A9",
",X c #BCB6AA",
"<X c #BEB9AC",
"1X c #BEB9B1",
"2X c #C0B7A9",
"3X c #C1BBAD",
"4X c #C3BDB2",
"5X c #C6C0B4",
"6X c #C9C2B6",
"7X c #CAC5BB",
"8X c #CFC9BF",
"9X c #D1CABD",
"0X c #86A9ED",
"qX c #9EC7D3",
"wX c #93CAFB",
"eX c #AFDDF5",
"rX c #D2CCC2",
/* pixels */
"-X;X$X:X X`.OXoX}.'.XX$X;X-X#X.X$X#X).}.OX>X>X-X).'.-XoX>X>XXX` (.OX<X-X<XOX}.OXXX}.OX>X$X$X",
"(.XX|.|.*X).*X4X-X.XOX5X5X<X;X$X+X.X]..X X X#X-X:X.XOX#X>X$X$X$X*X-XOXOX<X5X-X(.(..X( (.5X`.",
"|.XX] ` /.]..X<X5XOX(.OX3X3X:X:X-X].-X4XOXOX,X>X}.>XXX>X5X3X-X:X-X$X|.|.<X5X5X:X.X-X X( `.3X",
"-X%X|.}.[.).`.}.`..X].).$X$X#X#X:X,X>X;X<X<X#    X]..XXXOX-X-X<X6X>X-X}.>X,X}.XX:X:X5X5XOX-X",
":X6X3X<X>XoX).)._.(. X' ` (.`.oXoX.XOXOX<X  ,.:.  oX` ].-XOXOX>XrXrX$X>X*X<XoX_ .X:X.X-X,X-X",
"3X3X6X;XoXXX.X>X4X;X}.x x _ `.`.oX[..X X  + ;.;..   $X X-X(.$X-X|.>XXX}.-X*X6X,X].$X<XOX X}.",
"XXOX#X#X$X.XoX*X#X6X+X] Z /.[.oX'.`.`.    = $.+.O     :X X|.] ] x ` *XoXXX.X4X2X<X5X>X-X.X X",
"/.`.#X XoX-X:X>XXX X%X5X3X5X8X8X*X[.  ,   : i.i., . -   :X).] ) x l ). X`.*X2X;X5X7X5X<X-X X",
"OXoX X,X1X*X;X5X-X#X@XXX3X$X>X3X  . ..y.+ w j.j.q = =.s X   k ' ].OX>XOXOXoX|.+X#X>X<X,X;X;X",
"#X X/.oX,X].(..X.X].4X,X3X8X@   + e a.i.> a b.j.a : u.C...=     ^._.<X4X>X-X*X#X) }.3X#X`.}.",
"`.[.]._.OX*X X@X{.].oX6X6XX   d } 4.V.v.i X.M.j.@.y c.H.N.O.w O   '.>X4X:X>X3X,X].].-X#X#X.X",
"^.Z /.`.*X3X,X*X]._.'.@X    e 6.q.x.V.E.| *.M.m.$.O.R.U.x.N.0.8     ,X#X>X>XoXoX-X#X-X<X5X<X",
"5X1X( l Z }.,X4X*X[.[.    + o.d.V.J.V.R.p.5.c.K.5.0.E.I.F.V.C.| ;     #X.X*XoX].-X X].*X5X6X",
"oX`.( /.]..X,X>XOX{.      : 3.C.I.F.S.U.K.p.z.S.p.J.E.R.T.S.N.6.i O     1X4X[._.*X4X-X;X;X#X",
"<X&XoXoX-X>X].OX,X  $ 7 * 8 7.B.A.R.E.R.K.v.s.s.B.E.R.T.H.F.p.q.e % 4 $ . *X#X_.#X>X.X*X4X;X",
"1X>XoX&X>X>X.X[.  5 E ~ m ; 6.S.A.~.E.R.I.L.d.C.I.E.E.H.H.A.N.#.- b U L 1 . ,X*X*X,X>X*X#X:X",
"[. X.XOX<X4X@X  5 / ^ ! R 1 4.T.S.Q.~.U.Y.U.I.Y.I.U.I.I.H.A.Z. .2 Y T R T 6 X :X*X=X'.^.].|.",
">XOXoX3X<X<X:X  D ! ! Q R v ,.H.U.H.E.!.!.Y.Y.Y.E.E.R.I.S.A.N.z B W T Q R P   .X*XoX[.^.}.}.",
"<X<X>X>X4X6X6X5X  S W W Y v f N.D.U.U.!.E.Y.Y.!.Y.U.U.I.S.z.g.j H K V B 2   >X/.].].].$X5X7X",
"*X*X3X4X3X<X#XoX  v H U U m t e.S.m.~.~.U.U.L.U.Y.U.Q.K.x.z.g.g M C N M &   :X,X.X.X_.[.;X:X",
"{.].`.oX;X#X#X  S W I K K m < 3.C.V.V.I.Y.Y.K.Y.Y.I.M.c.e.g.o.1 G H B V J A   *X4X1X;X>X3X*X",
"*X X X.X XoX#X  6 W I B H c X w w.p.B.V.v.K.J.I.m.v.c.h.e.2.8 o c F B L U n X *X6X4X,X*X@X.X",
",X;X2X,X.X#X#X(.  c J G 4 o . O p q.d.C.T.F.F.T.V.V.z.e.6.y     o c F H 3   #X*X=X:X=X*X{.].",
"5X4X6X3X_..X;X>X*X  3 &       ; i X.*.-.%.%.%.%.%.$.$.@.u w ; .   X $ o   =XoXoX;X;X3X;X-X-X",
";X@X,X3X,X&X*X#X#X-X    X 4X;X   .9 u a a h h f +.r > q 8 s   3X[.      <X4X6X#X].#X@X*X3X,X",
"#X X,X4X>X4X>XoX`.oX3X3X6X6X3X[.9 X.@.,.j.L.j.L.L.j.&...a w ,X2X'.[.,XoXoX,X*X3X4X-X#X-X*X#X",
"@XXXOX*X[..X5X5X;X' .X;X4X6XOX  *.0.8.u.M.M.m.L.b.c.x.5.8.@.O 4X#X(.;X[.(.#XXX_ '.%X3X-X#X,X",
"$X*XOX X@X@X;X5X3XoX` {.2X6X  ; o.$.0.c.D.m.v.K.n.b.z.h.8.@.O   8X<X*X*XoX#X]..X'.{.2X*X2X2X",
">X:X,X*X-X@XXX3X7X3X*X.X:X-X  = } 8.D.n.W.S.v.v.M.Z.n.b.u.u     6XrX8X7X4X,X=X'.{.3X;X@X.X+X",
";X2X#X' ^.].*X-X>X>X>X#X|.    e =.B.S.B.F.S.i.J.L.M.n.z.z.&.q     5X5X4X<X;X=X*X{.#X#X+X3X*X",
";X*X*X4X'.l ] @X.X&X>X].OX  u e.c.c.c.W.H.H.P.k.h.b.M.h.z.9.;.,     XX*XOX{.@X@X2X@X'.{.3X4X",
".X-X@X=X4X3X*XoX>XOX-X-X    s N.Z.a.G.G.H.t.qXl.0.z.A.N.e.w.9.,       {.,X4X*X*X=X6X*X#XXX@X",
" X`.OX;X_..XrX1X.X.X.X      . a 6.N.N.Z.y.{ eXeXy.p.N.r.e.3.0           3X3X{.oXOX&XoX3X&X[.",
"<XOXOXOXoX<X1X,X*X[.            - #.6.9.| [ eXwX8.1.w.*.r O             {.,X@X*X,X2X&XoX=X&X",
"-X1X5X7X7X4X4X4X1X>X                + - ; p wXb.| i >                 oX4X4X2X*X&X@X[.[.Z (.",
">X&X4X1X#X#X*X.X*X;X;X                    = 0Xk.; X     X           *X8X2X2X4X+X'.' l ' ^.x ",
"`.>X,X&X.XOX4X#X{.{.*X&X                    f.P..                  X[.oX*X2X7X4X%X.Xx ' 2X*X",
"XXOX<X#X.X#X{.|.&X{.1X4X*X.X                <.k.              3X2X,X4XOX X4X9X;X=X%X.X{.#X;X",
":XXX`.}.oX6X@X] [.#X3X=X[.&XoX_.        X   >.f.    X     %X+X].*X2X<X*X].].3X3X4X2X{.@X4X#X",
";X$X.XOX.X;X:X,X,X3X,X@X&X&X(._ ].%X    X   >.f.         X@X+X{.=X4X*X#X@X#X'.+X=X4X,X&X#X_.",
"1X*X&X'._.*X[.oX4X1X;X,X5X6X#X^.*X+X] )     z 0X    ;X-X*X,X4X:X3X<X{.oX].#X[.' .X+X*X2X;X=X",
"6X,X,X3X{.#X,X=X4X4X%X].;X4X4XOX'.].XX.XXX  z f.  *X;X3X7X4X6X,X*X;X*XOX;X*X;X*X*X=X{.'.^..X",
"_.*XOX#X,X,X6XrXrX4X=X*X=XoX#X#X;X*X[.*X4X6X# # #X].) ` *X7X;X3X4X;X*X[.'.-X4X,X#X6X7X{. X-X",
" X*X2XoX=X2X=X3X7X;X*X3X2X4X3X{.*X3X,X&X4X7X,X.X#X]._ ] {.;X#X<X3X;X<X2X{.#X7X1X2X2X;X3X;X%X",
"7X-X`.].@X2X[.{.rX{._.{.&X;X4X4X4X=X=X*X#X;X,X X#X4X>XOX].` .X@X].*X6X4X*X,X4X4X=X=X#X.X@X%X",
"1X,X*X-X&X&X4X=X*X1X[.].[.;X,X*XOX*X[.&X#X#X<X*X'.2X7X6X<X[.oX:X;X'.;X3X{.'.OX1X=XoX'.{..X%X"
};
