/* XPM */
static char *result[] = {
/* columns rows colors chars-per-pixel */
"46 46 230 2 ",
"   c #010001",
".  c #0A0402",
"X  c #0D0902",
"o  c #01010B",
"O  c #130904",
"+  c #020212",
"@  c #03041D",
"#  c #08051A",
"$  c #171211",
"%  c #262618",
"&  c #060B2A",
"*  c #0F1227",
"=  c #171826",
"-  c #050B37",
";  c #091638",
":  c #151C35",
">  c #0D213C",
",  c #192739",
"<  c #4C340F",
"1  c #684606",
"2  c #757200",
"3  c #7B5928",
"4  c #091748",
"5  c #031757",
"6  c #20165E",
"7  c #162847",
"8  c #122850",
"9  c #1B375B",
"0  c #222748",
"q  c #2F3546",
"w  c #273557",
"e  c #0B1B75",
"r  c #281D63",
"t  c #0C246A",
"y  c #10356F",
"u  c #26366C",
"i  c #1F5473",
"p  c #30486E",
"a  c #3B796E",
"s  c #454E4D",
"d  c #695E54",
"f  c #746B5C",
"g  c #5B626A",
"h  c #7C7562",
"j  c #B73200",
"k  c #DE3E00",
"l  c #B24F00",
"z  c #A5721C",
"x  c #966126",
"c  c #CB4900",
"v  c #D24102",
"b  c #C85902",
"n  c #E44902",
"m  c #DA6100",
"M  c #EA7500",
"N  c #847C6B",
"B  c #837E70",
"V  c #B88C02",
"C  c #DD8202",
"Z  c #CC9001",
"A  c #E99003",
"S  c #F09600",
"D  c #D3B307",
"F  c #E6A902",
"G  c #FBA100",
"H  c #E3B700",
"J  c #C48E3F",
"K  c #E5A232",
"L  c #F7CF01",
"P  c #FDD900",
"I  c #FBEB01",
"U  c #8B8474",
"Y  c #8D8677",
"T  c #8C8B76",
"R  c #938A79",
"E  c #938C7D",
"W  c #96917D",
"Q  c #DCA442",
"!  c #C08E62",
"~  c #EB8975",
"^  c #14358A",
"/  c #253980",
"(  c #0F3EA6",
")  c #1C4382",
"_  c #1C4593",
"`  c #1C5292",
"'  c #2B5098",
"]  c #2A559B",
"[  c #34609F",
"{  c #194FA8",
"}  c #1C58A6",
"|  c #2857A8",
" . c #2D57B8",
".. c #1F62BB",
"X. c #3067AC",
"o. c #2B65BB",
"O. c #3665B7",
"+. c #566991",
"@. c #737C82",
"#. c #415CB1",
"$. c #4479B7",
"%. c #265CC5",
"&. c #2C5BD1",
"*. c #186BDE",
"=. c #1C76D8",
"-. c #3767CB",
";. c #3575C6",
":. c #2666D6",
">. c #2B75D5",
",. c #3577D8",
"<. c #1A68E3",
"1. c #2876E7",
"2. c #2F71EF",
"3. c #5578CA",
"4. c #487BD9",
"5. c #497AE7",
"6. c #4A73EF",
"7. c #718599",
"8. c #6F89A9",
"9. c #3B83DC",
"0. c #3485EC",
"q. c #2B85F8",
"w. c #388AF7",
"e. c #3A92F8",
"r. c #3AA3F8",
"t. c #488DC7",
"y. c #548BCF",
"u. c #5485DE",
"i. c #6D98D7",
"p. c #7CACD4",
"a. c #468BE9",
"s. c #5688E2",
"d. c #4894EE",
"f. c #5595EA",
"g. c #4887F6",
"h. c #4484FB",
"j. c #4A8BFD",
"k. c #548EF3",
"l. c #538DFC",
"z. c #4893FB",
"x. c #4A9DFD",
"c. c #5697F5",
"v. c #5394FC",
"b. c #5C94FD",
"n. c #5D9BFE",
"m. c #6897ED",
"M. c #659BEE",
"N. c #6089F2",
"B. c #6594F3",
"V. c #6A96F4",
"C. c #669AF5",
"Z. c #699AF6",
"A. c #6495FB",
"S. c #6D96FD",
"D. c #649AFB",
"F. c #6B9AFB",
"G. c #719DFC",
"H. c #4BA4F9",
"J. c #53ACF2",
"K. c #6CA6E9",
"L. c #63A5FE",
"P. c #6BA1FF",
"I. c #72A2FE",
"U. c #75ABFC",
"Y. c #56C4FF",
"T. c #7AC7FD",
"R. c #70DAFF",
"E. c #978E82",
"W. c #979184",
"Q. c #9B9484",
"!. c #9C9887",
"~. c #9D9689",
"^. c #9F9989",
"/. c #A39B8A",
"(. c #A39C8D",
"). c #A59E91",
"_. c #A89F92",
"`. c #A6A28E",
"'. c #A6A192",
"]. c #AAA494",
"[. c #ADA896",
"{. c #ADA699",
"}. c #AEA99A",
"|. c #B0A799",
" X c #B2AB9D",
".X c #B6B19F",
"XX c #B8B09F",
"oX c #8D98A5",
"OX c #918EB1",
"+X c #AFA9A0",
"@X c #B4AEA1",
"#X c #B8AFA4",
"$X c #B6B1A3",
"%X c #B9B3A5",
"&X c #BAB6A8",
"*X c #BCB6AA",
"=X c #BEB9AC",
"-X c #BEB9B2",
";X c #C1978A",
":X c #C0B7A9",
">X c #C1BBAE",
",X c #C3BDB2",
"<X c #C6C1B4",
"1X c #C9C2B6",
"2X c #CAC5BA",
"3X c #CCC6BC",
"4X c #D1CABD",
"5X c #8BA6DA",
"6X c #89B0D3",
"7X c #A5BFDE",
"8X c #85ACF0",
"9X c #A5B6EE",
"0X c #AEC3C7",
"qX c #8AD2F6",
"wX c #ABCCE9",
"eX c #BCCBF8",
"rX c #8DE1FF",
"tX c #B2E9FF",
"yX c #CECBC3",
"uX c #D3CCC3",
"iX c #DCD5CB",
"pX c #C8D6F3",
"aX c #D5E3F5",
"sX c #D6EBF7",
"dX c #CBF8FF",
"fX c #EFEDF4",
"gX c #EBF7FC",
"hX c #FEFFF4",
"jX c #F1FFFF",
"kX c #FDFEFC",
/* pixels */
"$X&X.XXX`.^.}.}.`.(.[..X&X%X X`.XX.X/./. X$X&X%XQ.^.$X}.&X&X].W Q.}.=X$X&X{.`.{.[.^..X$X$X.X",
"W [.[.[.$X!.@X,X.X]. X>X<X*X%X.X|.].`.].'.`. X$X&X].+X}.$X X.X$X.X$X X}.=X<X&X!.Q.[.U W.=X`.",
"[.[.W R W.(.].=X<X}.Q.}.>X>X&X&X%X`.@X-X}. X=X&X`.%X[.&X<X=X$X=X$X.X`.`.=X<X<X.X].$X'.N ^.=X",
"XXXX`./.'.!.^.(.^.].(.!..X.X.X X&X*X$X&X*X*X}.}.'.`.].[.}.$X.X=X1X&X$X`.%X=X`.}.:X&X<X1X}.$X",
"*X1X>X=X&X].!.!.~.!.'.E Y Q./.[.[.{.{.}.=X}.E (.&X}.E (.$X}.}.$XuXyX.X=X#X=X{.R ].&X].$X=X.X",
">X>X1X&X}.].].&X>X%X`.h N R ~.(.{.(.].'.'.$X].}.&X.X.X'.$XQ..X$X`.&X].'.$X@X,X&X`..X=X[.'.(.",
"[.}.}. X.X].}.+X X2X|.W N W _.  . ^.(.#X-X$X-X@X'.}.=X&X`.[.W W h T @X{.].].,X=X=X<X=X$X}.'.",
"Q.!. X'.{.$X=X&X].]. X,X,X,X  - ;   (.'.,X'.^.{.[.}.%X<X%X!.E T h f !.].^.@X:X%X1X1X-X=X$X`.",
"}.].].&X*X#X$X<X$X X}.[.=X  t ,.u.' o -X(.[._.[.}.&X>X,X2XY d Y `.}.&X}.}.[.`. X X%X=X&X&X$X",
" X'.W.{.&X(.~.].].(.,X*X+ O.j.a.a.c.[   ].Q. X X).(.#X@X@X=X_.~.W.!.-X-X$X$X@X XU (.,X@X!.`.",
"^.).(.~.+X@X].}.].(.{.  | b.a.5.f.f.f.9 . (.&X*X>X@X#X X~.{.@XyX-X^.-X-X=X$X-X&X(.(.$X}. X].",
"E.B W.^.@X=X*X@X).~./.@ 5.j.5.5.k.a.c.]   ,X&X>X X]._. X$X+X{.-X-X-X&X+X$X*X}.}.$X@X.X=X<X=X",
",X-XB f B '.&X,X@X).O & 5.g.g.6.g.a.z.|   . $X<X>X&X1X>X$X$X,X,X{.$X$X+X].#X}.~.@X'.(.@X<X1X",
"].).U W.(.].-X$X{.).  @ 4.v.h.h.g.a.k.|     &X<X2XuXuX2X*X@X).(.W.E.+X'.-X,X).).@X,X$X*XXX.X",
"=X@X{.].@X$X(.{.*X+X    [ D.j.j.j.j.z.)       &X X%X4X,X X X#X+X{.'.{.#X*X+X{.~.#X$X'. X>X*X",
"-X$X{.+X&X&X].'.)._.    u 6.l.l.5.-.o.>         ].E.#X2X,X,X=X-X+X'.W.].2X-X*X#X@X&X%X@X X*X",
"(.'.].}.=X,X{.E.Q.      : 5.D.N.#.u w =     0 0 . '.[.>X4X1X>X>X@X[.@X#X,XyX>X*X@X@X(.E.(.`.",
"$X}.{.*X=X*X*X&X    & 0 3.A.A.Z.B.M.m.3.w ; ' u.9    X X:X,X%X&X>X>X&X,X@X#X X].|.{._.E.`.`.",
"-X=X&X=X,X2X1X  4  .5.S.S.S.Z.Z.V.M.Z.I.V.u.-.o.>.9   1X>X<X:X:X#X@X,X$X>X2X#XE.(././.XX<X2X",
"+X$X=X<X>X*X  t 6.F.F.Z.B.V.S.F.Z.Z.Z.m.m.V.V.s.,.;.8 . %X&X}. X).).&X&X#X:X:X*X].{.~.(.%X*X",
"].(.^.{.#X. 4 6.D.D.I.P.D.D.A.F.F.C.Z.S.C.B.M.C.u.-.,.;   [.#X,X}.$X,X*X@X% X %X,X-X%X&X>X X",
"$X'.].].].o -.b.b.D.6.6.F.D.D.D.A.F.Z.F.Z.Z.C.C.4...d.)   *X>X<X{.].{.{.    o   1X1X*X$X}.].",
":X%X*X*XO & a.b.b.S.r 6 D.F.D.S.Z.Z.C.C.F.C.D.C.u.%.a.)   R /. X}.).{.  - X.t.7 . *X$X@X).(.",
"<X<X,X>X  4 l.b.b.A.= # 5.P.S.S.G.S.S.Z.F.b.b.D.k.%.9.|   . N R ].$X  i J.R.qXi.@ $X>X%X%X%X",
"%X|.*X>X  4 l.b.n.b.* - g.F.G.G.I.I.S.B.A.A.b.n.k.&.>.}   . <X*X].  ) Y.Y.H.d.f.; O ].%X>X*X",
" X`.*X,XX - k.n.n.n.5 e D.F.I.8X5X5XK.K.B.A.v.b.5.:.0.}   . &X&X  / T.r.1.f.m.i.- X  X$X@X X",
"|.[.{.@X'.@ 4.L.b.b.6.2.L.U.OX! Q K J W p.D.n.d.,.>.1.^   . iX  4 u.>.;.eXgXjXgXq . >X%X X*X",
" X$X X`.}.  ) 8X8X8XpXeX9X;XA L P P G v z a f.g.1.*.>.7       # 5XwX7XfXhXhXkXjXq   :X@X:X*X",
"$X*X%X%X$X X  +.pXsXgXfX~ M P I I I F k m 2 i 1.1...9 .     o oXkXhXkXhXhXfXsXoX* . *X].].|.",
"&X*X@XE E.(.%X  OXjXgXfXz Z I I I H l b m b < ` $.:         @.kXjXhXkXaXt.;.O.y.7 . |.|.:XXX",
"%X@X X,X~.f E.{.o 7.gXsXz G L P S j c M v j 3 g .   > ,     oXdX6X6Xi.1.*.=.f.y.& $ (._.>X<X",
"].$X|.%X,X,X#X{.XX  p i.x Z F S n c A C l 3 8.u 7 [ M.f.w   , 8Xt.J.H.U.U.qXT.7   ,X%X X]. X",
"'.^.}.&X~.{.3X-X].].    O 1 Z S A S C l < ;.z.x.x.H.x.x.0.:   +.rXtXtXgXdXqXw   }. X{.-X{._.",
"=X}.}.}.{.=X,X*X@X).].].    < V D Z x s ,.2.j.v.z.z.w.0.q._ . o p wXpX0X7.,   .X*X*X@X{.#X+X",
"$X<X<X2X3X,X,X,X-X&X$X(.Q.!.  % p _ { <.2.2.l.v.e.e.w.2.1.%.# .   * =     . :X X X X(.).B W.",
"&X}.-X-X X X X]. X&X&X@X&X2X+ 5 2.2.2.1.<.^ ( 2.e.e.2.1.,.y   {. X X.X3X*X*X1X|./.R f E Q.h ",
"^.$X&X@X'.}.,X X_._.+X+X%X$X$ 4 B.L.L.a.t & + y 1.q.q.>.9   >X+X X].).].#X*X2X>XXX_.h E *X$X",
"].}.>X X]. X_.`.+X_.-X,X@X].{.  9 O.] ;   @X{.  4 { X.4   ,X:X>X:X%X,X X].,X4X*X:X#X].). X%X",
"=X[.^.`.{.1X|.W _. X>X#X).+X{.W.      . @X,X2X,X  o     _. X X(.@X>X*X X(._.:X:X>X*X(. X>X X",
"%X X].}.].&X*X*X*X>X*X+X+X+XW.Y (.%X X#X#X*XuX,X#X~._.~.].}.|._.@X,X@X X|.|.(. X#X,X*X@X X~.",
"-X#X X(.~.@X).{.,X-X%X*X,X2X{.W.@X XW U [.@X X*X,X,X%X%X X*X<X:X>X*X].{.(.XX).E ].|.#X:X%X%X",
",X*X*X>X_. X*X#X,X,X.X/.%X,X,X|.~./.].[.[.|.].#X*X X#X>X3X-X1X*X@X%X@X{.%X X*X+X X#X_./.E.].",
"~.#X|.|.>X*X,XuXuX,X#X#X#X{. X X&X%X).@X,X,X*X|. X(.U R  X3X&X:X,X*X#X(./.#X,X&X X1X3X_._.%X",
").$X*X{.#X:X#X,X2X#X#X>X>X,X>X_. X>X*X+X,X3X:X]. X(.R W `.*X X*X:X%X=X=X_. X3X-X:X:X%X>XXX.X",
"2X$X^.(.{.:X)._.,X{.W.). X#X,X,X1X@X#X@X@X%X*X'.|.,X$X@X(.R ].}.(. X1X,X#X&X,X,X#X#X X]. X#X",
"-X&X@X$X+X#X,X#X*X-X).).).#X*X#X{.@X).+X}. X*X@X/.:X2X1X=X).}.*X*X/.%X>X_.(.{.>X#X{.(._.`. X"
};
