/* XPM */
static char *result[] = {
/* columns rows colors chars-per-pixel */
"46 46 216 2 ",
"   c #010101",
".  c #0C0302",
"X  c #070905",
"o  c #04010B",
"O  c #1B0302",
"+  c #160902",
"@  c #1C160C",
"#  c #010114",
"$  c #0C0B15",
"%  c #04071A",
"&  c #131113",
"*  c #240D00",
"=  c #291803",
"-  c #3C1904",
";  c #040525",
":  c #020B2C",
">  c #081427",
",  c #131424",
"<  c #02053B",
"1  c #0B1636",
"2  c #4B2501",
"3  c #583701",
"4  c #522C10",
"5  c #6A2901",
"6  c #6C3702",
"7  c #713E04",
"8  c #543633",
"9  c #654A02",
"0  c #76400D",
"q  c #796302",
"w  c #59423A",
"e  c #735B38",
"r  c #000449",
"t  c #071546",
"y  c #000353",
"u  c #051556",
"i  c #0B2956",
"p  c #24365A",
"a  c #05147E",
"s  c #042763",
"d  c #1C3D6E",
"f  c #202076",
"g  c #273972",
"h  c #695E54",
"j  c #746B5C",
"k  c #756F62",
"l  c #7A7662",
"z  c #8B3500",
"x  c #9B3300",
"c  c #964600",
"v  c #985B03",
"b  c #B55007",
"n  c #8F6501",
"m  c #A76502",
"M  c #B76602",
"N  c #AD7B07",
"B  c #C95A04",
"V  c #CC6E03",
"C  c #C67900",
"Z  c #D97601",
"A  c #AC7B41",
"S  c #847C6B",
"D  c #857D6C",
"F  c #847E71",
"G  c #BD9F37",
"H  c #CF8A05",
"J  c #DD9B00",
"K  c #E48B00",
"L  c #F38D00",
"P  c #E69400",
"I  c #EA9C01",
"U  c #F49C02",
"Y  c #DFA701",
"T  c #DFB301",
"R  c #EEA600",
"E  c #EBAC00",
"W  c #F6A400",
"Q  c #FCAC01",
"!  c #EDB200",
"~  c #FABA00",
"^  c #C9B13D",
"/  c #E7C400",
"(  c #EBC201",
")  c #F6C900",
"_  c #FDC800",
"`  c #FDD301",
"'  c #FBD902",
"]  c #88826F",
"[  c #8B8474",
"{  c #8D8677",
"}  c #948B78",
"|  c #938C7D",
" . c #96917D",
".. c #AF8B74",
"X. c #D6BD5E",
"o. c #DCB86F",
"O. c #DCCA79",
"+. c #142D8F",
"@. c #19498A",
"#. c #194695",
"$. c #324E83",
"%. c #274F99",
"&. c #194BA9",
"*. c #164CB8",
"=. c #1D55B2",
"-. c #334DA9",
";. c #305AB5",
":. c #2663BA",
">. c #3A62B5",
",. c #4E6A86",
"<. c #6A7787",
"1. c #4F6CB1",
"2. c #1A58D0",
"3. c #2C53CB",
"4. c #2855D8",
"5. c #2764C6",
"6. c #3963C3",
"7. c #3572C9",
"8. c #2B67DC",
"9. c #3768D7",
"0. c #3874DA",
"q. c #3D76E4",
"w. c #387FF1",
"e. c #4D71CF",
"r. c #4A7BE8",
"t. c #587EE0",
"y. c #477EF3",
"u. c #638389",
"i. c #7B8BBB",
"p. c #3D82E1",
"a. c #3A88F2",
"s. c #5486D4",
"d. c #7288C7",
"f. c #6688DE",
"g. c #78A8DD",
"h. c #4683ED",
"j. c #548AE2",
"k. c #5C99ED",
"l. c #4888FB",
"z. c #578CF9",
"x. c #4A9BF8",
"c. c #5496FC",
"v. c #5D95FC",
"b. c #5D9AFE",
"n. c #658EEE",
"m. c #6A93E8",
"M. c #6597F6",
"N. c #6494FE",
"B. c #6B96FE",
"V. c #649AFE",
"C. c #6B9AFE",
"Z. c #729BFF",
"A. c #43ADFF",
"S. c #58A4FD",
"D. c #6FB4EE",
"F. c #64A1FF",
"G. c #68A7FC",
"H. c #72ABF6",
"J. c #79B8FA",
"K. c #76C0DB",
"L. c #8A898D",
"P. c #978E82",
"I. c #979184",
"U. c #9B9484",
"Y. c #9C9887",
"T. c #9D9689",
"R. c #9F998A",
"E. c #A49B8A",
"W. c #A39C8D",
"Q. c #A59E91",
"!. c #A89F93",
"~. c #A6A28E",
"^. c #A6A192",
"/. c #AAA394",
"(. c #ADA896",
"). c #ADA69A",
"_. c #AEA99A",
"`. c #B1A897",
"'. c #B0A799",
"]. c #B2AB9D",
"[. c #B6B19F",
"{. c #B8B09F",
"}. c #868CA6",
"|. c #86A5AF",
" X c #B4AEA1",
".X c #B8AFA4",
"XX c #A9B4A6",
"oX c #B6B1A3",
"OX c #B9B3A5",
"+X c #BDB8A7",
"@X c #B7B3A8",
"#X c #BCB6AA",
"$X c #BEB9AC",
"%X c #BEB9B1",
"&X c #C0B7A9",
"*X c #C1BBAD",
"=X c #C3BDB2",
"-X c #D4CE98",
";X c #C6C1B4",
":X c #C9C2B6",
">X c #CBC5BA",
",X c #CBC5BC",
"<X c #D1CABD",
"1X c #C8D7B6",
"2X c #F4EFBE",
"3X c #92B8D3",
"4X c #84B6EA",
"5X c #81ACF4",
"6X c #ABC2D3",
"7X c #98CDFD",
"8X c #CECBC3",
"9X c #D2CCC2",
"0X c #DEDFD8",
"qX c #E4DED9",
"wX c #E9EACD",
"eX c #D3E5F6",
/* pixels */
"oXOX[.+X~.W._.).~.E.(.[.OXoX].~.[.[.U.~._.@XOXoXY.R. X).@X@X(.} U.].&XoX#X_.~.(.(.~.[.oXoXoX",
"U.(.~.(. XY.].=XoX/.'.;X;X$XOX[.`./.W./.^.~.].OX+X/.[._.@X].[.[.].oX].(.#X;XOXT.U./.[ I.*XW.",
"(.(. .} I.R.(.#X;X_.U._.*X*X$X+XoX!.oX=X(.].#X@X~.@X(.@X;X*XoX$XXX[.(.~.$X;X;XOX(.oX!.S Y.+X",
"[.[.~.E.^.Y.R.~.R./.~.U.[.[.].].+X#XoX@X$X$X_._.^.W.(.(._.[.oX$X;X+XoXW.@X$X~.(.&XOX;X;X].oX",
"$X:X*X$X#X).Y.Y.T.T.^.| } I.E.)./.).)._.#X_.| W.@X_.| W.oX(._.@X9X8XoX+X X*X).{ /.OX/.oX+XoX",
"*X*X;X+X_././.@X*XOX~.l l { T.W.).W.).^.^.@X/._.+X[.[.^.oXY.[.OX~.oX(.~.oX.X=X#X~.[.#X_.^.~.",
"(.).].].[./._._.].:X`. .F  .!.).E.R.R. X#XoX%X X^._.#X+X/.~. . .l } oX).(./.=X#X$X;X#X@X(.^.",
" .E.].^.).oX$X@X/./.{.=X=X;X,X8X X^.Q.Q.;X^.o o (._.+X;XOXY.| [ l j Y.^.R. X&X+X;X>X=X#XoX^.",
")./.^.#X#X.X@X;XoX]._.(.&X X#X=X/.Q.$X#XR.; +.*.#   *X:X:X{ h { ~._.@X]._./.~.`.].OX$X#XOXOX",
" X!.I.).#XW.U././.W.=X#X*X<X#X#X].Q.W.OX!.r 4.w.1   % o oX$X^.Y.I.T.#X=XoXoXoX].[ ~.*X].R.~.",
"W.^.W.T._. X/.'.!.W.'.=X=X:X:X;X X@X).OX& r 8.y.1 o =.+.o /.XX8X%XW.#X%X$X@X$X@XW.W.oX].].^.",
"P.l Y.R. X*X#X XW.E.E.'.`.oX+XOX).).@X<XX y 8.r.% ; 0.0.t @ ).%X*X%X@X].@X#X_._.oX XoX$X;X$X",
"=X%X] j D Q.#X=X X!.Q.T.R.!.].oX/.P.P.T.  u q.6.X % j.x.u + :X;X).@X@X X/..X).W. X^.W. X;X;X",
").Q.] P.Q./.#XOX).Q. X.X).^.oXoX XQ.R.R.  u y.6.  X p $.# @ R.R.I.L./.^.%X=XW.T. X=X X+XoX[.",
"@X X)./. X@XW.).#X XF T. X!.].].^. X      1 q.>.          @ @X_.).!.).@X%X X).W. X@X/. X*X+X",
"%X@X).XX@X@X/.!.Q.Q.k k W. X].oX.         > 0.@.            *X$X].!.I.^.:X%X#X.X X@XoX X].&X",
"W.^./._.$X*X'.| U.!.!.).!./.oX  : #.$.$     1.,.    ; d d %   %X X).].@X:X,X=X#X X XE.P.W.^.",
"oX_.).$X$X&X$X&X.X&X:X:X,XOX  u z.c.N.e.p , & + % g r.l.l.e.t   *X*X@X=X X.X]./.'.).!.P.~.~.",
"%X$X@X$X=X>X;X;X>X+X+X*X&XX t y.B.N.N.C.C.t.1.>.e.z.z.l.y.l.e.1   oX$XOX&X:X.XP.W.W.W.{.;X>X",
"].oX$X;X&X$X].).=X#X/.^.  o ;.V.M.B.B.N.B.Z.Z.C.v.c.z.z.z.h.c.%.    $XOXOX*X&X+X/./.T.W.oX+X",
"^.W.W.).oX].{.#X#X#X/.    : r.V.v.B.C.C.C.B.C.C.N.V.N.N.v.z.c.%.      OX X'.^.oX=X=XOX@X*X X",
"oX^.^.^./.'.`.oX XOX. = . i B.C.N.N.C.C.B.B.C.C.Z.B.V.C.v.z.S.g   . X    XOX{.oX:X=X#XoX'.^.",
"#XOX&X&X^.].].T.T.  v U C e G.V.V.V.F.C.C.C.B.C.B.B.F.F.b.b.k.w z B v =   ]._.oX.X#X.X X^.W.",
"=X;X;X*XR.^.OXoX.X. V Q _ Q L.F.v.V.v.z.C.V.C.C.C.N.b.c.M.S.i.B ) _ Q 5    X).).OXOX&XOXOXOX",
"+X'.#X*X@X]. X].X . c W ~ _ H s.N.t.+.+.V.V.V.G.G.n.f a r.D...K / ) I z     ;X].W.].(.oX*X#X",
"].^.$X=X#X%X@X  X O z E _ ' Z <.C.m.1 < y.F.M.V.G.f.% < 7.D.A L ) ) P b 3 X   *X=X.X]..X X X",
"'.(._. XW./.:X  9 n z E ' ' Z l J.m.< u z.V.b.b.G.m.; r p.g.b W ( ) U B C 3   [ E.{.=X X].#X",
"]. X'.^.'.].+X+ q H x I ) ` K e 4Xf.y -.V.c.V.c.F.n.y a x.d.B Q ( / P b C 0   (.E.!.&X X&X+X",
"oX$X#XoXoX'.(.  . = 3 K ~ ~ L 7 3Xm.9.v.V.V.F.V.S.S.9.4.G.|.Z R T T H x 6 + .XE.!.*X#X/.(./.",
"OX&X].| I.W. XOX    2 I E ~ K 5 ,.H.7XJ.J.H.H.5XH.g.7XS.j.|.N Y E R P 5     .X X!.].].`.&X].",
"@XoX].=XE.j | '.).  m ~ ! P 7 . $ ,.eXeXeXqX0XqXwX2XwX|.> X + n J W P 6   /.'.'.&X].E.!.*X:X",
"/.[.)..X=X*X.X).XXX 9 R M - .   # o 8 ..o.o.o.O.X.^ G 4   o     2 m M -   *X X X.X=XOX'.(.'.",
"^.Y._.OXW./.8X=X^./.& = +     ; &.s   . O + * * * +   # *.#.. .   o .   =X&X).).).'.).%X XQ.",
"#X]._._.).#X%X#X XQ./.&       : 8.:.p , $ $ o   o o # y 2.5.$       I.!.!.&X). X#X#X X). X).",
"@X$X;X,X,X=X=X=X%X@X.XW.U.T.  ; 2.5.:.1.d.6X1X;XXXu.u 3.8.=.%   !.#X'.'.=X=X&X]. X'.Q.W.F E.",
"@X X=X%X].].].(. XOXOX XOX:X  # ;.l.a.q.6.}.-X-X1XK.a.a.a.=.o   '.]. X<X#X&X=X'.E.| j | P.k ",
"R.oX@X X/._.=X].!.!. X).oX@X%Xo -.S.A.S.-.  . + @ d a.A.A.+.  {.].!.!./..X#X:X=X{.!.l | #XoX",
"(._.*X]./.].!.~.).!.%X=X X/.).  t 7.x.:.$  X).W.(.% +.0.p.t   *X&X&X=X'.^.=X<X+X.X{.`.!.'.OX",
"+X(.R.~.).:X`. .!. X=X@XQ.).).T.  # : o @X=X,X=X^.].$ ; ;   ].E..X&X#X XW.E.*X*X=X#XQ.'.=X].",
"@X]./._./.OX+X#X@X=X@X). X XI.{ W.oX]..X X=X9X=X@XU.^.R.~._.(.^..X=X X].'.].E.]..X=X#X X].T.",
"%X@X'.W.E. XW.).=X%XOX#X=X:X XP. X'. .[ ). X X#X=X=X#XOX X#X;X&X*X#X/.).E.].Q.P./.'. X&XOXOX",
"=X#X#X=X!.].#X#X=X=X{.W.OX=X=X).E.W./.(.(.'.E..X&X]..X*X>X$X:X#X XOXoX).+X XOX X]..X!.E.P./.",
"E. X).'.#X#X=X9X9X=X.X.X.X).'.'.OX XQ. X=X:X#X`.].E.] }  X:XOX*X=XOX.XQ.T.OX=X#X].:X<X!.^.OX",
"!. X&X)..X&X.X=X=X#X.X*X&X=X=X/.].*X#X X=X,X&X/.].W.{ I.~.#X'.$X*XOX#X&X!.].=X=X&X&X.X*XOX].",
":XoXR.W.!.&XQ.!.=X).I.Q. X@X*X*X=X@X@X X].OX#X^.].=X.X_.W.} /._.W.].:X=X.X@X=X=X.X.X]./.`.{.",
"%X@X XOX X.X=X.X#X%XQ.Q.Q.@X#X.X_. XQ.'.'.].$X XE.&X,X,X$XQ.).$X#XE.OX*X!.W.).=X.X'.E.^./.]."
};
