/* XPM */
static char *result[] = {
/* columns rows colors chars-per-pixel */
"46 46 233 2 ",
"   c #010101",
".  c #0C0302",
"X  c #04010B",
"o  c #090905",
"O  c #1B0302",
"+  c #160902",
"@  c #1C160C",
"#  c #11100C",
"$  c #010114",
"%  c #0C0B15",
"&  c #04071A",
"*  c #181813",
"=  c #100F14",
"-  c #291803",
";  c #221F18",
":  c #341503",
">  c #242217",
",  c #34301D",
"<  c #030727",
"1  c #081427",
"2  c #131424",
"3  c #02053B",
"4  c #0B1636",
"5  c #2F312D",
"6  c #7F1700",
"7  c #4B2501",
"8  c #583701",
"9  c #522C10",
"0  c #6A2901",
"q  c #6C3702",
"w  c #713E04",
"e  c #4D3B33",
"r  c #3D402B",
"t  c #654A02",
"y  c #76400D",
"u  c #796302",
"i  c #564A34",
"p  c #5D5437",
"a  c #4C4A33",
"s  c #735B38",
"d  c #645A33",
"f  c #61603E",
"g  c #000449",
"h  c #071546",
"j  c #000353",
"k  c #051556",
"l  c #0B2956",
"z  c #24365A",
"x  c #05147E",
"c  c #0C1D60",
"v  c #1C3D6E",
"b  c #042763",
"n  c #273972",
"m  c #202076",
"M  c #5A564A",
"N  c #5B5B54",
"B  c #4C4E48",
"V  c #645D55",
"C  c #63584D",
"Z  c #5F615A",
"A  c #686459",
"S  c #706C4F",
"D  c #767462",
"F  c #726F66",
"G  c #8B3500",
"H  c #9B3300",
"J  c #964600",
"K  c #985B03",
"L  c #B55007",
"P  c #8F6501",
"I  c #A76502",
"U  c #B76602",
"Y  c #AD7B07",
"T  c #C95A04",
"R  c #C67900",
"E  c #D97601",
"W  c #CC6E03",
"Q  c #E97D00",
"!  c #817F5C",
"~  c #AC7B41",
"^  c #857B67",
"/  c #79836B",
"(  c #BD9F37",
")  c #DD9B00",
"_  c #CF8A05",
"`  c #E48B00",
"'  c #F38D00",
"]  c #E69400",
"[  c #EA9C01",
"{  c #F49C02",
"}  c #DFA701",
"|  c #DFB301",
" . c #EBAC00",
".. c #EEA600",
"X. c #FCAC01",
"o. c #F6A400",
"O. c #FABA00",
"+. c #EDB200",
"@. c #C9B13D",
"#. c #E9C301",
"$. c #FDC800",
"%. c #F6C900",
"&. c #FCD501",
"*. c #868252",
"=. c #878569",
"-. c #8F8C75",
";. c #8F8F78",
":. c #938E75",
">. c #938E7C",
",. c #998F73",
"<. c #95927C",
"1. c #99957E",
"2. c #9D9B79",
"3. c #95916A",
"4. c #A4987A",
"5. c #B2856D",
"6. c #AAA57B",
"7. c #B6AA73",
"8. c #D6BD5E",
"9. c #DCB86F",
"0. c #DCCA79",
"q. c #142D8F",
"w. c #19478F",
"e. c #274F99",
"r. c #324E83",
"t. c #194BA9",
"y. c #164CB8",
"u. c #1D55B2",
"i. c #305AB5",
"p. c #334DA9",
"a. c #2663BA",
"s. c #3A62B5",
"d. c #4E6A86",
"f. c #4F6CB1",
"g. c #6A7787",
"h. c #1A58D0",
"j. c #2855D8",
"k. c #2C53CB",
"l. c #2B67DC",
"z. c #3768D7",
"x. c #3874DA",
"c. c #3069C6",
"v. c #3D76E4",
"b. c #387FF1",
"n. c #4D71CF",
"m. c #4A7BE8",
"M. c #477EF3",
"N. c #587EE0",
"B. c #638389",
"V. c #7B8BBB",
"C. c #3F83D7",
"Z. c #3A88F2",
"A. c #3D82E1",
"S. c #5486D4",
"D. c #6C88D2",
"F. c #78A8DD",
"G. c #4683ED",
"H. c #5C99ED",
"J. c #4888FB",
"K. c #578CF9",
"L. c #4A9BF8",
"P. c #5D95FC",
"I. c #5D9AFE",
"U. c #5496FC",
"Y. c #548AE2",
"T. c #658EEE",
"R. c #6A93E8",
"E. c #6494FE",
"W. c #6B96FE",
"Q. c #649AFE",
"!. c #6B9AFE",
"~. c #6597F6",
"^. c #729BFF",
"/. c #58A4FD",
"(. c #43ADFF",
"). c #64A1FF",
"_. c #68A7FC",
"`. c #72ABF6",
"'. c #79B8FA",
"]. c #6FB4EE",
"[. c #76C0DB",
"{. c #948E84",
"}. c #969281",
"|. c #9A9683",
" X c #9D9984",
".X c #9E9A8A",
"XX c #969B89",
"oX c #95948F",
"OX c #A39C85",
"+X c #A29D8C",
"@X c #A0978E",
"#X c #A39F90",
"$X c #AAA485",
"%X c #A5A18D",
"&X c #AAA48D",
"*X c #ACAA8D",
"=X c #ABA784",
"-X c #B2AA8A",
";X c #A6A292",
":X c #ABA594",
">X c #ADA995",
",X c #ADA798",
"<X c #AEA999",
"1X c #A5A499",
"2X c #B1AA95",
"3X c #B2AC9B",
"4X c #B0A795",
"5X c #B6B19E",
"6X c #B9B598",
"7X c #AEB09C",
"8X c #86A5AF",
"9X c #B9AFA1",
"0X c #B4B3A3",
"qX c #BBB3A3",
"wX c #B8B7AC",
"eX c #A2BFAB",
"rX c #868CA6",
"tX c #C2BA97",
"yX c #C1B7A5",
"uX c #C2B9A9",
"iX c #C1BBA0",
"pX c #D0CA97",
"aX c #C6C4B1",
"sX c #C8CFB3",
"dX c #F4EFBE",
"fX c #83B3ED",
"gX c #91A6CB",
"hX c #98CDFD",
"jX c #ABC2D3",
"kX c #DEDFD8",
"lX c #E4DED9",
"zX c #E9EACD",
"xX c #D3E5F6",
/* pixels */
":X;X;X;X;X%X;X;X;X:X;X;X<X<X1X>X;X:X%X;X:X>X>X>X>X>X<X<X<X2X7X2X>X:X>X>X<X<X:X;X%X+X+X+X%X.X",
";X;X;X;X.X;X;X;X;X:X:X&X<X<X<X>X>X>X%X%X:X<X<X>X>X*X:X*X>X7X>X>X>X<X<X<X<X<X:X:X;X%X+X%X;X%X",
";X;X;X+X+X+X%X%X%X+X%X;X:X;X:X:X;X>X>X>X>X<X>X<X>X;X>X>X>X3X>X>X3X3X>X<X2X<X<X:X7X*X;X:X;X:X",
";X;X;X#X.X;X+X+X+X+X.X.X%X%X;X%X%X;X>X<X<X<X;X;X>X%X:X>X>X>X>X2X2X<X<X>X<X3X<X<X:X>X<X<X<X:X",
">X;X;X;X;X1X+XXX.X+X.X|.|.|..X+X%X;X&X:X;X:X%X X$X%XOX%X%X%X:X:X:X:X:X>X,X,X<X,X:X:X3X3X<X<X",
">X<X1X;X#X;X%X+X+X.XXX<.<.<..X+X&X;X%X%X%X%X=X*X%X<.<. X.X.X.X.X+X.X%X%X:X>X<X<X<X<X3X<X<X3X",
"%X;X1X%X;X;X;X;X;X.X}.|.|..X;X&X%X;X%X%X*X2.a d *X7X<.<.|.{.:.:.-.;.1.+X&X,X<X3X5X5X3X<X3X3X",
".X#X#X#X%X:X;X;X:X+X.X+X+X:X&X:X:X*X*X%X:Xa   $ 5 / >X.X>.>.-.:.-.<.1.+X&X,X2X0X0X3X0X0X3X<X",
"%X+X+X#X;X:X;X;X;X+X;X:X,X3X3X3X>X%X=X>XF & q.y.&   > D XX<.;.;.|. X X%X;X>X<X<X,X9X9X7X<X<X",
"XX|.|..X#X;X#X;X%X+X;X<X<X2X5X3X2X:X*X&X5 g j.b.4   & $ B %X<.1. X X X%X;X:X,X,X,X3X1X<X<X<X",
">.>.{.}..X.X#X#X#X#X#X:X,X,X2X2X>X*X4XOX* g l.M.4 X u.q.  M  X1.1. X%X;X,X:X<X<X,X,X,X<X3X3X",
"}.<.>.>.}..X@X#X#X%X+X;X,X:X:X*X$X*X*X:.o j z.m.& < x.x.h @ -. X2.%X%X:X:X,X<X0X,X<X9X3X3X0X",
" X|.{.<.|..X.X#X+X+X+X#X+X+X%X%XOX-XtX=.  k v.c.o & Y.L.l + :.%X%X%X%X;X:X,X,X,X<X3X3X3X0X3X",
".X|.{.|..X#X#X.X|.|.|. X X.XOXOX$X3.f ,   k M.c.    z r.$ @ =X=X%X%X%X&X,X,X,X,X,X1X7X3X3X7X",
".X|..X+X#X#X#X.X.XXX1.,.1. X X$XD *       3 A.s.X         * 6.*X%X&X:X,X<X<X,X,X1X,X1X<X7X1X",
"#X#X#X;X;X#X.X+X+X.X1.1.1.,.2.M .         1 x.w.            p 6X%X;X<X<X0X<X<X,X,X,X,X1X:X:X",
";X;X;X1X,X<X;X;X.XOX2. X1.2.M   4 w.r.&     f.d.    < v v %   A wX#X1X9X9X<X3X,X1X;X;X;X;X:X",
":X;X:X,X<X7X7X<X;X+X%X<.%XA   k G.Q.E.n.z = = = & n m.J.J.z.h   V wX1X7X3X3X3X<X,X1X#X;X:X;X",
";X,X<X<X7X0X<X<X<X*X%X;XA o h M.W.E.W.!.W.N.f.s.n.K.K.J.m.J.n.4   Z wX1X<X3X<X,X;X#X#X;X1X>X",
";X,X<X<X<X<X7X>X&X%X5XN   X i.Q.E.W.W.~.!.^.^.!.P.P.K.K.K.G.U.e.    N wX1X:X,X,X1X;X;X;X:X;X",
",X,X,X,X>X>X>X&X>X0XM     < m.Q.P.W.W.!.!.W.!.W.E.W.E.E.P.K.U.e.      M 0X;X,X,X,X,X<X;X,X;X",
",X,X:X:X:X1X>X&XtXM . - O l Q.W.E.E.!.!.!.W.!.!.!.W.Q.Q.P.U.I.n   O     M 9X;X>X<X3X<X:X:X>X",
"<X3X3X<X>X*X;X<XM   K ..R C _.W.Q.Q.).!.!.!.W.!.W.W._.).P.I.H.i G U K -   M uX;X3X0X<X,X:X:X",
"0X2X0X2X<X*X0XM   o W X.$.X.{./.P.Q.P.K.!.Q.!.!.!.W.P.U.~./.V.T $.$.X.0     A 0X<X3X<X<X<X<X",
"3X<X<X<X>X7XZ   o . J o.O.$._ S.E.N.q.q.Q.Q.Q.)._.T.m x n.].4.` #.%.[ G       F qX,X<X3X3X<X",
",X<X:X>X5X#X#   o O G  .%.&.E g.~.R.4 3 M.).~.Q._.D.& 3 c.].~ ' %.%.] L 8     o {.0X3X9X0X9X",
",X2X<X:X>XXX#   t P G  .&.&.E D fXR.3 k K.Q.I.I._.T.< g G.F.L X.#.%.{ T R 8   * @X9X,X3X3X<X",
",X<X,X:X%X>XA + u _ H [ &.&.` s fXR.j p.I.I.I.P.).H.j x L.D.T X.#.#.] L _ y   M uX,X0X<X<X<X",
"4X:X:X:X%X%XwXa o - 8 ` O.O.' y gX!.j.Q.Q.Q.).Q././.z.j._.8XE ..| | _ H q + ; -X3X4X,X,X,X3X",
":X:X:X;X%X X>X{.    7 [ +.+.` 0 d.].hXhX'.`.`.fX`.F.hX/.S.8XY .. ...] 0     S 6X;X:X,X;X;X;X",
"#X4X,X&X%X%XXX#X;   I O.+.) w O $ d.xXxXxXlXkXlXzXdXzX8X1 o + u ) o.] w   * &X&X:X;X;X;X;X#X",
":X:X;X;X;X;X%X1XF o t ..U :     X $ e 5.9.9.9.0.8.@.( 9   X     7 I U :   =.qX+X,X1X;X;X;X#X",
",X4X#X,X,X#X,X4X3X/ * - O X   < w.b   o O O + - - O   $ y.w.    X . .   S yX*X:X:X#X+X+X.X.X",
":X#X#X3X3X#X3X2X&X0XD =       < l.a.z 2 % % o X X X $ j h.c.%       * ^ iX2X4X#X#X+X@X X|.|.",
":X:X,X3X3X3X3X3X:X:X,X+X=.r   < k.h.a.f.D.jXsXsXeXB.k k.l.u.&   > *.:XyX4X4X,X1X#X@X|.>.>.>.",
",X4X,X3X,X,X4X,X4X4X4X-X6X3.  $ c.J.Z.v.s.rXpXpXsX[.Z.Z.Z.u.X   S pX-X4X,X2X<X:X#X@X<.{.{.>.",
"4X:X3X,X,X,X,X4X4X4X3X-X-X6.*   e./.L./.p.  . + * v Z.(.(.q.. @ OX2X2X5X2X2X,X4X#X+X|.{.}.}.",
":X,X3X4X,X,X4X4X4X3X3X4X=X6XA   l c.L.a.& > > # . $ q.x.A.h   D qX>X3X5X3X2X,X:X#X+X.X|.|.|.",
",X,X#X,X4X,X,X3X3X3X3X3X*X&X<XB   $ < o d 6.$X4.*.p % < <   p 6X2X2X3X3X<X,X,X,X#X#X+X.X.X.X",
",X4X4X,X,X4X3X3X9XyX3X4X4X&X&X+Xa o o i 6.6.=X-X7.7.d > @ a 6.-X2X2X3X3X,X:X,X4X:X:X#X#X+X+X",
"4X3X4X:X,X4X4X5XyXyX3X4X4X4X#XOX4.^ -.OXOX$X-X-X$X4.4.,.3.$X*X4X3X3X2X<X<X,X,X,X,X:X:X%X+X+X",
",X,X4X4X4X3X5XyXuXyX,X#X,X,X4X4XOX-X2X-X-X4X&X&XOXOX4.4.&X&X:X2X3X2X,X2X2X<X2X2X,X,X:X;X;X:X",
"3X4X3X3X3X3XqXuXuX9X3X3X:X:X4X#X&XOX&X4X4X4X4X&X#XOXOXOXOX+X:X4X3X3X2X2X2X3X3X3X3X2X,X&X;X:X",
",X2X4X3X3X5XqXuXuXyX3X4X:X;X4X4X&X&X&X&X4X4X&X&X&XOXOXOXOX&X4X3X4X3X2X3X3X3X3X3X3X3X,X:X:X:X",
"3X4X4X3X3X9XqXuXyX3X4X,X4X:X,X4X&X*X:X*X4X4X:X&X&X#XOXOXOX&X4X4X,X2X9X<X3X3X5X0X<X3X>X:X>X:X",
"5X3X4X,X5XqXyXyXyX3X4X4X:X:X,X4X,X2X:X&X4X4X4X&X&X#X#X4X#X#X4X3X4X3X3X3X3X3X3X3X3X<X2X>X;X:X"
};
