/* XPM */
static char *result[] = {
/* columns rows colors chars-per-pixel */
"46 46 245 2 ",
"   c #010001",
".  c #0A0403",
"X  c #01010B",
"o  c #0D0902",
"O  c #130904",
"+  c #020212",
"@  c #05041C",
"#  c #1C1814",
"$  c #140F0F",
"%  c #231D15",
"&  c #231206",
"*  c #292619",
"=  c #342C1A",
"-  c #060B2A",
";  c #171826",
":  c #050B37",
">  c #091638",
",  c #151C35",
"<  c #0F1227",
"1  c #0D213C",
"2  c #192739",
"3  c #393429",
"4  c #2D2E33",
"5  c #4C340F",
"6  c #4A3924",
"7  c #4C4537",
"8  c #554B3A",
"9  c #554B31",
"0  c #6F592C",
"q  c #6F5C03",
"w  c #091748",
"e  c #031757",
"r  c #20165E",
"t  c #162847",
"y  c #1B375B",
"u  c #122850",
"i  c #222748",
"p  c #273557",
"a  c #2F3546",
"s  c #281D63",
"d  c #0C246A",
"f  c #10356F",
"g  c #26366C",
"h  c #0B1B75",
"j  c #30486E",
"k  c #2D6771",
"l  c #595444",
"z  c #504E46",
"x  c #645D42",
"c  c #705D4C",
"v  c #6F6753",
"b  c #5B626A",
"n  c #797364",
"m  c #435867",
"M  c #B73200",
"N  c #DE3E00",
"B  c #B24F00",
"V  c #A5721C",
"C  c #886A2D",
"Z  c #AC752D",
"A  c #884E0F",
"S  c #CB4900",
"D  c #C85902",
"F  c #D24102",
"G  c #E44902",
"H  c #E65C02",
"J  c #DA6100",
"K  c #EA7500",
"L  c #847C6B",
"P  c #84725B",
"I  c #B88C02",
"U  c #DD8202",
"Y  c #CC9001",
"T  c #F09600",
"R  c #E99003",
"E  c #E6A902",
"W  c #FBA100",
"Q  c #E3B700",
"!  c #C48E3F",
"~  c #DCAB1D",
"^  c #FDD900",
"/  c #F7CF01",
"(  c #FBEB01",
")  c #A3885E",
"_  c #8B8568",
"`  c #95916E",
"'  c #8E8876",
"]  c #948B73",
"[  c #938E7A",
"{  c #9A9575",
"}  c #95917D",
"|  c #9B947D",
" . c #999577",
".. c #918D76",
"X. c #A39B7C",
"o. c #A39467",
"O. c #B5A67A",
"+. c #B9A96E",
"@. c #988B51",
"#. c #DCA442",
"$. c #C08E62",
"%. c #C6BF76",
"&. c #EB8975",
"*. c #14358A",
"=. c #253980",
"-. c #0F3EA6",
";. c #1C4382",
":. c #1C4993",
">. c #2A559B",
",. c #2B5098",
"<. c #34609F",
"1. c #1B55A6",
"2. c #2857A8",
"3. c #2D57B8",
"4. c #1F62BB",
"5. c #3665B7",
"6. c #2D65B6",
"7. c #566991",
"8. c #737C82",
"9. c #415CB1",
"0. c #4479B7",
"q. c #265CC5",
"w. c #2C5BD1",
"e. c #196EDC",
"r. c #3767CB",
"t. c #2666D6",
"y. c #2B75D5",
"u. c #3577D8",
"i. c #3575C6",
"p. c #2876E7",
"a. c #2F71EF",
"s. c #1A68E3",
"d. c #487BD9",
"f. c #5578CA",
"g. c #497AE7",
"h. c #4A73EF",
"j. c #728491",
"k. c #6F89A9",
"l. c #3B83DC",
"z. c #2B85F8",
"x. c #388AF7",
"c. c #3A92F8",
"v. c #3485EC",
"b. c #3AA3F8",
"n. c #5485DE",
"m. c #518CCD",
"M. c #6D98D7",
"N. c #468BE9",
"B. c #5688E2",
"V. c #5595EA",
"C. c #4484FB",
"Z. c #4A8BFD",
"A. c #4887F6",
"S. c #538DFC",
"D. c #548EF3",
"F. c #4A9DFD",
"G. c #4893FB",
"H. c #5C94FD",
"J. c #5D9BFE",
"K. c #5596F8",
"L. c #4894EE",
"P. c #6699ED",
"I. c #6A96F4",
"U. c #669AF5",
"Y. c #699AF6",
"T. c #6495FB",
"R. c #649AFB",
"E. c #6B9AFB",
"W. c #6995F7",
"Q. c #719DFC",
"!. c #6089F2",
"~. c #50A9F5",
"^. c #6BA1FF",
"/. c #63A5FE",
"(. c #74A6FD",
"). c #7AB8FE",
"_. c #6CA6E9",
"`. c #7CACD4",
"'. c #56C4FF",
"]. c #7AC7FD",
"[. c #70DAFF",
"{. c #969381",
"}. c #9B9582",
"|. c #9D9984",
" X c #9E9B8A",
".X c #929190",
"XX c #A39C85",
"oX c #A39E8B",
"OX c #A89D88",
"+X c #A49F90",
"@X c #ADA186",
"#X c #A6A18D",
"$X c #AAA48D",
"%X c #AEA98E",
"&X c #A9A685",
"*X c #B1A58B",
"=X c #B3AB8D",
"-X c #B6A988",
";X c #A6A291",
":X c #ABA594",
">X c #AEA996",
",X c #ACA699",
"<X c #AEA99A",
"1X c #B0A694",
"2X c #B2AB95",
"3X c #B2AC9B",
"4X c #BBAF9B",
"5X c #B5AA96",
"6X c #B6B09D",
"7X c #BBB29D",
"8X c #BBB296",
"9X c #BDB186",
"0X c #8D98A5",
"qX c #918EB1",
"wX c #B3AEA1",
"eX c #BCB3A2",
"rX c #BBBEA4",
"tX c #C2B288",
"yX c #C3B69D",
"uX c #C1B5A2",
"iX c #C4BBAB",
"pX c #C4BAA5",
"aX c #C9BFB1",
"sX c #C1978A",
"dX c #CFC09E",
"fX c #C4C1A2",
"gX c #8AACD6",
"hX c #A5BFDE",
"jX c #85ACF0",
"kX c #A5B6EE",
"lX c #8AD2F6",
"zX c #BCCBF8",
"xX c #ABCCE9",
"cX c #8DE1FF",
"vX c #B2E9FF",
"bX c #AEC3C7",
"nX c #C8D6F3",
"mX c #D5E3F5",
"MX c #CBF8FF",
"NX c #D6EBF7",
"BX c #EBF7FC",
"VX c #FEFFF4",
"CX c #FDFEFC",
"ZX c #F1FFFF",
"AX c #EFEDF4",
/* pixels */
":X;X#X#X#X;X;X;X#X:X#X&X:X:X%X:X%X%X&X;X:X:X>X<X>X>X<X<X<XwX<X<X<X>X<X<X<X<X,X;X;X;X;X X;X;X",
";X;X;X#X X X#X#X#X$X#X#X:X:X:X$X#X;X#X#X:X:X>X<X:X>X<X<X<X<X3X<X<X<X<X<X<X<X,X;X;X;X;X;X;X;X",
"#X;X;XoX X#X#X X#X|.oX#X;X:X:X:X%X:X#X:X>X>X:X>X:X:X:X<X3X<X<X<X<XwX<X<X<X<X<X,X,X,X;X,X;X;X",
";X;X;XoX X X#X#XXX|.|.oX&X|.&X#X&X$X$X>X>X>X:X>X<X;X;X<X<X<X<X<X<X<X,X<X<X<X<X<X,X<X<X,X,X<X",
",X;X;X;X;XoX X X|.|.| ` { ` { *X#XXX%X$X:X#X;X>X;X;X;X;X;X;X:X<X<X<X,X<X<X<X<X<X<X:XwX<X,X<X",
";X,X;X;X#X#XoX X#X|.|  .{ { ` _ { =X$X$X:X:X;X:X;X;X;X;X#X X X;X X;X;X:X;X<X<X<X<X<XwX<X<X<X",
";X;X;X;X X#X#X XoXXX| X.|.` 7   o x %X>X%X:X$X:X<X>X>X;X;X X{.{.} |.#X;X,X<XwX<XwXwXwX<X<X<X",
" X X X#X#X#X:X#XXX&X| { _ 3   : >   7 @X:X%X:X>X<X>X<X>X;X{.{...} {.|.0X;X<X<XwXwXwXwXwXwX<X",
";X X X#X;XoX;X#X#X&X&X` = X d u.n.2.+ 6 *X:X:X>X>X<X<X3X;X|.} {. X X X;X,X<X<X<X<XwXwX<X<X<X",
"|.{.{. XoXoXoX#XXX| &X7 + 6.Z.N.B.V.<.  x 6X$X%X>X%X3X<X;X X{.{. X X X;X,X<X<X<X,X,XwX<X<X<X",
"[ [ [ {.|.|.XXXX&XXXn   2.S.g.g.V.V.V.y o _ 8X=X2X%X3X%X>X X X X X X;X;X;X,X<X<X,X,X<XwXwXwX",
"} } } [ } }.|.}.| | = + g.D.g.g.D.N.K.>.  3 =X8XrX8X6X6X<X>X;X X;X;X,X;X<X<X<XwX,X<X<XwX<XwX",
"{.} [ [ |.|.}.XXXX] O - g.Z.C.A.A.N.D.2.  . o.fX8XpXeX7X6X<X%X;X;X;X%X,X,X,X<X<X<X,X<XwXwX3X",
"|.|.} [ |. XXX| $X_   + d.S.Z.h.x.N.D.2.    6 dX8XyXpXpXrX3X<X<X<X;X;X<X<X<X<X,X,X<X<X<X<X<X",
"|.|. X X|.XXXXX.*XP     <.H.C.Z.Z.G.G.;.      8 fX7X7XuX7X6XrX3X<X<X>X<X<X<X<X,X,X,X,X,X<X<X",
" X X&X#X&X#XXXX.X.*   . g S.S.S.h.r.6.1         x iXyXyXrXeXrX6X3X<X3XwXwXwX<X,X,X;X+X,X:X;X",
"#X#X#XoX$X%X&X-X6     X , g.R.!.5.g p ;     2 i   8 uX4XeXuXeX4X4X4X3X6X3X6X<X>X:X;X#X#X#X#X",
"$X&X$X&X$X&X%X8     - i f.T.T.I.P.P.P.f.p > ,.B.y . l eXuXuXuXuX7X7X4X<X2X3X2X>X>X;X+X;X:X#X",
"%X$X$X%X%X-Xl   w 5.g.W.E.E.E.Y.I.P.I.(.Y.n.r.6.u.y X 8 yXyXuXyX8X8X5X6X6X6X7X:X:X+X+X;X;X#X",
">X@X%X%X8Xn   d h.E.E.E.W.I.E.E.Y.I.I.I.I.I.W.B.u.i.t X c yXyX4X5X2X=X2X6X>X| |.:X$X:X;X:X;X",
"%X%X@X6X' . w h.T.R.(.E.R.T.W.E.R.I.I.E.Y.P.P.U.d.r.u.t   c tXtX5X=X=X2Xn * . 7 :X>X<X:X:X:X",
"=X%X%X%X3   w.R.H.R.h.h.E.R.R.R.R.R.E.E.W.I.U.U.d.4.L.f   & ) tX-X9X8Xl     X   v 4X;X;X:X:X",
"2X=X2X&X$ - g.H.H.E.s r E.E.T.Q.Q.I.Y.I.Y.E.R.U.B.q.l.:.  O C O.O.-X7   : 6.m.t X L wX;X#X:X",
"2X1X6X|   w S.H.H.T.; @ g.E.T.W.E.E.E.I.R.H.H.R.!.w.l.>.X . C %.O.7   f '.[.[.M.@ 3 :X<X:X$X",
"2X=X4XXX  > S.H.J.H.- : A.^.Q.Q.Q.Q.I.P.T.H.H.J.D.t.y.1.  . @.%.6 X ;.'.'.F.V.V.> $ | 6X4X3X",
"2X%X5XOXo : S.H.R.T.e h E.^.(.jXjXgX_./.I.R.S.K.g.t.v.1.  . V 5   =.].b.p.V.P.M.- O {.7X5X2X",
"%X%X1X*X* + n.J.T.H.h.a./.(.qX$.#.#.! .X`.R.J.D.u.y.p.*.  o o   w B.i.y.zXBXZXBXa . |.eX2X6X",
":X%X$X5Xv   =.].jXjXzXnXkXsXR / ^ ^ W N I k V.c.p.e.y.t       @ gXxXhXAXVXVXCXZXa   {.8X2X6X",
">X*X:X$X$X8 X 7.MXmXNXAX&.K ^ ( ( ( E N J q k p.p.4.y .     X 0XCXVXCXVXVXAXmX0X< . {.4X%X%X",
"5X:X:XOXoXOX3 X qXZXBXAXZ R ( ( ( E B D H D 5 :.0.,         8.CXZXVXVXmXm.i.5.m.t . ..3X$X$X",
",X;XOX$XXX#X:X3 + j.BXAXV E / ^ T M S K G M 0 b o   2 2     0XMXgXgXm.l.e.e.V.m.- # {.oX$XOX",
"+X,X:X:X;X;X<X<X3   j k.0 Y E T G S R U B 0 k.g t <.V.V.p   2 jXm.~.~.(.).].].u   v oXXXoXoX",
">X:X:X+X:X;X:X1X%Xl     O q D E R R U B 6 5.G.G.F.F.F.F.l.,   7.cXvXvXBXMXlXj   z |.| }.|.XX",
":X;X+X:X,X>X1X1X%X2Xn #     5 I E Y A z y.c.Z.S.G.G.x.x.z.:.. + j xXnXbXj.2   8 }.| | | }.}.",
";X,X>X3X,X:X:X>X%X%X3X#Xj.2   * j :.1.s.a.a.S.Z.c.c.x.p.p.q.+ .   < ;     . x | } [ } [ [ [ ",
">X,X>X<X,X,X1X1X%X>X:X=XrX.X$ e a.a.a.p.s.*.-.z.c.c.a.p.u.f   . # $ $ 3 7 L XX}.| | } [ ' ] ",
",X,X<X<X:X<X,X1X1X:X:X2X%X}.$ : P././.N.d @ + d p.z.z.y.y X 3 _ {  .| &X:X*XOX|.oX|.{.[ } [ ",
";X:X,X:X,X,X:X>X2X>X2X<X%X%Xl   y 5.>.>   & & X w 1.2.w   8 OX5X=X:X:X$XOXoXOX#XoX|.{.{.{.{.",
">X>X:X,X1X,X>X<X3X6X2X2X:X:X;Xz   X   o 0 @.) 9   X   . 8 X.OXOX2X1X%X$X;X:X;X#X+X+X X|.|.|.",
"1X>X,X:X,X1X2X3XeXeX3X>X:X:X<X;Xz # * 8 O.O.9XO.8 % * x X.&XOX:X>X:X>X>X,X;X:X;X:X;X+XoX X X",
",X<X>X>X1X2X3XwXeXiX3X:X>X>X,XoXXX_ ] @X@X*X1X*XX.] ] XXOX+X1X,X3X3X<X<X,X,X:X:X;X:X;XoXoXoX",
"5X5X>X:X>X3XwXeXiXpX2X:X,X,X,XOXoXXX+X1X*X1X1XOX@XX.XXOXOX+X5X5X<X3X:X:X:X<X:X:X:X<X;X+X;X+X",
"<X>X>X5X5X3XeXiXaXeX<X<X<X+X,XoX#X&X$X:X1X:X1X1XOXX.XXXXOX+X,XwX3X<X<X:X<X3X<X3X3X<X:X$X;X;X",
"5X2X2X5X3XwXeXiXaXwX1X<X:XoX,X:X$X$X$X$X1X1X1X,XXXXXoXOX$X+X+X<X<X,X<X<X<X<X<XwX3X<X>X,X;X:X",
"3X2X>X2X5XeXeXiXiX5X1X<X:X:X<X:X;X:X:X$X,X,X2X;XoXXXoX$X$X;X,X<X,X,X3X<X<X3XwX3X5X>X<X;X>X>X",
"3X>X>X2XwXeXuXiXuX3X1X1X:X:X<X:X>X,X>X:X5X5X:X;X$XoX$X#XoX;X<X<X,X3X3X3X3XwXwX<X<X<X5X,X;X;X"
};
