/* XPM */
static char *result[] = {
/* columns rows colors chars-per-pixel */
"46 46 237 2 ",
"   c #020101",
".  c #0A0402",
"X  c #05020B",
"o  c #0B0C0B",
"O  c #0E0A06",
"+  c #160A03",
"@  c #17130B",
"#  c #020313",
"$  c #070818",
"%  c #0A121F",
"&  c #161515",
"*  c #211706",
"=  c #2E130B",
"-  c #2A2519",
";  c #342919",
":  c #3C341D",
">  c #3E320F",
",  c #040926",
"<  c #121724",
"1  c #040B35",
"2  c #091634",
"3  c #141C37",
"4  c #0A1629",
"5  c #11243B",
"6  c #2B2822",
"7  c #373128",
"8  c #2D3035",
"9  c #41321B",
"0  c #433D33",
"q  c #463D2B",
"w  c #713000",
"e  c #3C4017",
"r  c #5D4402",
"t  c #7F4900",
"y  c #4D4228",
"u  c #4B473B",
"i  c #584C3A",
"p  c #515135",
"a  c #67583C",
"s  c #64522E",
"d  c #0F1746",
"f  c #0D2149",
"g  c #142847",
"h  c #1C3559",
"j  c #122657",
"k  c #222E48",
"l  c #27365A",
"z  c #2B3548",
"x  c #132D6D",
"c  c #2A3767",
"v  c #050E78",
"b  c #2C445B",
"n  c #1C4379",
"m  c #344872",
"M  c #5A5748",
"N  c #635B47",
"B  c #655E55",
"V  c #746144",
"C  c #686559",
"Z  c #766C52",
"A  c #43557A",
"S  c #7A7466",
"D  c #767A71",
"F  c #943700",
"G  c #C43900",
"H  c #BC4B03",
"J  c #995A0C",
"K  c #C54500",
"L  c #EB4F01",
"P  c #DB6601",
"I  c #CE7501",
"U  c #E36701",
"Y  c #FC7101",
"T  c #D36D20",
"R  c #827B5C",
"E  c #817D66",
"W  c #A2796F",
"Q  c #AF8F16",
"!  c #B99138",
"~  c #D98700",
"^  c #D69A01",
"/  c #EF9208",
"(  c #EDAA02",
")  c #F9BB01",
"_  c #FFAD00",
"`  c #C7AE1C",
"'  c #FFCB01",
"]  c #F9D901",
"[  c #EBDD00",
"{  c #ECE302",
"}  c #F9E300",
"|  c #8E8258",
" . c #B29258",
".. c #8A856C",
"X. c #95896B",
"o. c #989169",
"O. c #8B8476",
"+. c #8F8A79",
"@. c #928E7C",
"#. c #968A77",
"$. c #95927E",
"%. c #9D957B",
"&. c #9D9679",
"*. c #A59B7D",
"=. c #AC9D7F",
"-. c #A99A73",
";. c #A8916E",
":. c #ABA47C",
">. c #B3A278",
",. c #D1BA52",
"<. c #C18E4F",
"1. c #0C3D8A",
"2. c #213391",
"3. c #294C88",
"4. c #334F88",
"5. c #2D508F",
"6. c #1555BF",
"7. c #2D51A3",
"8. c #3357AA",
"9. c #0D67BE",
"0. c #296DB4",
"q. c #235C94",
"w. c #405384",
"e. c #456794",
"r. c #4E74B4",
"t. c #285CC9",
"y. c #1868D6",
"u. c #2868C9",
"i. c #3369C8",
"p. c #3876CA",
"a. c #2B6AD3",
"s. c #3A78D8",
"d. c #3B79E7",
"f. c #3D7BF7",
"g. c #2C71E7",
"h. c #0853D7",
"j. c #487AD8",
"k. c #4974CA",
"l. c #447CF6",
"z. c #437CE9",
"x. c #5485AD",
"c. c #7095B2",
"v. c #3E82D6",
"b. c #3D85EF",
"n. c #4B83D7",
"m. c #588ECF",
"M. c #6B97D4",
"N. c #6B9CC0",
"B. c #67A4DA",
"V. c #4688EB",
"C. c #538CEC",
"Z. c #5B89E7",
"A. c #4993EF",
"S. c #5792EB",
"D. c #4482F3",
"F. c #4988F7",
"G. c #548EF3",
"H. c #518EFB",
"J. c #4C93FE",
"K. c #4796F6",
"L. c #5495FC",
"P. c #5C94FE",
"I. c #5B9BFC",
"U. c #5796F4",
"Y. c #6694EA",
"T. c #6C9BF5",
"R. c #6396FC",
"E. c #649AFC",
"W. c #6B9BFC",
"Q. c #6897F6",
"!. c #729FFD",
"~. c #7296F7",
"^. c #5CA1FE",
"/. c #5BAAFD",
"(. c #51ADFA",
"). c #76A8E9",
"_. c #63A4FE",
"`. c #6BA4FB",
"'. c #74A9F9",
"]. c #76B9EF",
"[. c #969281",
"{. c #9A9684",
"}. c #9E9986",
"|. c #9E9A89",
" X c #9B9689",
".X c #948D82",
"XX c #A49D84",
"oX c #A39D8C",
"OX c #AC9E8A",
"+X c #A99C84",
"@X c #A49E91",
"#X c #A89F91",
"$X c #B29D88",
"%X c #A7A186",
"&X c #ABA384",
"*X c #A5A18D",
"=X c #ABA38C",
"-X c #AEA98D",
";X c #AFA887",
":X c #B2A584",
">X c #B4AB8C",
",X c #B2A987",
"<X c #A6A291",
"1X c #ABA594",
"2X c #ADA995",
"3X c #ACA698",
"4X c #AEA99A",
"5X c #B0A795",
"6X c #B2AA95",
"7X c #B2AC9B",
"8X c #B6AC9B",
"9X c #B8B29A",
"0X c #B8B285",
"qX c #B5AFA0",
"wX c #B6B1A1",
"eX c #BDB4A3",
"rX c #BFB8A6",
"tX c #8D98BD",
"yX c #C0B998",
"uX c #C3BBA7",
"iX c #C0C08B",
"pX c #CAC3AE",
"aX c #85BCFA",
"sX c #97BCF1",
"dX c #8FA6CF",
"fX c #87C5FD",
"gX c #9ACCFE",
"hX c #93D3FE",
"jX c #9AD5FD",
"kX c #8ED4FF",
"lX c #A9D8FF",
"zX c #B1D9FB",
"xX c #ABD0EC",
"cX c #A9E3FF",
"vX c #B3E3FF",
"bX c #FFFFF1",
"nX c #D0D9C2",
/* pixels */
"1X<X<X<X<X<X<X<X2X<X<X1X4X2X2X<X3X2X<X<X2X1X2X4X4X4X2X2X2X6X9X-X1X4X3X2X2X4X2X<X<X<X*X|.@X@X",
"*X<X<X<X<XoX<X<X<X<X<X4X3X2X2X<X2X<X<X<X2X2X2X2X-X-X2X<X2X4X2X-X-X7X1X<X4X4X2X<X*X*X<X<X<X<X",
"<X<X<XoXoX*XoX<X<X<X|.2X2X2X3X3X<X1X2X<X2X4X2X2X3X<X2X2X2X4X2X4X2X7X4X-X4X7X2X2X4X<X2X<X<X<X",
"1X<X<XoX<X<X@XoX@XoX|.oX@X<X2X<X1X2X2X2X4X4X<X*X2X1X*X2X-X-X*X2X4X4X4X4X7X4X4X4X4X2X4X4X4X4X",
"3X<X@X4X@X@X<XoX|.@X<X@X X X|.|.@X1X3X<X1X3X<X<X*X*XXX&.%X-X-X*X2X2X2X1X2X3X4X4X4X<XwX4X4X4X",
"3X@X3X3XoX@X<X<X@X|.|. XO.[.@X@X<X<X<X<X<X1X2X*X%X|.-X%X$...o.*X%X%XoX*X-X4X3X3X4X4XwX4X4XwX",
"<X3X<X<X@X<X<X<X1X1X{.@.{.*X#X1X<X<X3X2X4X2X-X2X=X1X7X}.-   O p &.*.}.|.<X1X7X4X4X4XwX4X4X4X",
"|.<X@X<X*X<X<X@X1XoX|.1X3X3X3X3X3X<X3X4X7X2X*X2X2X;X%Xu % f %   6 o.%X*X2X4X4XwXwX4X4XwX4X4X",
"oX|.oX@X1X1X<X3X@X@X<X4X4X7X4XqX4X4X4X4X6X3X=X1X-X%X7 , n.A.u.j   - o.;X1X3X2X4X4X4X4XqX3X4X",
"|. X X|.@X<X<X3X<X@X<X4X4X4X4X7X4X4X4X4X3X5X<X=X;XM   4.L.K.F.b.3.  p +X;X1X7X4X@X3X4X4X3X3X",
"@.@.[. X|.|.|.<XoXoX@X3X4X4XqX7X1X2X1X2X4X=X;X=X&.o % n.U.V.d.V.K.5.. V %X<X2X7X<X@X4X4X4X4X",
"$.[.@.@. X|.<X1X@X@X@X3X1X1X4X8X4X<X1X1X6X6X5X=Xp   g S.U.L.d.d.U.n.# ; ;.=X1X2X4X3X4X4X4XqX",
"|.|.@.@. X<X|.*XoX|.oX<XoXoX<X<X2X<X2X<X1X5X5X+X;   c G.A.H.d.l.C.C., * o.-X2X2X4X4X4X4X4XqX",
"|.|. X@.oX*X|. X XoXoX X{.<X<X*X|.<X1X1X=X=X6X$X@ . c G.G.F.f.f.C.C.2 @ &.-X2X<X<X3X4X4X4X4X",
"*X*X|.oXoX@X<X*XoX X#.@.|.oX<X<XXX*X*X-X&X+X6XX.    m G.G.H.F.l.D.Z.4 * o.-X2X2X<X4X4X4X3X3X",
"<X|.*X2X<X<X<X<XXXXX$.{.<X|.oX*XoXXXXX*X&X+X>.7     5.F.F.F.l.l.H.j.# @ -.;X*X<X4X<X@X@X3X1X",
"<X=XoX<X2X*XoX2XoXXX}.|.oXoXoXOXoXXX=XXX*.:Xi       3.b.D.D.F.D.H.r.X @  .;X&X2X1X*X|.<X<X*X",
"5X1X<X2X2X2X4X[...&XXXoX#X#X<X1X=X%X+X*.+Xi       . 8 j.b.l.F.H.F.c     s ,X*.%X*X=X*X<X<X<X",
"6X5X1X7X9X7XC @   p *X|.oXOX$X=X=X;X%X=.i   3 &     % 4.7.j.Z.Q.Z.3     . V >.+X*XoXoX*X2X<X",
"6X6X3X3X7XM   # %   M XXXX=X=X=X=.*.:.N   j Y.k.c l r.Y.Y.Y.Y.T.`.r.k $     a =XXXoXoX*X<X*X",
"6X-X1X9XD   < N.B.b   7 oX*X=X>X%X:.M   d n.Q.W.W.W.!.`.W.T.T.T.Y.T.I.s.7.2   a $XXX=X*X1X1X",
"6X3X8X7X6   c.cXaXfXb   B 3XXX&X;XZ . 2 j.Q.Y.~.Q.W.~.`.W.!.!.~.Q.Q.E.^._.j.g . Z 1X*X*X-X2X",
"6X6XeX@X  < xXcXM.M.].5 o O.=X&X#.o $ k.R.U.W.W.W.E.W.W.W.W.`.W.~.Q.W._.I.^.V.j O E 3X=X*X-X",
"7X7XuX.X  z zXzXgX0.].x.  0 >X0X6   l S.S.E.W.W.W.W.Q.W.W.W.W.W.R.Q.P.L.I.I.^.p.X & XX6X-X*X",
"9X6XrXO.  8 zXlXzX).n.x.  @ 0X..    4.S.S.R.P.W.!.W.R.W.W.W.W.R.E.`.7.v Z.P.I.G.d O X.9X6X9X",
"8X5XwXW   % xXzXgXlXB.m.8   o.p     n s.G.R.R.R.R.W.W.W.W.!.!.E.E.Q.3 1 l.I.L.S.f @ %.6X>X6X",
"6X2X9X$.. X dXvXlXjXjXm.M.< - @     x t.z.G.P.P.R.W.W.W.W.`.!.E.!.Z.$ d D.L.I.G.1 : *X-X6X6X",
"6X1X>XXX&   x.jXjXgXzX'.kXA       X 8.g.u.d.H.P.R.R.R.).).).'.`.'.Z., 2.J.L._.8.  S 7X=X>X2X",
"1X>X5X=X6   e.hXaXgXgXfXcXw.        3.b.u.a.D.J.H.P.tX*. . .W dXaXT.t.z.G.L.k.$ p 1X*XoX3X1X",
"1X*X=X8XC   < ].aXaXgXhXjX4.        2 0.a.a.g.z.M.#.T / ' ' _ / ;.).R.G.U.k., 9 oXOX=X<X<X1X",
"5X=X=X*X2X0   l ].aXkXkX].m     g <   3 p.y.u.e.! Y L P ] { [ ] ^ u l h h # 9 -.+XOX=XOX@XOX",
"1X5X2X=X<X=X7   j m.m.0.n <   l U.m.z   g p.q.q J Y L G / } [ ] ' F +     O | >.:.*XoXoXoXoX",
"5X=X*X=X=X6X=XN .   $ X     4 s.J.A.S.m O 5 x.p w I P P G ( } ] ) H =     9 ;.-.:XOXoXoXoXXX",
"5X=X=X5X=X5X8XyXR -         q.V.s.V.K./.r.4 1.0.e F I ~ H P ] } ) I ,.N   ; >.>.+XXXXXXX.X X",
"5X1X5X5X5X5X5X>X>X&XR q   . 3.s.i.s.K./.(.v.6.h.y.8 t ^ ^ ( ( ( ( ,.bXbXo - :X+XXX}.$.@.@.+.",
"5X1X4X6X5X5X5X>X:X:XyXpXM   f y.g.g.f.l.(.(.K.f.g.y.1 r Q ` Q J <.9XnXD   S 3XoXoX}.@.@..X+.",
"1X5X5X4X5X1X5X5X>X;X;X9X*X- X j a.a.3.d f q.t.F.b.K.x     O .   . O o   C 1X1X#XoXoX[..X.X@.",
"1X1X1X3X5X#X1X6X5X6X-X;X0XE   $ 5 4         1 1.s.v.3 . o . & & - 7 0 O.9X<X#X1X<XoX{.{.{.[.",
"5X1X1X5X5X1X5X6X6X6X9X-X9X&.@       y o.S y +   # X : ..{.@. X@X@X3XqX3X@X<X1X3X1X@X@X|.|. X",
"5X5X5X5X4X5X1X6X9XeX6X6X-X>XN & - a :.:.>.:.Z q q a o.%X>X1X*X1X3X3X@X3X3X3X5X3X1X1X@X@XoXoX",
"5X6X5X1X3X5X6XwXuXuX7X#X5X$XOX%.#.*.=.%X&X,X:X*.%.&.}.XXOX5X4X1X4X4X1X<X3X5X3X3X1X3X1X@X|.oX",
"7X6X5X3X5X7X9XuXuXeX5X1X5X1XXX=X=X*X&X=X=X;X;X=X*XoXXXXX#X1X4X5X7X7X4X1X3X4X4X3X1X1X1X<X*X<X",
"5X6X5X6X6X6XrXuXuXuX3X7X5X1X*X*X;X=X=X*X6X1X=XoX%X*XoXXX<X1X#X6X2X7X7X4X3X7X7X4X7X4X1X<X<X<X",
"5X7X7X7X8X9XeXuXpXuX5X#X<X<X1X>X*X1X=X=X6X6X;X*X}.}.oXXX<X#X1X3X3X4X1X7X7X7XqXqXqX3X3X1X<X1X",
"6X7X5X6X8XeXeXeXuX6X1X6X1X1X5X5X-X<X2X1X2X2X2X=X%X%X<X*XoX*X4X4X3X4X7X7X4X4XwXqX7X1X1X4X2X1X",
"8X6X5X7X8XwXeXrXuX8X5X6X1X1X2X2X1X-X2X1X2X2X1X=X*X*X*X*X*X<X4X4X3X7XqX7X7XqXqXqX4X4X4X4X1X<X"
};
