/* XPM */
static char *result[] = {
/* columns rows colors chars-per-pixel */
"46 46 239 2 ",
"   c #010101",
".  c #01010B",
"X  c #070708",
"o  c #160804",
"O  c #1F1A0C",
"+  c #010114",
"@  c #01021B",
"#  c #151612",
"$  c #1B1915",
"%  c #0F1419",
"&  c #2B1807",
"*  c #34160B",
"=  c #3B2604",
"-  c #25241A",
";  c #000123",
":  c #03082B",
">  c #020637",
",  c #101232",
"<  c #1D2229",
"1  c #27282B",
"2  c #37352B",
"3  c #3C3E3E",
"4  c #2F2F38",
"5  c #2E1C27",
"6  c #4B2C14",
"7  c #693703",
"8  c #712800",
"9  c #423D35",
"0  c #453A27",
"q  c #774C06",
"w  c #6B4C1C",
"e  c #736407",
"r  c #48442A",
"t  c #574725",
"y  c #48473A",
"u  c #6D5D3D",
"i  c #76662A",
"p  c #020446",
"a  c #091346",
"s  c #101847",
"d  c #040B56",
"f  c #091A5C",
"g  c #11255A",
"h  c #38394C",
"j  c #050E66",
"k  c #091567",
"l  c #081478",
"z  c #12136E",
"x  c #162666",
"c  c #1A2C77",
"v  c #123074",
"b  c #313C72",
"n  c #443E6E",
"m  c #473044",
"M  c #34477C",
"N  c #544E43",
"B  c #595549",
"V  c #5B5853",
"C  c #4C4D4D",
"Z  c #605B4A",
"A  c #625C51",
"S  c #58645C",
"D  c #676658",
"F  c #78745A",
"G  c #766D4F",
"H  c #4D5767",
"J  c #757463",
"K  c #6C6962",
"L  c #895602",
"P  c #905301",
"I  c #B55900",
"U  c #B16F04",
"Y  c #98650D",
"T  c #C36400",
"R  c #CA7A00",
"E  c #DC7E01",
"W  c #DF6D00",
"Q  c #E27303",
"!  c #807B6E",
"~  c #8D7A57",
"^  c #7E816C",
"/  c #AF8F0D",
"(  c #AA9C25",
")  c #CA8700",
"_  c #D48701",
"`  c #D99800",
"'  c #CC9300",
"]  c #EB8A01",
"[  c #EB9303",
"{  c #EE9609",
"}  c #D2A100",
"|  c #F9A901",
" . c #F2BD01",
".. c #FCB800",
"X. c #EEB301",
"o. c #E9B92B",
"O. c #EDC801",
"+. c #F7C901",
"@. c #FCD904",
"#. c #FFD41C",
"$. c #FFE10C",
"%. c #FFD62A",
"&. c #8E8B7A",
"*. c #888777",
"=. c #938E7A",
"-. c #95917C",
";. c #9A957C",
":. c #9E9A7C",
">. c #969476",
",. c #939069",
"<. c #A49C7C",
"1. c #B19F79",
"2. c #A6A27D",
"3. c #B4A877",
"4. c #C4B37C",
"5. c #D1BF75",
"6. c #DFCC75",
"7. c #F1DC77",
"8. c #291C81",
"9. c #092288",
"0. c #152995",
"q. c #263898",
"w. c #253285",
"e. c #1634B3",
"r. c #1737A4",
"t. c #1A1A96",
"y. c #274898",
"u. c #314D8F",
"i. c #1643AB",
"p. c #284AAB",
"a. c #324DA3",
"s. c #3954A7",
"d. c #2C49B4",
"f. c #2D52B8",
"g. c #3C69BA",
"h. c #4E6589",
"j. c #405FB9",
"k. c #506FAC",
"l. c #2138CA",
"z. c #1C52C6",
"x. c #2B59C7",
"c. c #3658C8",
"v. c #295AD6",
"b. c #3259D7",
"n. c #234CC5",
"m. c #3765CA",
"M. c #3B68D6",
"N. c #346CD7",
"B. c #335DE3",
"V. c #3565E7",
"C. c #3A76E6",
"Z. c #367CEA",
"A. c #4A66D6",
"S. c #537CD6",
"D. c #4474D1",
"F. c #477AE8",
"G. c #497DF8",
"H. c #475AC8",
"J. c #6B8BB4",
"K. c #368EED",
"L. c #5A88D9",
"P. c #4389DF",
"I. c #698AC7",
"U. c #7294CD",
"Y. c #7CA8CC",
"T. c #4A88E9",
"R. c #528DEB",
"E. c #5C8EED",
"W. c #5486EA",
"Q. c #5493EC",
"!. c #5D96EE",
"~. c #5A9BEC",
"^. c #5594E6",
"/. c #4988F8",
"(. c #5B8EF4",
"). c #548AF6",
"_. c #4B93F6",
"`. c #5B93F3",
"'. c #5C9AF4",
"]. c #5D95FB",
"[. c #5C99FB",
"{. c #5696F7",
"}. c #6295EC",
"|. c #669CED",
" X c #6296F5",
".X c #649BF5",
"XX c #6A9DF3",
"oX c #659BFA",
"OX c #679BF9",
"+X c #6A92E8",
"@X c #5FA1F9",
"#X c #6BA1F6",
"$X c #67A1FA",
"%X c #9A9582",
"&X c #9D9984",
"*X c #9E9B8A",
"=X c #979281",
"-X c #8F8C80",
";X c #A39D85",
":X c #A29D8C",
">X c #A89F81",
",X c #A49F90",
"<X c #A4A283",
"1X c #ABA386",
"2X c #A5A18D",
"3X c #AAA48D",
"4X c #AEA98E",
"5X c #AAA985",
"6X c #B3A98C",
"7X c #B5AA86",
"8X c #BAB287",
"9X c #A6A292",
"0X c #ABA594",
"qX c #ADA995",
"wX c #ACA798",
"eX c #AEA99A",
"rX c #A5A698",
"tX c #B1AA95",
"yX c #B2AC9B",
"uX c #B0A793",
"iX c #B8B499",
"pX c #AFB096",
"aX c #B3AEA1",
"sX c #B8AFA0",
"dX c #B4B0A2",
"fX c #BBB4A4",
"gX c #B9B8AA",
"hX c #B4B5AC",
"jX c #C3BCAA",
"kX c #C5BCB0",
"lX c #C5BA8D",
"zX c #C5C0B2",
"xX c #DADCAC",
"cX c #86A9ED",
"vX c #9EC7D3",
"bX c #93CAFB",
"nX c #AFDDF5",
"mX c #A9E0FD",
"MX c #CDD4CA",
/* pixels */
"0X2X9X9X2X2X9X9X3XqX2X5XrXqXwX0X0X0X<X3X1X7X3.8X7X6X4X0XuXtXqXqX9XwX0XwXwXwXwX9X9X2X,X:X2X*X",
"9X2X9X9X:X:X:X2XrXrX2XrXwXeXwX2X3X3X2X5X4X2.8XlX6X6X6X4XtXyXqX9XwXwXeXwXwX9X9X9X:X2X2X,X2X9X",
",X9X,X:X:X:X2X9X2X*X2X9X9XqXqX3X3X0X3X:.4X8Xt r 6X6X6XuXyXpXqXqXyXyXeX0XaXyXeXrXwXwX9X9X9X9X",
"0X0X9X*X*X:X2X*X*X%X&X&X&X9X0X3X5XqX<X<XiXJ $   V yX>X0XyXuXqXyXyXyXeXeXeXaXaXwXeXwXeXeXeXwX",
"wX9XrX9XrX9X*X%X*X*X&X=X-.-.&X<X2X;.2.lXB   j.h.  B <X:.1X2X1X3XuXeX0XeX9XwXwXwXrXeXyXeXeXeX",
"wXwX9XrX,X9X*X*X*X&X&X;.-.-.-.*X>.:.8XB   @ g.g..   y 2.:.<.;X:X;X,X9X0X0X9X0XwXwXwXeXdXeXdX",
"2X9XrX*X*X9XrX:X:X*X&X-.&X&X>.>.5X2.9     ; p.u.+     y 2.2.:.>.=.-.&X:X9XwXeXyXeXeXeXeXeXeX",
"&X*X,X*X:X:X9X9X9X9X%X;.<X&X<X2.F -   , X > S.S., . :   - D ,.<.-.%X;X:X9XeXyXeXyXdXdXdXeXeX",
"*X2X*X*X:X,X0X9X,X3X:X;X;.<X*.2   . c D.@ d L.L.s ; f.v     O D %X*X%X9XwXtXeXeXeXwXaXaXeXeX",
"&X*X&X=X:X,X,X:X:X:X;X%X5XJ #   @ f F.W., x ^.L.x > F.).w.:   X B 0X*X*X,XwXwXeXrXwXwXeXwXeX",
"&.-.-.-.&X:X*X;X2X-.:.1XD X   v 9.c.{.E.z q.~.L.q.j R.[.G.e.d +   V ,X*X,XwXwXeXwX0XeXeXeXeX",
"-.-.-.-.=X*X&X&X<.;.6XD     f v.B.W.(.oXt.d.~.!.p.e.$X.XW./.M.p   . S aX9X9XwXeXeXwXeXeXaXyX",
"&X=X-.-.=X&X;X:.;.<XA     ; r.G.).(.(..XF.c.E.}.x.A.$X X`.(.).r.:     D aXrX0XeXeXeXaXeXdXaX",
"&X&X%X=X&X2X;X2X&X9       > n.). X X`..X}.F.T.(.F.E.OXoXoX].F.v.z @     V rX9X:XwXwXeXaXdXaX",
"*X&X&X&X&X&X1X0X2   & t - p b.).].OXOXoX!.E.G.F.).XXoXoX[.].F.B.j * q & . V rXrX,XrXwXeXeXwX",
"2X*X:X:X;X;XiXB   w o.#.U > x.].`.$X$X.X X.XW.G. XXXOX].].]./.i.% I | [ 6 . D yX,XrXwX,X9X9X",
"9X3XrXqX0XyXJ   w %.$.@...6 x.oX!.$X$XOXXXXX X X.XXX.X X[.`._.w.8 X. .....e % V ,X:X*X*X,X2X",
"wXwX9XqXqXyXK X ( @.@.+...P j.[.'.[..X#XXXXXXX#XXXOXoX X`.{./.n )  . .+...{ 6 1 9X*X*X:X9X:X",
"9XqXwX0XpX3XMXH & /  .O.| P b /..X.X.X#XXXXXXXXXXX.X.X XR.T.K.H _ _ E R 7 * u ;X:X*X,X9X0X9X",
"0XwXpXqXqX3XzX3 = P ` ..{ U h C.`..XOX$X.X.X.XXXXXoX@X}.W.T.K.m T Q W T =   r 1X,X9X9XrXeX0X",
"wX0X0X0X0XqXV   ( O.} ] ] U 5 n./.(.(. XXXXX}.XX.X.X~.T.C.P.r.6 ) R R E ) ( O 9 eX9X9X9X9XwX",
"wXqX0XwXwXdXK   e O.} R _ L X d V.F.(.(.(.+XE. X}.E.R.T.C.z.p X L ) _ [ | Y X D yX0XeXrX,X9X",
"eXyXeXeXqXqXhXS   L ' ) q o   @ l B.G.].].].]. X{.).T.C.v.j     o L ) ) 7   D iX0XeXeXwXwXrX",
"eXyXyXyXeX0X2XgX3   7 =     . : z q.d.d.a.a.a.a.a.p.p.y.k d :     X * o   y uXuXyXeXwXeXeXwX",
"eXyXtXwXeX0X1X0XgXC         , A.8.p k g x M M b M x , s p c D.g         Z 6X1X9XwXeXwXdXaXeX",
"eXeX0X9X0XyX0X%X6XfXD #   < U.u.d q.q.j.L.|.L.|.#XL.j.w.x d u.I.1     B 6X1X3X0XwXeXdXdXaXaX",
"eXeXeX9X0X0X3X:X;X;XtX>.F gX4 @ p.M.m.F.~.~.}.|.^.R.T.f.c.y.+ h 3.G ~ 1.1X4X0XqXwXwXhXeXeXeX",
"0X0XeX9X9X0X:X3X2X1X2.2.xXy   : r.p.M.R.'.!.E.}.^.R.P.T.m.y.X   i 7.5.3.7X6XqX0XwXeXeXeXeXwX",
"eXeX0X0X2X9X0X2X9XqX5X5Xy     : 9.m.'.Q.@X!.E.E.~._.Q.^.D.x       i 6.4.7XtXtXeXwXwXwXwXwXwX",
"0X0X0X2X:X:X9X9X3X0X4X<X      f f.).`._.].'.S.E.|.~.Q.T.T.f.s       t 4.7X>XuX0X,X,X,X,X,X,X",
"0X0X0X9X:X:X2X2X3X<XiX^     f C.R.R.R.@X[.[.+XI.P.^.~.P.T.m.g.,   X   0 7X6XuX,X,X,X,X,X,X,X",
"0X0X0X:X9X9X:X2X<X3XpX1     c /._.T._.[.oXH.vXY.M.T.Q./.Z.V.M.a         0 yX0X,XaXrX,X,X,X,X",
"0X0X9X9X,X,XwXwXeXeX9       . x v././._.A.8.nXnXD.F./.G.C.n.a             Z yX2X2X9X,X*X*X*X",
"0X9X3X9XuXuXwXyXjX-X            : i.v.N.0.t.nXbXc.l.V.p.g +                 &.qX:X:X*X*X%X%X",
"0X0XuXeXsXeXeXeXgX! X               @ : > l bX^.0.z : .                   X -.uX%X;.=.=X=.=.",
"0X0XyXyXyXeXyXsXeX,XN                     ; cXI.> X     X                 N qX0X2X&X=.=.&.=.",
"0XwXsXaX,XuXyXuX0X0XdXB                     I.U..   X                   N 3X9X9X,X*X=X=X=X=.",
",X0XwXuXwX,XeX,X0X0X0XtXA $                 k.I.                  o 2 J yX9X9X0X,X:X*X%X%X=X",
"uX,XuXwXwX0X0XuXtX0X0XuX6X:X=.D B #     X   h.J.            - D &.=XyXyX0X9X9X9X,X,X:X*X*X&X",
"yXeXyX,XwXeXuXeXiXyXuXuX:X3XtXiXiX3X2   X   h.U.  X     - D 4XiXyXyX0X9X0X0XwX0X0X,X:X,X:X,X",
"tXeXeXeXeXeXyXsXkXsX9XuX0X4X2X3X>X>X;Xy     H Y.    $ D :XuX3X0XuX0X0XwX0XeX0X0XwXuX9X:X:X:X",
"yXyXuX0X0XeXsXfXkXsX0XqXtX0X3X3X:X<.<.1XB   H J.  2 &X0X>X:X3X0XeXeXwXuXeXtX0XuX0XeX0X0X0X0X",
"uXtXuXyXtXyXfXjXzXiXeX0X9X3X0X3X,X>X<X1XiXF # % 3 tX3X;X;X0X1X0XtXtXuXyXeXyXyXyXyXeXwX0X0X0X",
"yXeXtXyXyXfXsXjXkXyX0XuX,X,X1X0X1X4X1X<.1XjX2 2 qX;X;X;X>X,X0XuXwXuXuXeXeXyXyXyXyXtX0X0X9X0X",
"yXyXtXyXyXfXfXfXfXuX3X0X0X3X0XuX3X2X2X1X4X6X3XfX;X&X;X;X:X1X0XuX0XeXyXwXeXyXyXyXeXeXwX0X0XwX",
"yXtXtXtXyXfXfXfXfXyXuX0X3X0X0X4X3X3X1X3X1X6X;X&.:X;X2X;X>X,X,X0XuXyXsXyXyXyXyXyXeXeX0X0X0X9X"
};
