/* XPM */
static char *result[] = {
/* columns rows colors chars-per-pixel */
"46 46 234 2 ",
"   c #010101",
".  c #0B0101",
"X  c #02040C",
"o  c #090908",
"O  c #150B03",
"+  c #1B0D01",
"@  c #150107",
"#  c #19160A",
"$  c #010113",
"%  c #01031B",
"&  c #060B1C",
"*  c #0B111D",
"=  c #191716",
"-  c #250705",
";  c #221A17",
":  c #321805",
">  c #352807",
",  c #27251A",
"<  c #393118",
"1  c #010224",
"2  c #020826",
"3  c #00043A",
"4  c #020938",
"5  c #051639",
"6  c #121E39",
"7  c #110D30",
"8  c #2C2B27",
"9  c #2D2F39",
"0  c #393A3A",
"q  c #32362F",
"w  c #421B08",
"e  c #4B320D",
"r  c #6F3300",
"t  c #443E33",
"y  c #4A3323",
"u  c #643834",
"i  c #4D470E",
"p  c #764F07",
"a  c #574836",
"s  c #575239",
"d  c #645136",
"f  c #74643F",
"g  c #00004B",
"h  c #010744",
"j  c #071749",
"k  c #121C4B",
"l  c #041B57",
"z  c #14264B",
"x  c #26374E",
"c  c #1B356B",
"v  c #133671",
"b  c #4B2C5B",
"n  c #264B63",
"m  c #484745",
"M  c #58564A",
"N  c #5A5752",
"B  c #4A4C4E",
"V  c #625D57",
"C  c #686658",
"Z  c #726C5B",
"A  c #7A765A",
"S  c #726A4A",
"D  c #787464",
"F  c #696D6A",
"G  c #4B596C",
"H  c #833E05",
"J  c #8A5406",
"K  c #8E5107",
"L  c #A85E01",
"P  c #9E6802",
"I  c #9D791D",
"U  c #827204",
"Y  c #A86E06",
"T  c #BC7801",
"R  c #A07200",
"E  c #855E23",
"W  c #C25F01",
"Q  c #C77600",
"!  c #D77903",
"~  c #867D5A",
"^  c #827A63",
"/  c #AF8A08",
"(  c #968C3E",
")  c #A59336",
"_  c #BEA32A",
"`  c #CA8901",
"'  c #D78900",
"]  c #CD9401",
"[  c #DD9400",
"{  c #D79901",
"}  c #E18801",
"|  c #E69900",
" . c #F49E01",
".. c #F9A701",
"X. c #E8B704",
"o. c #F9B700",
"O. c #F1B509",
"+. c #ECC400",
"@. c #F4CE00",
"#. c #FCD703",
"$. c #F2D80D",
"%. c #979757",
"&. c #908C47",
"*. c #A09555",
"=. c #8C8463",
"-. c #988F6D",
";. c #969968",
":. c #8C8879",
">. c #928E7C",
",. c #948C72",
"<. c #95917C",
"1. c #9A947C",
"2. c #9D9A7C",
"3. c #969376",
"4. c #A29C7C",
"5. c #AA9E7E",
"6. c #A39976",
"7. c #9FA173",
"8. c #A9A57A",
"9. c #B1AE76",
"0. c #C2BD7D",
"q. c #CCCD57",
"w. c #C3C54D",
"e. c #DCDA7C",
"r. c #D8D475",
"t. c #293B8F",
"y. c #1D3EA1",
"u. c #1C398F",
"i. c #134B8A",
"p. c #2A4797",
"a. c #2C589C",
"s. c #284887",
"d. c #1953B3",
"f. c #3158B1",
"g. c #2561BA",
"h. c #405482",
"j. c #4F6FAD",
"k. c #1956CA",
"l. c #115DD3",
"z. c #2758C8",
"x. c #086ACF",
"c. c #3B6BCB",
"v. c #2C69D4",
"b. c #376ED5",
"n. c #1567EB",
"m. c #1175EE",
"M. c #376CE6",
"N. c #3B7EE6",
"B. c #2B78F5",
"V. c #3275F3",
"C. c #425EC8",
"Z. c #466DD9",
"A. c #4D6FC5",
"S. c #4C77E7",
"D. c #447EF8",
"F. c #597DF0",
"G. c #2791D8",
"H. c #1E86FB",
"J. c #388BEE",
"K. c #2983F8",
"L. c #3686F7",
"P. c #338FF6",
"I. c #5285D6",
"U. c #6195D7",
"Y. c #7B9EDE",
"T. c #468BF7",
"R. c #588AF6",
"E. c #4894F8",
"W. c #5392FC",
"Q. c #5B94FB",
"!. c #529BFE",
"~. c #5C9BFD",
"^. c #5B94F6",
"/. c #5188E7",
"(. c #648EF2",
"). c #649AF7",
"_. c #6395FA",
"`. c #6A97F9",
"'. c #659CFD",
"]. c #6C9BFC",
"[. c #6697F6",
"{. c #719CFC",
"}. c #51A0FF",
"|. c #63A1FF",
" X c #6BA1FE",
".X c #75ADF3",
"XX c #969381",
"oX c #999584",
"OX c #9D9985",
"+X c #9E9A8A",
"@X c #98978C",
"#X c #888781",
"$X c #A39D84",
"%X c #A29E8D",
"&X c #A89E86",
"*X c #A39F90",
"=X c #9FA28B",
"-X c #A4A084",
";X c #AAA383",
":X c #AEAA86",
">X c #A5A28D",
",X c #AAA48C",
"<X c #ADA88C",
"1X c #B2A98A",
"2X c #B5A985",
"3X c #BBB686",
"4X c #A6A292",
"5X c #ABA594",
"6X c #ADA995",
"7X c #ACA799",
"8X c #AEA99A",
"9X c #A5A697",
"0X c #B1AB96",
"qX c #B2AC9B",
"wX c #B5A996",
"eX c #BBB394",
"rX c #B4B19C",
"tX c #B8B498",
"yX c #AEB096",
"uX c #B3AEA0",
"iX c #BBAFA0",
"pX c #BCB4A4",
"aX c #B7B3A6",
"sX c #BCB9B1",
"dX c #AFAEA8",
"fX c #C2B78A",
"gX c #C6BC96",
"hX c #C3BCAB",
"jX c #C1B8A6",
"kX c #C8BFB0",
"lX c #BAC4BD",
"zX c #C6C2AC",
"xX c #81A6E3",
"cX c #C1CBC6",
/* pixels */
"5X4X4X>X>X4X4X4X5X5X5X4X6X8X5X5X5X4X,X,X<X1XfXfX2XwX0X0X0X0X8X6X5X5X8X6X8X8X5X9X>X+X>X+X>X+X",
"4X4X4X%X+X%X>X4X9X9X4X5X6X8X5X5X6X,X,X6X<X:X3XfXeX0X0X0X0X0X0X6X6X6X8X8X0X8X5X4X4X>X>X4X4X>X",
"%X*X>X%X%X+X>X4X4X=X>X4X4X5X5X4X6X6X<X6XtXeX< , 6XaX0X0X0XrX8X0XrX8X5X8XqX8X8X5X5X5X4X9X9X4X",
"5X4X%X*X>X4X=X+X+X+X+X+X%X>X4X>X5X6X0X<X6Xm l h B uXqX0X0X6X6X8X8X8X7X5X8XqX8X8X8X8X6X5X5X7X",
"5X9X4X4X4X4X+X+X+X4X+XoXXXoXOX>X>X,X<XyXN 2 k.v.1 N 6X>X5X>X>X6X9X5X5X5X5X7X8X8X5X6X8X8X8X8X",
"5X7X5X4X*X4X4X+X+X+X@XOXXXoXoX%X>X-X-X;X8 h k.M.4 = $X-XOX-XOX+X+X>X>X4X4X7X7X8X8X8XrX8X8XuX",
"%X4X4X*X+X4X4X*X4X+X@XoX+X%X>X4X>X,X,X>X; g v.M.h = 2.-XOX2.<.>.>.XX+X%X4X8X8X8XrXuXuX8X8X8X",
"%X%X4X+X4X>X9X4X4X*X%X*X4X*X4X4X<X0X6X-X= g v.S.3 # 8.-X2.2.3.:.>.<.oX+X4X6X8XuXuXuXuXuXuXyX",
"%X%X+X%X*X5X*X*X,X*X*X7X9X5X8X6X6X<X6X>X= g Z.S.3 # 8.8.8.2.3.<.XXOXOX+X9X5X8X8X8X8XuXdX8X8X",
"OXoXoX+X*X*X*X*X*X*X*X*X6X8XrXyX1X>XeX8.o g S.S.1 O 9.9.4.2.1.<.2.OX+X4X5X9X7XuX8X7X8X8X8X8X",
"XX>.XXXX+X+X*X*X*X*X7X5X5X8XrX6X<X;X3X-.. g S.Z.1 . %.9.2.8.2.2.OX=X>X4X9X5X8X8X8X8X8X8X8XuX",
">.>.>.XXXX+X*X*X*X%X*X5X>X>X,X<X;X;XfXs   4 F.A.%   < fX8.2.$X$X$X>X4X6X5X7X8X8X8X9XuX8XuX8X",
"oXoXXX>.XX@X+X+X%X%X+XOX-X$X8.;X:X:Xs o . 3 F.A.X     a 9.eX;X4.>X>X,X>X9X8X8X7X8X7X8X8XuX8X",
"+XoXoXoX%X%X@X$X%XoX1.1.4.2.7.7.A ,     % t.(./.c 1     , =.2X<X-X>X6X6X6X5X7X7X9XuX8XdXrX8X",
"%X$X@X$X*X*X*X*X%XoX1.1.3.3.^ q   . j p.C.F.(._.R.v.d.k     8 >.dX>X6X8X0X8X5X7X9X8X7X8X8X7X",
"%X%X%X*X*X*X*X*X$XoX<.=.3.C O   j f.R. X'.[.`._.Q.R.W.T.s.&   o Z 0X6X6X8X0X7X7X7X7X4X4X5X4X",
"5X4X4X5X4X5X5X>X>XOX,.OXZ o 5 f.R.]._.[.[.`.{.[.[.(.[.Q.W.b.u.1   N pX4X6X8X6X8X9X4X>X>X4X5X",
"5X4X5X7XuXaX6X6X-X2.4XC o % Z. X[.[.].{.{.`.{.{.{.`.`.(.^.W.~.p.    V hX6X6X6X6X9X4X4X4X4X4X",
"5X5XqXqX0XrXrX<X-X9XC o   j R.'.'.].].{.{.].`.{.{.].[.[.).^.~.v.2     N sX8X6X6X4X4X4X4X9X4X",
"5X5X6XqX0X6X<X6XyXV       t.Q.'.|.]. X{.{.{.{.`.{. X].`.~.^.^.z.7 + o   m 9X9X>X4X4X4X4X4X4X",
"5X5X5X5X<X<X0XpXV   > f y p.|.'.]. X].{.{.{.{.{.].].].].).Q.W.d.- W Y e . x 7X7X9X7X9X7X9X4X",
"wX5X6X5X5X0XzXD   J O.#.` c '.].].|.{.{.{.'.`.].].].[.).Q.Q.!.a.r ......p   M uX8X8X7X7X7X5X",
"0XqXqX0X<XyX:.o p $.#.#...s ~. X'.'. X].{.].].].`.].).).Q.W.E.b T X.o.o.@.U o V aX8X8X9X9X7X",
"qXrX8XqXyX9XM o _ #.@.#.o.E U. X].|.].].{.].].{.].]._._.Q.}.K.u [ X.+.@.o.! w 9 aX8X8X9X5X7X",
"qX0X6X8XyX>XlX9 w T X.+...K j. X_.'.'.].{. X].{.].`.).Q.Q.T.K.d ' [ { ] J - d $X7X8X8X8XuXuX",
"qXqX8X6X6X<X:.0 8 r { o...K G |.Q.'.].'.).).`.).[.`.!.~.N.x.G.a ! } ! ! p   < eX*X8XdXuXaXuX",
"6X8X6X5X5X>X0 o %.X.| ....T x T.W.W._._.`._.[.).).^.!.S.l.x.G.a T { ' ! [ / # t dXuXuXuXuX8X",
"6X7X5X4X>X8XC   i $.{ } } ' : g.W.D.T.Q.Q.~.|.].~.T.V.n.n.m.x.B R ] { | ..Y   m uX7XuXuX8X8X",
"5X5X5X5X4X>X7XB   p ` [ ' ! w l D.T.W.!.}.!.c.f.c.H.H.K.H.x.2 o > P ] ` K @ m *X7X7X8X7XuX7X",
"7XwX5X5X>X>X-XlXB . r R L K +   p.j.i.v c 5 @ - 6 i.i.v v 5 -     + > + . 9 *X7X7X7X7X9X*X*X",
"5X4X4X*X%X&X$X%XdXN . @ @   0 @X#   9 x . . I ) O         . / i         M 5X*X7X7X9X*X*X*X*X",
"4X5X4X4X4X4X5X<X*XdX^ =   8 cXF   c .XU.$ + w.w.O   X * * X i _ ;   = D iX7X7X7X7X9X9X*X*X%X",
"5X5X*X5X5X4X5X6X,X%XuXoXD >XN   v N./.I.$ + q.) o * f.G.I.x   i S ,.,XjX8XwX8X8X9X*X*X%X@X@X",
"5X5X5X5X5X5X5X6X6X&X-X:X3X;.  4 B.T././.& O r.( o k /.J.J.a.    =.gXwXwXqX8X8X7X4X*X@XXXoX1.",
"5X5X5XwX6XqXqX5X,X,X,X:X9.=.  h L.E.T./.2 + e.&.  k V.J.P.d.$   =.eXwXqXuXqX8X7X*X+XXXXX>.>.",
"7X5X7X7X7X8XqXqX4X6X6X;X1X-.o 4 V.T.L.E.h + e.%.  4 B.B.K.k.1 . A tXeXrXuXuX8X*X*X@XXX>.>.>.",
"5X5X7X8X8X5X7X5X5X5X0X,X<X-X= X z.P.T.T.j . r.;.  4 M.K.K.d.X . >.rXqXqXrXqX7X5X*X$XoXXX1.XX",
"5X5X5X7X7X5XwX5X5XqXwX0X<X0XZ   l v.P.L.5   ;.;.  % d.k.d.4   C qXwXqXqX8XwX8X7X*X%XoXXXoXXX",
"8X5X5XwX7X5X5XwXqXqXrXwX,X,X5XV   % k x X   G F   o * $   + Z 6X7XqXiXuX7X7XwX7X*X*X%X$X$XoX",
"wX5X5X7X7X5XwXwXtXjXrX5X5X,X%X5XZ #       % Y.j.X o . . 8 D 0X6XwXqXqXwX7X7X7X*X7X*X*X%X%X%X",
"qX0XwX5X5XqXqXiXjXjXwX8X5X5X,X&X&X-.d ;   & xXxX& . ; C $X&X*X7XqX8X8XwX8X7X5X7X7X7X5X*X&X*X",
"wX0X5X5X5XqXqXjXhXpXqX5X5X5X0X,X5.&X2X6.s . z n   t 1.&X&X&XwX7X7XwXqX8X8X8X8X7XwX7X7X*X*X*X",
"5X0XwXqXwXrXpXhXkXpXqX6X0X*X,X,X,X;X5.5.2X~ # . a 5.$X1.$X*X,XwXwXuX8X8XwX8X8XqX7X8X7X5X5X4X",
"0X8X8XqXwXrXpXhXhXiXwX5X*X,X5X5X,X<X;X&X8.fXS a 5.6.6.&X&X5X5X5X7X7X5XwX8X8XuXqX8X8X5X5X<X5X",
"qX0X0XqXwXpXpXjXhXwXwX5X5X5X5X,X5X&X,X2X;X2X5.;X5.6.&X&X&X,X5X5X7XwX7XuXqXqXqXqX8XqXwX5X5X5X",
"wX0XwX0XrXaXjXjXjXwX5XwX5X,X,XwX<X&X5X1X;X2X6.~ 5.$X&X$X,X>X4X5X7XwXuXwXqXqXuXqXqX8X8X5X4X5X"
};
