/* XPM */
static char *result[] = {
/* columns rows colors chars-per-pixel */
"46 46 221 2 ",
"   c #020101",
".  c #0B0101",
"X  c #0A0A05",
"o  c #01020B",
"O  c #160502",
"+  c #1A0D00",
"@  c #1A100A",
"#  c #000112",
"$  c #090916",
"%  c #02021C",
"&  c #0B121A",
"*  c #330900",
"=  c #241602",
"-  c #331C07",
";  c #050926",
":  c #0C1424",
">  c #141927",
",  c #000332",
"<  c #020B35",
"1  c #091636",
"2  c #111A38",
"3  c #291725",
"4  c #10222B",
"5  c #3A2D27",
"6  c #771400",
"7  c #4D2404",
"8  c #5E2C01",
"9  c #563D05",
"0  c #682B01",
"q  c #703202",
"w  c #5D4802",
"e  c #6C4C04",
"r  c #7C5304",
"t  c #594F37",
"y  c #000C45",
"u  c #061846",
"i  c #040B57",
"p  c #031756",
"a  c #261A5F",
"s  c #11264C",
"d  c #152B56",
"f  c #273C58",
"g  c #081268",
"h  c #101570",
"j  c #10306B",
"k  c #123678",
"l  c #24266F",
"z  c #263876",
"x  c #4D3B40",
"c  c #2F535C",
"v  c #16407C",
"b  c #2A4C77",
"n  c #695E54",
"m  c #7B6549",
"M  c #746B5C",
"N  c #4F5667",
"B  c #43607A",
"V  c #756F62",
"C  c #7C7562",
"Z  c #71787B",
"A  c #932300",
"S  c #8A3C03",
"D  c #AB2A00",
"F  c #A43800",
"G  c #854501",
"H  c #844814",
"J  c #B34F07",
"K  c #A66704",
"L  c #AB6F05",
"P  c #BB7100",
"I  c #B2743B",
"U  c #C75601",
"Y  c #C77D00",
"T  c #DA7A00",
"R  c #816267",
"E  c #847C6B",
"W  c #847E71",
"Q  c #B5840A",
"!  c #CA8700",
"~  c #CF890B",
"^  c #EB8A00",
"/  c #F28B00",
"(  c #EA9901",
")  c #F59A00",
"_  c #DAA901",
"`  c #EDA401",
"'  c #E9AB00",
"]  c #FDA700",
"[  c #E6B800",
"{  c #F9B600",
"}  c #F4BE01",
"|  c #ECC801",
" . c #FAC801",
".. c #FAD501",
"X. c #FFE003",
"o. c #A69755",
"O. c #B9B159",
"+. c #88826F",
"@. c #8B8474",
"#. c #8D8677",
"$. c #948B78",
"%. c #938C7D",
"&. c #96917D",
"*. c #C9B773",
"=. c #0A3191",
"-. c #163A98",
";. c #194386",
":. c #164599",
">. c #2B4B86",
",. c #294999",
"<. c #24539C",
"1. c #2D6A9B",
"2. c #1B55A4",
"3. c #164AB0",
"4. c #1759B1",
"5. c #2B47A5",
"6. c #394EAE",
"7. c #2659AA",
"8. c #2559BB",
"9. c #3368AA",
"0. c #4C7894",
"q. c #66729B",
"w. c #446DBD",
"e. c #7179BB",
"r. c #1E38C1",
"t. c #295CC7",
"y. c #3C5DC3",
"u. c #3868CA",
"i. c #2E72C9",
"p. c #3669D6",
"a. c #3776D8",
"s. c #3B7BE6",
"d. c #2F79F2",
"f. c #3D7AF4",
"g. c #4271CB",
"h. c #4877D7",
"j. c #597ED5",
"k. c #4476E7",
"l. c #3B82D5",
"z. c #3D86E1",
"x. c #2981FE",
"c. c #3C8AFC",
"v. c #4381D6",
"b. c #4B8ED1",
"n. c #728FCC",
"m. c #4A8DE5",
"M. c #568EE9",
"N. c #4888F8",
"B. c #558CFA",
"V. c #4995FE",
"C. c #5494FD",
"Z. c #5B96FE",
"A. c #549CFE",
"S. c #5C9BFE",
"D. c #6995E9",
"F. c #668EFB",
"G. c #6E93F5",
"H. c #6396FE",
"J. c #639AFE",
"K. c #6B9BFE",
"L. c #58A3FF",
"P. c #70B1E9",
"I. c #64A3FE",
"U. c #68A3FD",
"Y. c #77A6FD",
"T. c #79B4FE",
"R. c #988F82",
"E. c #979184",
"W. c #9B9484",
"Q. c #9C9887",
"!. c #9D9689",
"~. c #9F998A",
"^. c #818995",
"/. c #A49B8A",
"(. c #A39C8D",
"). c #A59E91",
"_. c #A89F93",
"`. c #A6A28E",
"'. c #A6A192",
"]. c #AAA394",
"[. c #ADA896",
"{. c #ADA699",
"}. c #AEA99A",
"|. c #B1A897",
" X c #B0A799",
".X c #B2AB9D",
"XX c #B6B19F",
"oX c #B8B09F",
"OX c #AFA9A0",
"+X c #B4AEA1",
"@X c #B8AFA4",
"#X c #B6B1A3",
"$X c #B9B3A5",
"%X c #BAB6A8",
"&X c #BCB5AA",
"*X c #BEB9AC",
"=X c #BEB9B1",
"-X c #CBA683",
";X c #E6BF82",
":X c #C0B7A9",
">X c #C1BBAD",
",X c #C3BDB2",
"<X c #DCC283",
"1X c #E5C485",
"2X c #C6C0B4",
"3X c #C9C3B6",
"4X c #CBC5BA",
"5X c #CEC9BF",
"6X c #D1CABD",
"7X c #879ADE",
"8X c #98B6D3",
"9X c #8BBFFB",
"0X c #9CC8FF",
"qX c #B3D0F8",
"wX c #CECBC3",
"eX c #D2CCC2",
"rX c #E2DDEE",
"tX c #C4E1FF",
"yX c #E6E3E8",
"uX c #E8EAF6",
"iX c #FCFAF5",
/* pixels */
"#X%X.XXX].~.}.}.(./.[.XX$X#XXX]..XXX/.`.}.#X%X#XQ.~.+X}.%X%X}.%.Q.[.*X%X%X{.(.}.[.`..X#X#XXX",
"&.[.[.].XXQ..X,XXX[..X2X2X*XoX.X|.`.`.'.'.`..X$X%X].+X}.#X}.XXXXXX#X.X[.*X2X#XQ.Q.].@.E.*X`.",
"[.[.&.$.E.~.[.*X2X}.Q.}.>X>X&X&X$X(.+X,X}..X%X%X`.%X[.%X2X>X#X%X#X.X[.`.%X2X2X$X[.#X`.E ~.*X",
"oXoX`.`.'.Q.).~.~.].(.Q.XXXXXX.X%X*X+X%X%X*X.X}.'.(.].[.}.#X#X*X2X%X#X`.%X*X`.}.:X%X2X3X}.#X",
"&X3X>X*X%X].Q.~.!.Q.).%.$.E.!.{.[.{.{.}.*X}.%.(.%X{.%.`.#X[.}.%XwXwXXX%X+X:X{.%.].%X'.#X*XXX",
">X>X3X%X}.].].%X,X$X(.C C %.!.(.{.(.].'.'.#X].}.%XXXXX'.#XW.XX%X`.%X[.`.#X+X,X$X(.XX*X}.'.`.",
"[.}..X.XXX].}.OX.X3X|.&.W &._.}.(.~.~.+X=X%X*X+X].}.%X%X[.`.&.&.C $.+X}.{.].,X*X>X,X*X#X[.'.",
"&./..X'.{.#X%X%X].].oX,X,X2X4X4X+X).)._.=X].~.{.< # %X2X#XQ.%.@.C M Q.'.~.+X:X&X3X4X=X*XXX'.",
"{.].].%X=X+X$X,X$X.X}.[.:X+X&X>X]._.&X*X(.].'.o :.4.o 3X3X#.n #.'.}.%X{.}.[.`.[..X%X*X%X%X#X",
"+X_.E.{.&X(.W.].].(.,X&X>X4X>X*XOX(.(.%X].W.  p g =.v # #X:X_.!.E.~.=X=X#X#X#X.X@.(.>XXX~.`.",
"!.).~.!.OX+X].}._.(. X,X3X3X3X3X+X#X{.#X+Xo i 3.u < 8.;.# {.+XwX=X~.=X=X*X#X=X%X(.(.#X.X.X'.",
"R.W Q.~.+X*X%X+X(././. X].$X%X$X}.{.$X4X5X% 3.s.& , 8.2.; OX{.=X=X=X#XOX#X*X{.}.#X+XXX*X2X*X",
",X=XW M W `.&X,X+X).).!.(.(..X#X{.E.R.!.. , p.h.& ; 8.t.< $X2X*X'.%X%XOX].+X{.(.+X]./.+X2X3X",
"}.~.+.E.).].*X#XOX).+X+X{.].+X$X}.).~.~.  y a.h.& % g.i., .X(.(.E.R.{.).=X,X_.!.+X,X+X%XoXXX",
"*XOX}.{.+X%X(.{.&X}.W (.+X_..X.X'.+X&X%X. y p.h.& o w.m.< }.#X}.{._.{.+X=X+X}.!.+X#X].+X>X&X",
"=X#X{.OX%X#X].'.)._.V V (.+X.X+X{.+X=X%Xo y u.h.>   d b o 3X>X=XOX{.E.{.,X=X=X@X+X$X#X+X}.&X",
").'.].}.*X>X X%.R._._. X_.'.#X%X}.        u u.g.&         3X2X*X.X{.+X$X,X5X,X&X+X+X(.R.(.].",
"#X}.{.*X*X*X*X:X#X:X3X4X5X$X$X%X  o $     1 a.l.:       &   $X$X>X>X&X,X+X+X X]. X X_.R.`.`.",
"=X*X$X*X,X4X3X,X4X%X%X>X>X,X:X  1 4.7.2   1 l.b.4   # 2.t.1   *X#X+X,X@X:X3X#XR.(.(./.XX,X4X",
"OX+X*X2X:X*X.X[.,X:X_.].R.W.  u c.V.V.>.X & 9.1.@   j x.d.t.2   ).).&X$X&X>X:X&X].].!.).$X%X",
"'.(.~.{.$X.X.X&X:X&X].].Q.  ; s.L.V.A.w.    0.B . . t.c.z.f.p.1   #X:X$X+X X].#X,X*X$X&X>X.X",
"#X].].].]. X|.#X#X$X.X.X    <.L.V.A.A.C.b # f c   l f.V.c.f.c.2.    +X}.+X$X.X$X,X4X&X#X X].",
"%X$X&X%X]..X.XW./.}.#X    ; s.L.C.Z.C.L.V.u.6.-.5.Z.C.B.N.N.c.:.      ].)..X}.+X+X&X#X.X_./.",
",X3X,X>X~.'.$X$X+X+X  - . s Z.S.Z.S.H.Z.J.J.K.F.S.J.S.C.B.V.V.z   O     +X+X{.{.&X$X:X&X$X$X",
":X|.&X>X$XOX+X.X.X  r ) ! t U.J.S.S.J.J.H.H.H.H.J.K.K.U.Z.B.z.x S J G =   ,X2X}.(..X].#X>X:X",
".X`.&X,X&X,X%X{./.. P ]  .` ^.U.Z.S.H.Z.K.H.H.J.K.F.Y.k.B.A.e.J  .} ] 0   %X#X>X,X$X.X+X+X.X",
" X{.}.+X_.].2X2X  . G ) }  .~ b.C.M.l h H.J.H.J.K.G.a i p.P.$.T |  ./ 6     [.@./.oX,X#X+X%X",
".X+X.X`.{..X%X  X * A `  ...~ q.Z.D.> o k.I.J.J.U.D.; , g.P.I /  . .( D 8 X   [./._.:X#X:X%X",
"#X&X&X#X+X X[.  9 P F ' ..X.T Z U.n.$ , N.S.S.H.J.D.; y h.n.J ) | ..( U T 9   (.).>X:X_.[.].",
"&X&X.X%.R.(.+XX w ! F ( ....^ m P.w.o ,.S.S.S.C.S.G.i g M.n.J ] | | ( U Y e   .X_.+X.X|.:X.X",
"$X+X+X,X/.M &. X  = 0 ( }  ./ H 8Xj.6.K.J.H.J.J.H.S.g.r.K.e.U ' [ [ ^ F q +  X X:X.X/._.>X3X",
"].+X X@X>X,X+X{.X   8 ( ' { ) S q.7XqX9XT.T.T.Y.Y.Y.0XG.y.q.Q ' ` ) / q     +XOX@X3X@X|.]..X",
"'.~.}.%X!.{.4X=X].  K { { _ r O o N qXtXuXyXyXrXuXuXiXwX1   = r ~ ) / G   :X{.{..X X{.=XOX).",
"%XXX.X{.{.*X,X*X+X  e ( L - o   o o 3 R -X;X1X<X*.O.o.5         7 P L =   &X{..X&X*X+X{.+XOX",
"#X,X,X4X4X,X,X,X=X#X  +       : ;.j ;   . + + + O . o o y ,.s         X ,X,X:X.X+X.X).(.E /.",
"%XOX=X*X.X.X.X].#X%X%X+X$X2X}.% 9.z.1.s 2 o     ; < d -.t.>.> ]..X}.+X5X&X:X,X.X/.#.M %.R.C ",
"~.#X%X.X].}.,X.X_._.+XOX$X@X=X=Xo p 8.z.a.1.2 % -.k.v.a.k   >X+X.X_._.].$X&X3X,XoX].C &.&X+X",
"[.}.>X.X]..X_._.OX_.=X,X+X{.OX%X%Xo u k k j : % k 7.7.,   3X:X>X>X&X,X X].,X6X$X@X@X]._. X$X",
"%X}.~.'.{.3X|.&._. X=X@X).OX{.!.(.$X  # #   4X,Xo # #   _..X.X/.+X:X&X+X(.(.:X>X,X:X(. X,X.X",
"%X.X].[.].%X%X:X&X,X&X{.OXOXE.#.(.$X.X#X#X%XeX,X@X(._.(.].|.|._.#X,X+X X X.X_.|.@X,X&XOX+X!.",
"=X@X X(.(.+X(.{.,X&X$X&X,X4X}.E.+X.X&.@.].#X.X&X,X,X$X%X+X*X3X:X>X*X].].(.oX).R.]. X#X:X@X$X",
"4X&X&X,X_. X&X@X,X2XoX(.$X,X,X X~.(.].[.]..X_.oX&X+X$X:X4X,X,X%X+X$X@X{.$X.X&XOX.X$X_./.R.].",
"!.+X}. X*X&X4XeXeX,X+X#X+XOX X X$X+X_.+X,X3X&X|..X(.@.$..X4X$X:X,X$X@X).Q.&X,X*X.X3X4X_._.$X",
").+X:X{.@X:X+X>X4X$X+X,X:X,X>X].+X>X&XOX,X4X:X]..X(.#.&._.$X.X*X>X@X*X:X_. X,X,X:X:X$X>XoXoX",
"4X#XQ._.{.&X)._.4X{.E._.OX@X,X,X,X@X#X+X.X#X&X]. X,X#X+X(.$.].}.(..X3X,X+X*X,X,X@X+X.X]..X#X",
"*X%X+X+X+X+X,X@X@X&X_.(.).&X&X@X}.+X_.OX X.X*X+X/.:X4X2X*X).{.*X&X/.$X>X_.(.{.>X@X X(._.`..X"
};
