/* XPM */
static char *result[] = {
/* columns rows colors chars-per-pixel */
"46 46 246 2 ",
"   c #010101",
".  c #090301",
"X  c #0D0A05",
"o  c #02030B",
"O  c #0B0A0B",
"+  c #08040B",
"@  c #120C05",
"#  c #130906",
"$  c #1D1309",
"%  c #010414",
"&  c #05061A",
"*  c #181518",
"=  c #130C12",
"-  c #211C13",
";  c #221F1B",
":  c #231A0C",
">  c #29231A",
",  c #332815",
"<  c #030A27",
"1  c #081228",
"2  c #16182B",
"3  c #010D38",
"4  c #071637",
"5  c #120D2C",
"6  c #1C242D",
"7  c #39342A",
"8  c #2F2F2E",
"9  c #54290C",
"0  c #453A27",
"q  c #493C31",
"w  c #471812",
"e  c #375016",
"r  c #56421F",
"t  c #6D4B0A",
"y  c #4D4737",
"u  c #554B38",
"i  c #5A4F32",
"p  c #625338",
"a  c #736436",
"s  c #061B48",
"d  c #081B54",
"f  c #092445",
"g  c #17274B",
"h  c #0B2752",
"j  c #143355",
"k  c #22354E",
"l  c #070F6A",
"z  c #102C68",
"x  c #293A66",
"c  c #1D4257",
"v  c #324756",
"b  c #274668",
"n  c #334A69",
"m  c #364A75",
"M  c #3B657D",
"N  c #12447B",
"B  c #585346",
"V  c #535148",
"C  c #665C47",
"Z  c #797244",
"A  c #726D5A",
"S  c #70664A",
"D  c #40657F",
"F  c #6B6D69",
"G  c #797265",
"H  c #44556E",
"J  c #863A00",
"K  c #9F3A00",
"L  c #CD3A01",
"P  c #BD5900",
"I  c #95690C",
"U  c #D54F00",
"Y  c #D97A02",
"T  c #CB7300",
"R  c #E87804",
"E  c #FF7802",
"W  c #E46200",
"Q  c #856F4A",
"!  c #BA7F5A",
"~  c #827C6B",
"^  c #A67B7F",
"/  c #ABBB26",
"(  c #D5870D",
")  c #F78800",
"_  c #F6900D",
"`  c #F7A400",
"'  c #ECB700",
"]  c #E4AA00",
"[  c #DA9A2B",
"{  c #FFC800",
"}  c #FDD701",
"|  c #F7E700",
" . c #F2F201",
".. c #E0C42A",
"X. c #B88949",
"o. c #8C856A",
"O. c #968B6C",
"+. c #8D8B7A",
"@. c #928D7C",
"#. c #958C73",
"$. c #9B9375",
"%. c #99947C",
"&. c #99906C",
"*. c #A18E64",
"=. c #A5997A",
"-. c #AF996C",
";. c #AAA37E",
":. c #B6AB7B",
">. c #BAB17F",
",. c #9C8B55",
"<. c #C09C48",
"1. c #073A8C",
"2. c #1B37A0",
"3. c #175097",
"4. c #2B4A84",
"5. c #2E5293",
"6. c #3D618D",
"7. c #1658AE",
"8. c #265CB9",
"9. c #2657A7",
"0. c #2965B4",
"q. c #3565B7",
"w. c #3875B8",
"e. c #3469AB",
"r. c #1762B6",
"t. c #45639B",
"y. c #425AB1",
"u. c #4A74B4",
"i. c #707C8E",
"p. c #166DD3",
"a. c #2963C6",
"s. c #356AC7",
"d. c #2769D2",
"f. c #3278D5",
"g. c #1D70EB",
"h. c #2A76EC",
"j. c #367EE5",
"k. c #267BF6",
"l. c #367FF3",
"z. c #155ECD",
"x. c #4679D8",
"c. c #5174D2",
"v. c #477BE6",
"b. c #467CF4",
"n. c #557CE6",
"m. c #7F859E",
"M. c #4D8DB0",
"N. c #7D98BF",
"B. c #2A87FB",
"V. c #338AFB",
"C. c #2C92FD",
"Z. c #3895FD",
"A. c #368DEC",
"S. c #379BEE",
"D. c #5893D9",
"F. c #4C88CE",
"G. c #6D95D1",
"H. c #7CB1CC",
"J. c #4785EB",
"K. c #5689EA",
"L. c #438BF5",
"P. c #4A83FB",
"I. c #4A89F7",
"U. c #538BF5",
"Y. c #588CF8",
"T. c #4A97FB",
"R. c #5C95FD",
"E. c #5C9BFE",
"W. c #5595F9",
"Q. c #469DEE",
"!. c #6595FD",
"~. c #6B96FD",
"^. c #669BFD",
"/. c #6B9BFE",
"(. c #6696F4",
"). c #719BFE",
"_. c #6490E9",
"`. c #4AA5FE",
"'. c #5CA3FF",
"]. c #5EBBFD",
"[. c #7AABEC",
"{. c #63A3FE",
"}. c #68AAF7",
"|. c #73B9FA",
" X c #6DACF5",
".X c #5FA5D1",
"XX c #72CAFE",
"oX c #6DCCFF",
"OX c #969382",
"+X c #9A9584",
"@X c #9D9886",
"#X c #9E9B8A",
"$X c #9C9788",
"%X c #939390",
"&X c #A49C84",
"*X c #A89D83",
"=X c #A39E8C",
"-X c #A99F8B",
";X c #A49785",
":X c #A49F90",
">X c #A6A186",
",X c #ABA385",
"<X c #A5A18D",
"1X c #AAA38D",
"2X c #AEAA8C",
"3X c #AFA887",
"4X c #B3AB8D",
"5X c #B3A689",
"6X c #A6A291",
"7X c #ABA594",
"8X c #AEA995",
"9X c #ACA798",
"0X c #AEA99A",
"qX c #B1A794",
"wX c #B2AB94",
"eX c #B2AC9B",
"rX c #B9AF9A",
"tX c #BCB39D",
"yX c #BBB397",
"uX c #8B93B2",
"iX c #B3AEA0",
"pX c #BCB4A3",
"aX c #B7B3A2",
"sX c #9CA8BB",
"dX c #C1BD98",
"fX c #C3BBAA",
"gX c #C2B7A4",
"hX c #C4BEB1",
"jX c #D3CC91",
"kX c #C8C0AE",
"lX c #92A4C4",
"zX c #8ABCF0",
"xX c #ABB8D7",
"cX c #9ED6FB",
"vX c #95C8F9",
"bX c #B2D3F4",
"nX c #BAE2FF",
"mX c #ADC7D1",
"MX c #CCCFD2",
"NX c #FAF4D8",
"BX c #C3DDF0",
"VX c #DCE8F9",
"CX c #D0E8F0",
"ZX c #FCFAEA",
"AX c #F9FEFB",
"SX c #E0EDF8",
/* pixels */
"7X6X6X6X6X6X6X7X8X6X6X8X0X0X7X8X0X8X6X6X7X0X0X0X8X8X6X8X0XwXeX8X8X8X8X8X0X8X6X0X6X<X<X<X6X6X",
"6X6X6X6X<X=X:X7X6X6X6X8X8X8X7X7X6X7X6X6X8X0X8X0X8X6X8X8X0XwXwX8X7X0X8X6X0X0X7X6X<X<X:X:X6X6X",
"6X6X6X=X#X=X6X6X6X6X#X6X7X8X0X0X6X7X8X6X0X0X7X8XeX<X8X8X8X8X8X8X0XrXeX7X0XeX0X7X0X6X6X6X6X6X",
"7X6X6X=X6X6X6X#X<X#X=X:X:X:X6X6X6X9X8X8X0XeX7X<X8X8X<X8X8X8X2X8X8XeX8X0XeX0X0X0X0X0X0X0X6X0X",
"7X6X6X7X6X6X:X#X#X:X:X#XOX+X#X#X6X7X0X6X7X0X7X<X<X>X&X>X,X2X4X>X1X8X7X7X0X0X0X0X0X0XiX0X0X0X",
"9X9X7X7X#X6X6X#X=X=X=XOX+.+X:X:X:X9X7X6X6X6X8X<X<X>X<X>X%.o.$.>X<X&X<X<X6X8X0X8X0X6X0X0X0XiX",
":X9X7X6X6X6X6X6X8X:X%XOX+X:X6X6X:X6X6X7X0X8X8X1X1X8X0X=.0   X u $.=.&X<X<X8X8X0X0X0XiX0X0X0X",
"#X#X6X6X#X6X6X7X6X<X#X6X6X9X7X8X0X6X0X0XiX8X<X8X2X>X>Xi % f 1   7 &.=.>X7X8XeXaXaXiXiXaXiX0X",
"#X:X#X:X6X7X7X9X6X:X7X7X0X0X0XiXeX0X0XeXeX7X1X2X8X;.7 & f.L.d.z   , &.,X7XeXeX0X9X9X0XiX9X0X",
"#X#X$X#X6X7X7X7X6X:X9X0XiXiXiXiXeX0X0X8XeX8X7X1X2XC   5.W.L.I.b.4.+ p *X,X<X6X7X:X9X0X0X9X9X",
"+.@.OX%X#X#X#X:X:X#X6X0X0X0XiXeX0X8X7X7XwX8XqX1X+.O 1 F.I.I.J.b.L.4.# Q *X-X8XeX6X9X0X0X0X0X",
"%.+.+.+.+X#X#X6X:X:X6X6X:X0X0XiX0X6X7X8XeX8X1XqX7   n J.K.I.b.b.W.x.% r =.,XwX8X6X6X6X0X0XiX",
"#X$X+.OXOX:X:X6X6X:X6X6X=X<X6X6X8X7X7X8X8X1XwX#.O   m J.I.P.b.P.W.v.< : &.>X2X8X0X6X0X0XiXiX",
"#X#X+XOX#X6X6X#X#X%X@X#X=X#X6X6X6X6X6X<X,X2X4X7     4.b.J.b.P.P.Y.x.< $ *.>X2X>X0XiXiX0X0X0X",
"=X$X$X#X6X6X6X:X=X+X+.OX#X:X6X6X=X>X1X<X3XwXB     . n U.Y.P.P.P.T.y.. @ ,.;.>X2X8X6X0X6X7X9X",
"6X:X6X6X6X6X:X6X6X=X@.OX#X#X6X8X=X=X<X,X*Xu       . 2 6.c.n.Y.U.U.x .   i >.$.>X6X6X6X7X8X6X",
"7X6X<X0X0X0X6X6X<X=X+X@X-X=X-X7X1X>X2X>Xy   n 6 .   2 n x y.K._.c.6 . . . a ;.*X-X=X;X=X<X<X",
"7X6X7XeXiXtXeX6X<X@X=X6X7X7X7X7X1X3X;.y   c M.b 1 m _./._._.(._.(.u.k < o . a ,X-X-X-X=X6X<X",
"7X8X1XwX8X8X6XeX<X&X1X7X7X:X1X1X3X=.7   j e.e.q.n.!.~./.~.).).(.(.~.R.J.9.4 . p *X=.=X<X7X7X",
"1X7X7X8XwX8X7X8XwXeX<X-X-X1X3X2X3Xy   j w.9.w.K.!.!.(.~.~.(.).).~.!.!.E.E.x.g . C &X@X=X<X1X",
"wX2X7XqXrX6XB ; > A 2X,X&X,X,X4X~   & u.w.9.K.(.(.!.~./.~.~./.~.~.~.~.).E.E.J.g @ G &X&X<X,X",
"wXwXqXqX0X7         V 2X4X>XqX4X,   x F.e.f.Y.!.~.!.~./.~.~./.^.!.!.Y.P.'.Y.E.q.o > @X1X=X7X",
"yXwX4XfXF   c F.M.6   0 ,X4XyX:.$   4.u.8.v.R.!././.!./.~.~././.!./.q.l K.E.E.K.3 X o.4X1X8X",
"wXwXrX<X> . .XoXoX Xv   q dXdX-.#   5.8.q.J.!.R.!./././.~././.^.!.(.g % x.'.{.Y.d @ O.qXqX3X",
"wXyXtX;X. < Q.`.`.].XXD   p jX-.X o 5.8.a.J.R.R.!./.)././.).).^.E.K.2 5 x.'.{.Y.s # $.qXwXwX",
"wXwXdX@.  3 f.V.B.Z.Q.XXn   Q -.. % 9.8.a.J.U.R.R.!./.[.[.[. X}.{.(.3 l P.'.{.Y.3 : $.4X4XwX",
"wX2XtX@.  2 bXBXbX[.p.p.S.h X q   O 5.r.a.j.A.P.W.(.%X=.-.-.^ lX X`.2.v.E.!.^.n.< 0 ,XqXwXqX",
"wX4XgX@.  * ZXAXAXNXMXzXvXu.%       4 r.d.h.A.J.G.X.R _ ' { ` _ X.lXvXnXvXzXzX5.. ~ wXqX1XqX",
"wXqXtX@.O o m.MXMXNXZXZXAXAXsX%       j d.h.A.m.[ E U T | | | } R <.SXVXCXSXuX+ C 1X-X=X7XqX",
"wXqXqX%.X % F.0.8.F.xXVXZXAXAXF         f e.M 9 T E L P | | | } ( [ NXVXAXxX& u &X-X-X-X7X7X",
"qX,X1X=X;   w.].Z.V.A.L.D.H.CX+.    6 2     7 a J W W U T ' } { ) ( jXCXuXO u 3X*X=X-X-X=X-X",
"7X,X>XqXA   f  XXX}.|. X}.J.lX>   n }.D.6.j 3.M.9 K R T L U ` ' ' I a 8   p wX1X-X7X-X1X:X=X",
"1X7X-X*XqXV   b |.cXnXnXCXcX8 o 1 F.`.T.`.`.Z.C.w., J T ` ) ( ( t :     A tX7X1X:X-X=X=X=X;X",
"qX7X7X1XqX7XV   x G.mXbXmXv   o 4.L.A.V.Z.Z.Z.V.S.A.f e / ..[ 9 X   O ~ kX0X8X8X:X=X;X+XOXOX",
"7X7XqXqXeXqX-XA #   = 2 X     O 5.j.j.B.V.Z.Z.B.g.k.A.p.7.n C = O B <XkX7X7X9X7X=X=X+X@.@.@.",
"7X7X7XqX-XqXqXqXO.0 @ @ X * * O s 8.h.h.B.B.C.3.1.p.B.B.h.d.g   V hXgXwX0X9X9X7X:X$XOX@.OX+.",
"qX7X7X7X7XqX-X*X=.*X*X$.%.$.&.y   h d.B.C.k.z . o f z.B.C.T.j @ #XiX6XeXeX0X9X6X:X=XOXOXOXOX",
"7X7X9XqX9X-XqXqX5X4XgXrX4X3X>X;.u . s 3.7.s   # .   h a.A.N   A iX9X0XiXiX0X9X9X:X:X$X+XOXOX",
"qX7X7X9X9X9XqXqXwXrXrXqX,X3X>X=.&.i @     . i a a 0 . % & . a >X9X0XiXiX0X0X9X7X:X:X=X$X=X$X",
"7X9X7X7X7XqX9XrXtXyXrX7XqX7X&X&X=.&.C : > A :.>.>.$.p $ $ C <X8X0XeXeX0X8X7X0X7X9X9X:X:X=X=X",
"qXqX9X9X9XqXeXiXfXgXeX8X7XqX-X-X*X$.=.o.$.4X5X5X,X=.$.o.o.,X7X7XeXeXeXeX9X9X9X9X:X9X6X<X=X-X",
"9X9XqX9XqXqXiXpXhXpXqX7X7X7X7X1X<X;X=X-XqXqX1X1X-X;X=.&X7X7XqXwXeXeX9X9X9X0X9X7X9X9X7X6X6X<X",
"eXqXqXeX9XeXgXfXhXgX9X9X9X-X:X7X-X-X=X1XqXwX1X,X-X-X;X&X&X1X7X9XeXeX0X8X0XeX0XeXiX9X7X6X6X6X",
"qXeXeXqXeXrXiXfXfXtXqX9X7X7X7X7X7X1X1X1X1X8X7X1X-X-X&X&X>X<X7X9X9X9X0X9X0XiXeXiXiX9X7X7X6X7X",
"iXeXqXeXeXpXgXgXgXeXqXqX7X9X9XqX7X7X1X1X7X7X8X7X-X=X-X=X=X-X9XeXqX9XeXeX0XeXiXiX0X7X0X7X7X8X",
"rXqXeXqXeXpXgXgXgXeXeX9X7X7X9X7X7X7X8X8X8XwX7X7X-X:X<X6X-X:X7XeX9XeXiXeXeX0XeXiX0X0X0X8X7X6X"
};
