/* XPM */
static char *result[] = {
/* columns rows colors chars-per-pixel */
"46 46 215 2 ",
"   c #020101",
".  c #0A0402",
"X  c #0E0A06",
"o  c #05020B",
"O  c #0B0C0B",
"+  c #140800",
"@  c #161008",
"#  c #020313",
"$  c #070818",
"%  c #0A121F",
"&  c #111118",
"*  c #390700",
"=  c #3A301F",
"-  c #040926",
";  c #0A1629",
":  c #121724",
">  c #040B35",
",  c #091634",
"<  c #141C37",
"1  c #11243B",
"2  c #232D3B",
"3  c #323237",
"4  c #3C4017",
"5  c #5D4402",
"6  c #7F4900",
"7  c #4B5037",
"8  c #0F1746",
"9  c #0D2149",
"0  c #142847",
"q  c #1C3559",
"w  c #222E48",
"e  c #2B3548",
"r  c #27365A",
"t  c #050E78",
"y  c #132D6D",
"u  c #2A3767",
"i  c #2C445B",
"p  c #1C4379",
"a  c #344872",
"s  c #5C5B4C",
"d  c #746B5C",
"f  c #43557A",
"g  c #756F62",
"h  c #7C7562",
"j  c #727971",
"k  c #943700",
"l  c #C43900",
"z  c #864815",
"x  c #BC4B03",
"c  c #AB6B02",
"v  c #C54500",
"b  c #EB4F01",
"n  c #DB6601",
"m  c #CE7501",
"M  c #E36701",
"N  c #FC7101",
"B  c #D36D20",
"V  c #847C6B",
"C  c #847E71",
"Z  c #A2796F",
"A  c #AF8F16",
"S  c #B99138",
"D  c #D98700",
"F  c #D69A01",
"G  c #EF9208",
"H  c #C7AE1C",
"J  c #EDAA02",
"K  c #FFAD00",
"L  c #F9BB01",
"P  c #FFCB01",
"I  c #EBDD00",
"U  c #F9D901",
"Y  c #ECE302",
"T  c #F9E300",
"R  c #B89355",
"E  c #88826F",
"W  c #8C8575",
"Q  c #938776",
"!  c #948C7D",
"~  c #99917E",
"^  c #A68C76",
"/  c #C18E4F",
"(  c #D1BA52",
")  c #0C3D8A",
"_  c #213391",
"`  c #1C508E",
"'  c #294C88",
"]  c #334F88",
"[  c #2D508F",
"{  c #2A679A",
"}  c #1555BF",
"|  c #2D51A3",
" . c #3357AA",
".. c #296DB4",
"X. c #405384",
"o. c #456794",
"O. c #4C74AF",
"+. c #5376BC",
"@. c #0853D7",
"#. c #245BC8",
"$. c #305FCC",
"%. c #1868D6",
"&. c #2868C9",
"*. c #3369C8",
"=. c #3876CA",
"-. c #2B6AD3",
";. c #3A78D8",
":. c #2C71E7",
">. c #3B79E7",
",. c #3D7BF7",
"<. c #4974CA",
"1. c #487AD8",
"2. c #437CE9",
"3. c #447CF6",
"4. c #5485AD",
"5. c #7095B2",
"6. c #3E82D6",
"7. c #3E86E9",
"8. c #3D82FC",
"9. c #588ECF",
"0. c #4B83D7",
"q. c #6B9CC0",
"w. c #6B97D4",
"e. c #67A4DA",
"r. c #4688EB",
"t. c #5B89E7",
"y. c #538CEC",
"u. c #4993EF",
"i. c #5792EB",
"p. c #4482F3",
"a. c #4C8BF4",
"s. c #4887F8",
"d. c #548EF3",
"f. c #518EFB",
"g. c #4796F6",
"h. c #4C93FE",
"j. c #5492F1",
"k. c #5898F6",
"l. c #5495FC",
"z. c #5C94FE",
"x. c #5B9BFC",
"c. c #6694EA",
"v. c #6797F6",
"b. c #6B96F6",
"n. c #6C9BF5",
"m. c #6396FC",
"M. c #649AFC",
"N. c #6B9BFC",
"B. c #7296F7",
"V. c #729FFD",
"C. c #5CA1FE",
"Z. c #51ADFA",
"A. c #5BAAFD",
"S. c #76A8E9",
"D. c #79BBEB",
"F. c #63A4FE",
"G. c #6BA4FB",
"H. c #74A9F9",
"J. c #72B7F3",
"K. c #978E82",
"L. c #998F81",
"P. c #979283",
"I. c #9B9484",
"U. c #9C9887",
"Y. c #9D9689",
"T. c #9F998A",
"R. c #A49B8A",
"E. c #A39C8D",
"W. c #A59E91",
"Q. c #A89F93",
"!. c #A6A28E",
"~. c #A6A192",
"^. c #AAA494",
"/. c #ADA896",
"(. c #ADA699",
"). c #AEA99A",
"_. c #B0A799",
"`. c #B2AB9D",
"'. c #B6B19F",
"]. c #B8B09F",
"[. c #8D98BD",
"{. c #AFA9A0",
"}. c #B4AEA1",
"|. c #B8AFA4",
" X c #B6B1A3",
".X c #B9B3A5",
"XX c #BAB6A7",
"oX c #BCB6AA",
"OX c #BEB9AC",
"+X c #BEB9B1",
"@X c #C0B7A9",
"#X c #C1BBAD",
"$X c #C3BDB2",
"%X c #C0C08B",
"&X c #C6C1B4",
"*X c #C9C2B6",
"=X c #CBC5BA",
"-X c #CBC5BC",
";X c #D1CABE",
":X c #8F9ED0",
">X c #8EADCE",
",X c #85BCFA",
"<X c #87C5FD",
"1X c #9ACCFE",
"2X c #8ED4FF",
"3X c #93D3FE",
"4X c #9AD5FD",
"5X c #ABD0EC",
"6X c #A9D8FF",
"7X c #B1D9FB",
"8X c #A9E3FF",
"9X c #B3E3FF",
"0X c #D2CCC2",
"qX c #D0D1C2",
"wX c #FFFFF1",
/* pixels */
" XXX'. X!.T.).(.E.E./.'.XX X`.!.'.'.R.R.). XXX.XI.T.}./.XXXX/.! I.`.OX XXX).!.).^.!.'. X X X",
"~ /././. XU.`.$X'./.`.$X*XXX.X'._.^.!.~.~.!.`..XXX~.`.`. X{.'. X`. X`./.oX&X.XI.U.^.W ! #XR.",
"/./.~ Q P.E./.OX&X).I.).#X#XXX@X XQ. X+X).`.XXXX~. X/.OX&X#X XOX X'./.!.XX&X&X.X/. X~.V U.OX",
"'.].!.R.W.U.T.E.U.^.~.I.'.'.`.`.XXoX XXXOXOX).(.~.~.^.^.).'.'.OX*XXX XT.oXOXE.`.OXXX&X*X'. X",
"XX*X#XOXOX^.U.U.T.U.~.! Q P.T.(.^.(.(.(.OX).! E.XX(.! E. X/.). XqXqX'.XX}.$X^.! ^..X^. XOX'.",
"#X#X*XXX/./.~.XX+X.X!.h h Q Y.W.(.E.(.~.~. X^./.XX X'.~. XU.`.XX!.'./.~. X}.$XXX!.'.OX).~.E.",
"/.).).).}.^.).{.`.*X/.! E P.Q.(.R.T.T.}.+X.X+X X~.`.XXXX^.  . ~ h ! {.(.^.^.$XoXOX&XOX X^.~.",
"P.T.}.~.(. XOXXX^./.`.&X$X&X-X-X}.~.W.W.$X~.T.(.^.). X&X- 1 %   h g U.^.T.}.@XXX&X=X+XXX X~.",
").^.^.XXoX X.X&X X).)./.@X}..X$X~.W.oXoXE./.^.(.).XX#X- 0.u.&.y   ).XX).).(.!.).`..XOXXXXX X",
"}.Q.P.(.oXE.I.^.^.Q.$XoX#X;X#XoX}.W.E.XX^.I.`._.Q.E.  [ l.g.r.7.' o OX$X X X}.`.W E.$X`.T.!.",
"Y.E.T.Y.{.}.^.`.Q.E.(.$X*X*X*X&X}. X(..X}.E.oX@X#XX $ 0.j.u.>.p.g.]   $XOX XOXoXE.E. X`.`.~.",
"K.C U.T.}.OXXX}.E.R.R._.^. XoXXX{.(..X=X0X$XoX#X`.  w y.j.d.>.>.g.0.$ {. XOX).). X}.'.OX&XOX",
"&X+XC d C ~.oX+X}.W.W.Y.E.E.`. X^.P.K.Y.).`.}.#X#X  u d.d.f.>.>.y.y.> ).^.}.(.T.}.^.E.`.&X*X",
"^.E.E P.E.^.OX X{.W.}.}.(.^.}.XX).W.T.T.~.`.oX*X=Xo u t.a.f.3.,.r.y., Q.+X$X~.T.}.$X}.oX.X'.",
"+X{.).(. XXXE.{.oX).C E.}.Q._._.~. XoXXX^.E.@XOX    a f.d.f.s.s.a.t.> }.+X}.{.Y.}. X^.}.#XXX",
"+X X(.{. X X^.~.W.Q.g g E.}.}.}.).{.+XoX`.R.^. X    [ s.s.s.3.3.f.1.# Q.-X+XoX|.}..X.X}._.XX",
"W.~.^.).OX+X).~ L.Q.Q._.Q.~. X.X).^.(.Q.Y.T.~.      ' s.r.p.s.p.f.O.o .X$X0X$X.X}.}.R.K.R.^.",
" X).(.OXOXOXXXXX|.@X=X=X0XoX.X.XoXW.Y.).T.Y.        2 1.>.p.s.f.a.u o   }.}.`.^.`._.W.K.!.!.",
"+XOX XOX$X=X*X@   XXoX#XoX$XoX.X^.(. X(.XX  < :     % ] | 1.i.b.t.<       *X|.L.E.E.E.].&X=X",
"{. X#X&X#XXX  # %   Q.Q.L.I.^./.^.`.-X+X  9 c.<.u r +.c.c.c.c.n.n.+.w $     @XXX^.^.Y.W..XXX",
"~.E.E.(..X  ; q.e.i   !.Y.E.#X^.K.K.^.  9 1.c.V.N.N.V.H.N.n.n.n.b.v.k.>.| , . |.$X+X.XXX#X}.",
" X~.^.^.^.  5.8X,X<Xi   ). X$X&X}.Q.. , 1.v.b.b.N.N.b.n.b.V.G.B.B.v.M.A.F.1.0 . *X$XoX}.(.^.",
"XX.XoXXX  : 5X9Xw.9.D.1 X OX*X*X0XO $ <.m.v.v.N.v.M.N.n.N.N.V.V.b.b.N.F.z.C.u.9 X @X|.}.Q.E.",
"$X*X$X#X  e 7X7X1X..D.4.  OX#X$XoX  r i.j.M.M.N.N.N.N.N.N.N.N.M.v.v.z.f.C.x.x.=.# .X@X.X X.X",
".X_.XX$X  2 7X7X7XS.0.4.  $XXXoX    ] i.d.m.z.N.V.N.m.N.N.N.N.N.M.G.| t t.z.x.d.8 + /..X#XoX",
"`.^.XX$X  & 5X7X4X4Xe.9.3   +XQ.    p ;.d.m.M.m.M.N.N.N.N.N.N.M.M.v.< > 3.x.k.j.9 @ `.}.}.`.",
"_./.).}.. o >X9X4X6X4X9.w.: ).}.  o y #.2.d.z.z.m.N.N.N.N.H.V.M.N.t.& 8 p.l.x.j.> = #X X}.XX",
"`.}._.~.).  4.3X1X1X7XH.3Xf       o  .:.-.;.d.l.m.m.M.S.S.S.G.G.H.t.- _ h.l.C. .o ^.@X}.@XXX",
" XoXXX X|.  o.3X,X1X1X3X8XX.        ' 7.&.-.p.f.l.z.[.R.R R Z :X,Xb.$.2.a.z.<.- ~.$X.X^.^._.",
"XXOX`.! K.  ; D.<X,X<X1X4X]         , ..-.-.:.2.w.Z B G P P K G ^ S.z.a.k.<.- }.^.}._._.@X|.",
".X}.'.$XE.d . r H.<X3X2XJ.a     0 :   < *.%.&.o.S N b M U Y I U F 7 r q q # (.(.@X).E.Q.#X$X",
"^. X_. X#XOX X  0 9.9...p :   r k.9.e   0 =.{ 3 c N b l F T I U P k + .   + }.}.|.*X.X_./.`.",
"~.T.).XXE.^.0X+X    $ o     ; ;.a.g.i.a . 2 4.7 5 n n n v J Y U L x *     #X^._.(.`.(.+X{.W.",
"XX`.).).(.oX+XoX}.W.        { r.;.u.g.A.O.; ) { 4 k m D v n T T L m ( s   .X(.`.oXoX}.(.}.{.",
".XOX&X=X-X$X$X$X$X|. XQ.    ' :.*.;.a.C.Z.7.} @.%.3 6 F D J J L J ( wXwX& $X@X`.}.).W.W.C I.",
"OX{.+X+X`.`.`.^.}..X.X}. X  1 &.:.:.,.3.Z.Z.g.,.:.%.> 5 A H A z / %XqXj   XX*X_.R.Q d ! L.h ",
"T. XXX).^.).$X`.Q.Q.}.{..X Xo y ;.-.` 8 9 ` #.8.8.g.y   o X .   o X O    XoX*X&X].^.h ! oX X",
"/.).#X`.^. XQ.!.(.Q.+X$X}.^.  o , ;   . o   , ) ;.6.< . O o @X@X@XXX$X`.^.$X;XXX|.|.^.Q.`..X",
"XX).T.~.(.&X_.~ Q.{.+X|.W.(.).      $X}. X&X+   # o OX_.!.]._.R.}.OXoX`.R.Q.@X#X$X@XW.).#X`.",
".X).^.).^.XXXXXX.X$XoX(.}.}.I.W E..X`. X}.oX0X$X XY.~.T.^._._.^.|.$X}.`._.`.R._.|.$XoX}.`.Y.",
"+X|._.E.R.`.E.(.$X+X.XoX&X*X(.Y.}._.~ W /.}.`.oX$X$X.XXX}.oX$X#X#XoX^.(.E.`.W.! ^._.`.@X.X.X",
"$XoXoX$XQ.`.oXoX&X&X`.E..X$X$X(.E.E./.^./._.Q.|..X}..X#X=X+X*XoX}..X X(..X}..X}.`.|.Q.R.L.^.",
"E.}.(.).@XoX$X0X0X$X}..X|._.).)..X}.Q.|.$X*X.X_.`.Q.E Q `.-X.X#X$X.X|.W.R..X+X.X`.*X;XQ.^.].",
"Q.}.@X(.|.@X}.$X*X.X}.#X@X$X$XQ.`.#XXX{.$X-XoX/.`.E.Q ~ ^..X`.XX#X.XoX@XQ.).0X$X@X@X|.#X X X",
"-X XU.W.(.oXW.Q.-XQ.Y.W.{..X$X$X$X|. X{.`..XoXQ._.$X X`.E.Q ^.`.E.].*X$X}.oX$X$X|.|.`.^._. X",
"+XoX}. X}.}.$X|.|.+XW.W.W..XoX}.(.}.W.}.`.`.XX}.E.XX-X-XOXW.(.XX.XE.}.#XQ.E.(.@X|.(.E.^.^._."
};
