/* XPM */
static char *result[] = {
/* columns rows colors chars-per-pixel */
"46 46 235 2 ",
"   c #020101",
".  c #0B0101",
"X  c #01020B",
"o  c #0A0A05",
"O  c #140301",
"+  c #1A0D00",
"@  c #190A03",
"#  c #19140A",
"$  c #000112",
"%  c #02021C",
"&  c #090916",
"*  c #0B121A",
"=  c #171817",
"-  c #160E13",
";  c #241602",
":  c #331505",
">  c #272319",
",  c #312A1E",
"<  c #050926",
"1  c #0C1424",
"2  c #000332",
"3  c #020B35",
"4  c #091636",
"5  c #111A38",
"6  c #141927",
"7  c #291725",
"8  c #10222B",
"9  c #393526",
"0  c #3A322B",
"q  c #771400",
"w  c #5E2C01",
"e  c #52360A",
"r  c #682B01",
"t  c #703202",
"y  c #423D31",
"u  c #403A29",
"i  c #5D4802",
"p  c #7C5304",
"a  c #6C4C04",
"s  c #4B483C",
"d  c #594D3A",
"f  c #554E2D",
"g  c #000C44",
"h  c #000C48",
"j  c #061846",
"k  c #040B57",
"l  c #031756",
"z  c #261A5F",
"x  c #122850",
"c  c #273C58",
"v  c #0B136A",
"b  c #123678",
"n  c #10306B",
"m  c #263876",
"M  c #24266F",
"N  c #4D3B40",
"B  c #16407C",
"V  c #2A4C77",
"C  c #2F535C",
"Z  c #4D4E44",
"A  c #5A5548",
"S  c #5D5A53",
"D  c #565451",
"F  c #524E42",
"G  c #645A44",
"H  c #58614D",
"J  c #64654E",
"K  c #676355",
"L  c #786E52",
"P  c #43607A",
"I  c #6D6E63",
"U  c #727470",
"Y  c #4F5667",
"T  c #8A3C03",
"R  c #932300",
"E  c #A43800",
"W  c #AB2A00",
"Q  c #854501",
"!  c #844814",
"~  c #B34F07",
"^  c #BB7100",
"/  c #A96B04",
"(  c #B2743B",
")  c #C75601",
"_  c #DA7A00",
"`  c #C77D00",
"'  c #E27700",
"]  c #826F69",
"[  c #B5840A",
"{  c #CA8700",
"}  c #CF890B",
"|  c #EC8C00",
" . c #EB8700",
".. c #F28B00",
"X. c #EA9901",
"o. c #F19C00",
"O. c #F99900",
"+. c #DAA901",
"@. c #EDA401",
"#. c #E9AB00",
"$. c #FDA700",
"%. c #E6B800",
"&. c #F4BE01",
"*. c #F9B600",
"=. c #ECC801",
"-. c #FAC801",
";. c #FAD501",
":. c #FFE003",
">. c #8E8D7B",
",. c #8B8474",
"<. c #928D7D",
"1. c #93917D",
"2. c #999478",
"3. c #A29B7E",
"4. c #A18479",
"5. c #B0A457",
"6. c #C9B773",
"7. c #123796",
"8. c #0F3CA6",
"9. c #194386",
"0. c #164599",
"q. c #294999",
"w. c #24539C",
"e. c #2B4B86",
"r. c #2D6A9B",
"t. c #164AB0",
"y. c #1A56A8",
"u. c #394EAE",
"i. c #2659AA",
"p. c #2559BB",
"a. c #2B47A5",
"s. c #3368AA",
"d. c #66729B",
"f. c #446DBD",
"g. c #7179BB",
"h. c #4C7894",
"j. c #1E38C1",
"k. c #295CC7",
"l. c #3C5DC3",
"z. c #3868CA",
"x. c #3669D6",
"c. c #3776D8",
"v. c #2E72C9",
"b. c #3B7BE6",
"n. c #3879F3",
"m. c #4271CB",
"M. c #4877D7",
"N. c #597ED5",
"B. c #4D72C3",
"V. c #4476E7",
"C. c #3B82D5",
"Z. c #3D86E1",
"A. c #3C8AFC",
"S. c #2981FE",
"D. c #4381D6",
"F. c #4B8ED1",
"G. c #728FCC",
"H. c #568EE9",
"J. c #4888F8",
"K. c #558CFA",
"L. c #4B93FD",
"P. c #4798FF",
"I. c #5494FD",
"U. c #5B96FE",
"Y. c #549CFE",
"T. c #5C9BFE",
"R. c #4A8DE5",
"E. c #668EFB",
"W. c #6396FE",
"Q. c #639AFE",
"!. c #6B9BFE",
"~. c #6997FF",
"^. c #6C94F0",
"/. c #58A3FF",
"(. c #64A3FE",
"). c #6AA1FF",
"_. c #63A9F8",
"`. c #77A6FD",
"'. c #79B4FE",
"]. c #70B1E9",
"[. c #969381",
"{. c #9A9584",
"}. c #9D9A85",
"|. c #9E9A8A",
" X c #989788",
".X c #9C9A91",
"XX c #8A8C8B",
"oX c #A39C85",
"OX c #A29D8C",
"+X c #A59B88",
"@X c #A49F90",
"#X c #A89F91",
"$X c #A5A285",
"%X c #AAA285",
"&X c #A5A18D",
"*X c #AAA38D",
"=X c #ACA98C",
"-X c #A7A88B",
";X c #B2AA8B",
":X c #B6AA82",
">X c #A6A292",
",X c #ABA594",
"<X c #ADA995",
"1X c #ACA699",
"2X c #AEA999",
"3X c #A5A999",
"4X c #B1AB96",
"5X c #B2AB9B",
"6X c #B5AB9B",
"7X c #B4B19D",
"8X c #BAB198",
"9X c #BAB48B",
"0X c #B4AEA2",
"qX c #B1ADAA",
"wX c #B6B0A1",
"eX c #BCB3A3",
"rX c #B4B8A4",
"tX c #AFAAA2",
"yX c #CBA683",
"uX c #E6BF82",
"iX c #C2B9A8",
"pX c #DCC283",
"aX c #E5C485",
"sX c #CDC2B4",
"dX c #879ADE",
"fX c #8BBFFB",
"gX c #98B6D3",
"hX c #BFC6DA",
"jX c #9CC8FF",
"kX c #B3D0F8",
"lX c #E2DDEE",
"zX c #C4E1FF",
"xX c #E6E3E8",
"cX c #E8EAF6",
"vX c #FCFAF5",
/* pixels */
",X>X>X>X&X>X>X>X>X,X,X<X1X2X<X<X3X,X=X>X<X1X<X2X<X<X2X2X4X4X7X3X,X<X<X<X2X2X,X,X-X|.OX@XOX@X",
",X>X>X>X&X&X>X>X>X>X>X>X<X1X1X,X,X,X>X&X,X1X2X4X,X,X2X<X<X4X<X<X<X1X2X2X2X1X,X3X>X&X@X&X@X-X",
">X,X@X.X|.&X&X>X&X&X&X>X,X>X,X,X,X,X,X,X<X4X<X<X<X,X,X<X<X7X<X4X7X<X2X2X2X2X<X,X<X3X3X>X,X,X",
",X,X@X@X>X>X&X&X&X|.|.|.&X>X>X,X-X,X2X,X<X<X<X3X=X-X,X,X<X7X<X<X2X2X2X,X0X<X2X<X1X,X<X<X,X1X",
",X3X>X>X>X@XOX|.|.&X|.{.{.{.OX&XOX3X<X,X,X<X,X=X$X-X$X-XOX-X-X>X,X,X<X<X<X2X2X2X<X<X5X2X2X2X",
",X3X>X,X>X>X>X|.OX&X|.[.1.{.OX&X@X&X,X,X&X-X$X&X$X$X X XOX}.|.|.}.}.&X>X>X<X2X2X5X5X5X5X2X2X",
">X>X,X,X,X>X>X>X>X|.{.{.{.&X>X>X>X>X>X<X<X&X,X-X9 9 3X$X X{.1.1.1.1.{.OX>X4X7X2X5XwX5X5X0X5X",
"OXOX>X.X>X>X>X>X>X>X|.&X>X>X,X,X,X,X,X4X4X=X-XF 4 $ s 3X X1.>.>.1.1.1.OX>X4X2XwX7X5X0X7X2X2X",
"OXOX@XOX#X1X,X@X>X@X>X1X1X5X2X2X5X<X<X<X<X-X0 $ t.y.X y |.XX1.1.1.{.}.|.>X<X2X2X2X<X0X0X2X2X",
"}.}. X|.@X#X#X>X>X@X>X1X1X5X7X7X<X4X=X=X<Xs   l k 7.B $ Z .X>.1. X$XOX-X>X,X2X2X2X3X7X2X2X2X",
"<.[.[.{. XOX@X#X>X@X>X,X1X1X5X7X<X=X-X<XI X k t.j 2 p.9.X I {.>.2.}.&X>X,X,X5X2X2X2X2X2X0X2X",
"{.[.,.[.{.|..X@X@X&X>X,X,X,X<X4X4X*X-X,X, $ t.c.1 < p.y.< 9 {.2.}.OX&X,X3X1X2X5X1X2X0X2X0XwX",
"+X{.[.[.[.+X|.@XOXOXOXOX&X&X>X,X*X=X=X<.. 2 x.M.* < p.p.3 > 2.$XoX&X&X>X3X1X1X2X2X2X2X0X7X5X",
"+X X{. X X.X@X|.|.}.{.}.oXOX&X*X%X>X8X]   g c.M.* % m.c.2 > 2.OX-X<X>X>X,X,X1X1X1X2X2X2X7X2X",
"+X XOX.X#X#X#X@X|.}.1.1.}.}.OXoX-X9X9X2.X g x.M.* X f.R.3 > -X>X*X*X,X2X2X2X2X3X3X1X2X7X3X2X",
"@X@X#X#X#X#X@X.X|.{.{.{.{.oXoXoX$XL f f o h z.M.6   x V X > ;X=X=X,X5X7X2X7X2X1X,X>X>X3X-X,X",
">X>X>X,X1X<X,X>XOXoX}.}.2.oX$X$XG o       j v.m.*         # :X4X<X6X6X5X5X5X7X1X,X>X>X>X>X,X",
",X,X,X2X5X0X1X<X,X&XoXoX&X}.-XA   X &     4 c.D.1     X *   J 8X1X6XwX6XwX5X2X1X3X,X>X>X3X>X",
",X1X5X2X5XwX0X5X4X,X-X*XoX%XJ   j y.i.5   4 C.F.8   X w.v.3   G 0XtX2X5X0X5X1X1X>X>X>X>X<X,X",
",X,X5X5X2X2X7X6X6X,X<X&X,XK   j A.P.L.e.o = s.r.-   n S.n.k.5   S qX3X5X5X5X1X,X>X&X>X>X,X,X",
"1X1X,X,X1X4X1X,X<X*X>X4XS   < b./.P./.f.    h.P O X k.A.b.n.x.4   S qX>X4X4X5X1X1X,X,X3X>X,X",
"4X1X,X>X,X4X,X<X&X-X4XS     w./.L.Y.I.I.V X c C   M V.L.A.n.A.w.    S 0X3X<X2X6X2X2X2X,X,X,X",
"5X4X5X1X,X,X*X-X=X<XA     < b.T.I.U.I./.L.x.u.7.a.I.I.K.J.J.A.0.X     Z 0X,X5X5X2X2X5X,X>X,X",
"5X5XwX4X,X*X<X-X8XA   : . x T.T.I.T.W.T.T.~.!.E.T.Q.U.U.L.J.P.m   O     F 6X,X4X5X5X7X1X<X2X",
"5X5X6X4X,X4X=X;Xd   p o.` d _.T.U.T.Q.).W.W.W.W.~.!.!.).U.L.V.N T ~ Q ;   s wX>X4X0X5X5X0X4X",
"4X1X<X,X,X<X7XF   . ^ $.-.@.XX_.U.Q.U.U.!.W.W.Q.!.E.!.J.H.Y.g.~ -.*.$.r     A 7X1X2X5XwXwX5X",
"4X4X1X*X3X7XS   . . Q o.&.;.} F.I.H.M v W.~.W.Q.!.^.z k z.].<.' =.-...q       S wX1X2X5X4X5X",
"1X4X,X,X7X[.o   . : R @.-.;._ d.T.^.6 $ M./.W.!.).^.% 2 m.].( ..=.;.| W w o     <.eX7X2X2X1X",
"6X4X,X,X7XU     e ^ E #.;.:._ U _.N.- < J.T.T.T.Q.E.< 3 D.G.~ O.=.;.X.) } e   - {.8X1X>X1X4X",
"1X4X,X,X>X}.s o i { E @.;.;...L ].f.X a.Q.T.T.I.T.^.k v H.G.~ $.=.=.X.) ` a   G 0X#X>X>X>X>X",
"#X#X,X*X+X*XrXA X ; r | &.-...! gXN.u.!.).T.T.Q.U.Q.M.j.!.g.) #.%.%.| E t + > *X,X#X>X>X>XOX",
",X#X>X#X*X-X=X|.o X w X.#.*.X.T U dXkXfX'.'.`.`.`.`.jX^.l.d.[ #.@.O...t     L 8X*X#X>X#X@XOX",
",X#X#X,X#X#X#XtX0   / *.%.+.! + X Y kXzXcXxXxXlXcXvXvXhX4   ; p } O.| Q   = =X+X&X&X@X@XOX|.",
",X#X#X4X,X1X,X0XI   a X./ :     X X 7 ] yX6.aXpX6.5.5.0         w / / ; X ,.4X}.@XOX X X{.{.",
"#X1X6X1X,X1X4X1X2XH   +       1 9.n <   @ + + + @ .     k q.x   X o   o K 8XOX@X@XOX[.>.<.[.",
",X#X1X6X1X6X6X4X>X1XD = = = > % s.Z.r.x 5 X . X % 3 x 7.k.V 6 - = = 0 ,.8X,X,X>X|. X[.[.<.<.",
",X,X4X1X,X1X1X#X#X+XtX1X3X1X<Xs   l p.Z.C.w.5 % 8.V.D.c.b   f ] {.>XeX5X,X,X1X>X#X X[.[.[.[.",
",X,X,X1X1X#X#X1X#X,X1X1X1X&X%X-X,   j b B n 1 < b i.i.3   K :X%X;X4X>X,X,X1X1X1X#XOX X{.[.{.",
"1X1X1X1X,X#X1X#X4XwX5X3X<X>X-X$X2.s   $ X   e A . % $ X J %XoX%X;X4X4X1X1X1X1X1X#X#XOX|.OX X",
"1X1X1X,X4X6X,X6XiXeX2X,X5X<X>X+X$X2.G , , L :X:XL 0 > K %X3.*X4X6X4X5X5X,X,X1X#X#X1X#XOXOXOX",
"6X1X1X<X<X<X6X6XiXiX,X,X3X,X,X+X%XoX2.2.oX;X;X+X3.+X{.oXoX+X<X1X6X6X4X1X<X<X<X1X>X1X,X>XOX&X",
"1X6X<X<X1X6X5XiXsXeX1X4X,X#X>X,X*X+X+X*X,X;X*X+X+XoXoXOXoX,X6X6X4X1X1X1X<X1X1X4X1X1X,X>X>X>X",
"<X6X4X1X4X6XeXiXsXeX1X1X,X,X,X>X*X#X*X=X*X,X4X#X+X{.oX+X%X*X1X6X6X1X1X1X6X6X5X6X0X4X1X>X>X,X",
"6X1X6X1X6X6XeXiXsXwX,X1X3X,X,X1X>X*X,X*X;X,X*X,X+X+XOX%X+X>X1X6X6X1X5X2X6X6X5X0X6X1X<X,X,X,X",
"6X4X<X6X5XeXeXeXiX1X,X4X,X,X4X4X,X*X<X4X<X6X,X,X#X+X*XOX+X#X,X1X1X5X5X5X5X5X0X7X5X1X1X<X,X,X",
"6X<X4X1X6XiXiXiXiX5X4X1X,X1X1X1X,X,X,X*X<X,X<X>XOXOX*X>X#X#X1X5X1X5X0X5X5X7X5X5X5X5X4X,X,X,X"
};
