/* XPM */
static char *result[] = {
/* columns rows colors chars-per-pixel */
"46 46 213 2 ",
"   c #010101",
".  c #0B0101",
"X  c #02040C",
"o  c #090908",
"O  c #150107",
"+  c #150B03",
"@  c #1B0D01",
"#  c #19150A",
"$  c #010113",
"%  c #01031B",
"&  c #060B1C",
"*  c #0B111D",
"=  c #181615",
"-  c #250705",
";  c #321805",
":  c #352807",
">  c #010224",
",  c #020826",
"<  c #010A34",
"1  c #00043A",
"2  c #03083B",
"3  c #110D30",
"4  c #051639",
"5  c #121E39",
"6  c #421B08",
"7  c #492E0C",
"8  c #6F3300",
"9  c #474716",
"0  c #764F07",
"q  c #57443A",
"w  c #654D36",
"e  c #010244",
"r  c #010E45",
"t  c #00004B",
"y  c #071749",
"u  c #121C4B",
"i  c #041B57",
"p  c #14264B",
"a  c #293944",
"s  c #243558",
"d  c #0D356F",
"f  c #1B356B",
"g  c #193874",
"h  c #4B2C5B",
"j  c #314E4B",
"k  c #124776",
"l  c #2E4C68",
"z  c #695E54",
"x  c #746B5C",
"c  c #4B596C",
"v  c #756F62",
"b  c #7C7562",
"n  c #606D72",
"m  c #8E5107",
"M  c #8A5406",
"N  c #A85E01",
"B  c #9E6802",
"V  c #8F7212",
"C  c #A86E06",
"Z  c #A07200",
"A  c #BC7801",
"S  c #855E23",
"D  c #C25F01",
"F  c #C77600",
"G  c #D77903",
"H  c #847C6B",
"J  c #847E71",
"K  c #AF8A08",
"L  c #968C3E",
"P  c #A59336",
"I  c #BDA220",
"U  c #CA8901",
"Y  c #D18A00",
"T  c #DD8800",
"R  c #CD9401",
"E  c #DD9400",
"W  c #D79901",
"Q  c #E18801",
"!  c #E69900",
"~  c #F49E01",
"^  c #F9A701",
"/  c #E8B704",
"(  c #F9B700",
")  c #ECC400",
"_  c #F4CE00",
"`  c #FCD403",
"'  c #FDDC03",
"]  c #F2D80D",
"[  c #908C47",
"{  c #979757",
"}  c #88826F",
"|  c #959868",
" . c #8B8474",
".. c #8D8677",
"X. c #948B78",
"o. c #938C7D",
"O. c #95917E",
"+. c #98907C",
"@. c #C3C54D",
"#. c #CCCD57",
"$. c #D8D475",
"%. c #DCDA7C",
"&. c #1C398F",
"*. c #293B8F",
"=. c #1D3EA1",
"-. c #134B8A",
";. c #284887",
":. c #2A4797",
">. c #2C589C",
",. c #164DAC",
"<. c #1B58B7",
"1. c #2D57AD",
"2. c #375AB6",
"3. c #2561BA",
"4. c #4F6FAD",
"5. c #1956CA",
"6. c #2758C8",
"7. c #0867C8",
"8. c #096ED7",
"9. c #3B6BCB",
"0. c #2C69D4",
"q. c #3868D8",
"w. c #3677D2",
"e. c #1567EB",
"r. c #1175EE",
"t. c #376CE6",
"y. c #3B7EE6",
"u. c #2D6EF3",
"i. c #2B78F5",
"p. c #3579F3",
"a. c #425EC8",
"s. c #4D6FC5",
"d. c #466DD9",
"f. c #4C77E7",
"g. c #447EF8",
"h. c #597DF0",
"j. c #2791D8",
"k. c #1E86FB",
"l. c #388BEE",
"z. c #2983F8",
"x. c #3686F7",
"c. c #338FF6",
"v. c #5285D6",
"b. c #6195D7",
"n. c #7B9EDE",
"m. c #4D87E9",
"M. c #568AE5",
"N. c #468BF7",
"B. c #438DF6",
"V. c #588AF6",
"C. c #4894F8",
"Z. c #5B94F6",
"A. c #5392FC",
"S. c #5B94FB",
"D. c #529BFE",
"F. c #5C9BFD",
"G. c #648EF2",
"H. c #6395F6",
"J. c #6897F6",
"K. c #649AF7",
"L. c #6999F6",
"P. c #6395FA",
"I. c #6A97F9",
"U. c #659CFD",
"Y. c #6C9BFC",
"T. c #719CFC",
"R. c #51A0FF",
"E. c #63A1FF",
"W. c #6BA1FE",
"Q. c #75ADF3",
"!. c #978E82",
"~. c #979184",
"^. c #9B9484",
"/. c #9C9887",
"(. c #9D9689",
"). c #9F998A",
"_. c #A49B8A",
"`. c #A39C8D",
"'. c #A59E91",
"]. c #A89F93",
"[. c #A5A18E",
"{. c #A9A48E",
"}. c #A6A192",
"|. c #AAA394",
" X c #ADA896",
".X c #ADA699",
"XX c #AEA99A",
"oX c #B1A897",
"OX c #B0A799",
"+X c #B2AB9D",
"@X c #B6B19F",
"#X c #B8B09F",
"$X c #AFA9A0",
"%X c #B4AEA1",
"&X c #B8AFA4",
"*X c #B6B1A3",
"=X c #B9B3A5",
"-X c #BDB8A7",
";X c #B7B3A8",
":X c #BCB6AA",
">X c #BEB9AC",
",X c #BEB9B1",
"<X c #C0B7A9",
"1X c #C2BBAD",
"2X c #C3BDB2",
"3X c #C6C0B4",
"4X c #C9C2B6",
"5X c #CBC5BA",
"6X c #CEC9BF",
"7X c #D1CABD",
"8X c #81A6E3",
"9X c #CDCDC4",
"0X c #D2CCC2",
/* pixels */
"*X=X@X=X[.).XXXX[.`. X@X=X*X+X{.+X@X/.`.XX;X=X*X/.).%X.X;X;X XX.^.XX>X;X:XXX[. X X[.+X*X*X*X",
"^. X X{.*X/.+X2X@X|.+X2X3X1X=X@X+X{.`.|.}.'.+X=X-X|.@XXX;X+X@X@X@X*XXX X:X3X;X^.^. X .~.-X[.",
"{.{._.X.~.). X>X3XXX^.XX1X1X-X-X*X`.*X2XXXXX>X;X[.;X X:X3X3X*X-X*X@X{.[.:X3X3X-X|.*X}.H /.>X",
"=X@X[./.}./.'.).).|.`./.@X@X+X+X-X>X&X:X>X,Xi r }.'.|.|.XX*X*X>X5X;X*X[.:X:X[. X-X-X3X4X+X*X",
"-X4X2X-X:X.X/./.(.).}.o...^.`..X.X.X.XXX>X> 5.0.> XXO.`.@XXXXX;X9X6X@X-X%X1XXX..|.-X|.*X:X*X",
"1X1X3X-X X|.|.;X>X=X[.b H ..(.`..X`..X}.}.t 6.w.2 @X@X}.@X^.@X*X{.*X X{.%X%X2X:X`.@X>XXX}.[.",
".XXX+X+X+X|.XX%X+X5XOX+.H +.].$X).).).%X>Xt 6.t.e XX:X-X X{.O.O.b X.XX.X.X|.2X>X>X3X>X*X X}.",
"o._.+X}.XX*X-X;X|.|.#X2X2X2X2X9X%X}.'.].1Xt q.t.e XX*X3X;X^.O. .b v ).}.`.%X<X-X3X5X,X>X*X[.",
"XX|.|.:X:X&X;X2X=X+XXX.X<X%X-X1X|.'.>X>X'.t d.h.1 =X2X3X5X .z ..`.XX;XXXXX X[.oX+X*X>X:X=X=X",
"%X].~..X:X`.^.|.|.`.2X-X2X5X>X>X$X'.).=X|.t d.f.> _.&X%X%X>X].(.~.).>X2X*X*X%X+X .}.>X*X).[.",
"`.}.).(.$X%X|.OX].`.OX2X4X4X4X4X%X:XXX*X%Xt f.d.> +X=XOX)..X$X9X,X`.>X,X>X;X1X:X`.`.*XXX+X X",
"!.b /.).%X>X-X%X'._._.OX|.&X-X=XXX|.=X5X  1 h.s.%   '.+X:X$X.X,X,X,X;X$X;X;XXXXX*X%X*X-X3X:X",
"2X,XJ x } [.:X2X+X'.'.(.(.'.+X*X|.~.!.    1 h.s.$     1X*X:X2X2X.X;X;X$X}.&XXX`.*X'.`.*X3X4X",
".X'.} ~.)..X>X*X$X'.%X&XXX|.*X;X$X'.    % *.G.M.f % X   :XXX'.).~.!..X'.,X2X'.(.%X2X%X-X=X+X",
";X$XXX.X%X;X`.XX:XOXJ `.%X'.+XXX    y :.a.h.G.P.V.q.,.u     &X.X.X}..X;X:X%X%X(.%X*X|.%X1X-X",
",X;XXX$X;X;X|.}.'.].v v ).%X+   y 2.G.Y.U.J.J.P.Z.V.A.N.;.,   o $X].~.].5X,X;X%X%X:X&X%XXX-X",
"'.].|.XX;X2XXX+.^.'.]..X}.o 2 2.V.Y.P.L.J.L.T.J.J.H.H.S.A.q.&.%   .X+X=X2X0X2X=X&X%X`.!._.|.",
"%XXXXX1X2X>X-X-X&X<X4X5Xo % d.W.J.H.L.T.T.I.T.T.L.I.I.P.V.A.F.>.    :X2X%X%XOX.XOXXX'.!.}.[.",
",X>X&X;X2X5X4X3X5X-X-X    y V.Y.U.U.Y.T.T.Y.I.T.Y.Y.J.I.H.Z.S.0.>     ;X>X4X%X^.`.`.'.#X2X5X",
"$X%X1X2X1X-XOXXX2X-X      *.S.U.U.W.W.T.T.T.T.I.T.T.Y.I.F.S.Z.6.3 @ o   =X1X<X=X|.|.(.`.&X-X",
"|.`.`.XX=XOX+X:X>X  ; S 7 =.W.U.U.W.Y.Y.T.T.T.T.Y.T.Y.I.H.S.D.<.- D C 7   XX].&X2X1X:X=X>X%X",
"*X}.|.].].XXoX=X  M ) ] U k W.Y.Y.W.T.T.T.Y.I.Y.Y.U.L.K.P.S.R.:.8 ~ ^ ^ 0   &X&X5X2X-X%XXX|.",
":X:X-X-X|.+X=XX 0 ] ' ` ^ w E.W.U.U.T.Y.T.Y.Y.Y.Y.I.U.L.S.S.C.h A ) / ( ( V o ;X&X-X&X%X'.`.",
"2X2X2X1X_.|.-XX I ' _ ` ( S b.W.Y.E.W.Y.Y.Y.Y.T.Y.Y.P.G.S.D.z.q E / ) _ ( Y 6 |.=X=X1X&X=X=X",
"-XOX>X1X;X$X&X+X; K ( ) ^ m 4.Q.P.U.Y.U.Y.W.W.Y.Y.I.P.S.S.N.z.w T E R R M ; 3XXX'.+X|.&X1X-X",
"+X].-X2X:X,X;X.X  8 W ( ~ N ;.E.S.U.U.Y.L.I.L.I.I.P.Z.D.y.8.j.q G T G G 0   &X1X1X=X+X%X%X+X",
"oXXXXX%X'.|.3Xo [ / ! ^ ^ A a N.A.A.S.P.U.H.H.K.K.Z.D.f.7.8.j.q F W Y G T K # .._.%X2X%X%X-X",
"+X%XXX[.OXOX-X  9 ] W E Q Y ; 3.A.g.A.V.S.F.K.U.F.C.p.e.e.r.7.j Z R W ! ^ C    X_.].<X%X1X=X",
"&X-X-X=X&XOXXX-X  0 U T T G 6 i g.N.A.D.R.D.9.2.9.z.r.z.k.7.< o : B R U m O ;X`.].1X=X|.|.oX",
":X>X+Xo.!.`.%X=X*X. 8 Z N M -   :.4.-.d g 5 O - 5 -.-.k d 5 -     @ : @   &X&XOX].#XoXOX<X#X",
"*X%X+X2X(.x !.OXXX+X  O O   -X=X#   a a   . V P +           O.XX        OX|.OXXX<XOX_.].1X3X",
"|.*XOX&X2X1X&X.X*XOX*X=   >X+Xo.  f Q.b.$ - #.@.+   X * =   }. X=X  = |.-X1X%X%X&X5X&X+XXXOX",
"}.).XX=X(.XX9X,X|.|.|.>X%X%X,X  d y.m.v.$ @ #.P o * 1.j.v.a   '.%XXX].].1X<X].XXXX$X$X<X$X'.",
">XXXXXXX.X:X,X:X%X`.|.|.(.(.  2 i.B.m.M., @ $.L o u l.m.l.>.    XX-X^.'.].:XOX%X:X<X$X.X&X$X",
"*X,X3X5X5X2X2X2X,X:X%X'.^.(.  r x.B.N.m., @ %.[   p p.l.l.<.$ . ].:XOXOX2X2X1X%X$XOX'.`.J (.",
";X$X2X,X+X+X+X|.%X=X=X%X&X4Xo 2 p.B.B.A.r @ %.{   2 u.i.z.5.,   OXOX%X6X:X<X2XoX_.o.x o.!.b ",
").*X:XXX|.XX2X+X].].$X$X=X;X,X$ 6.c.c.C.y + -X{   2 u.x.z.<.X o +X|.]..X&X:X4X2X#X].b o.-X&X",
" XXX1X+X|.*X|.'.$X].,X2X%X|..X  y 0.x.x.4 + { |   % ,.5.,.<   1X1X<X2XOX|.1X7X=X&X#XoX].OX=X",
"-XXX).[..X4XoX+.].OX2X&X'.$X.X(.  % p s o   c n   o * $   + +X_.%X1X:X%X`.].1X1X2X=X`.OX1X+X",
":XXX|.XX|.=X-X-X:X2X:XOX$X$X~...`.*X      & n.4.X o . . }.XXXX|.%X2X%XOXOXoX`.oX=X2X:X%X%X(.",
",X;XOX`._.%X`..X2X>X=X-X2X4XXX~.%XOX+. .  % 8X8X&   =X=X%X1X2X-X2X-X|..X'.+X`.!.OXOX&X-X&X=X",
"2X:X:X2X].+X:X;X2X3X#X`.:X2X2XXX_.`..X|.|.o p l   +X=X1X5X2X2X:X%X=X%XXX=X+X:X$X+X&X]._.!.|.",
"`.%XOXOX:X:X2X0X0X2X&X%X&XOXOXOX=X%X].&X1X4X+   oX|. .X.%X5X=X1X1X=X&X`._.&X2X:X+X4X5X'.].=X",
"'.%X<X|.&X1X&X2X5X=X%X1X1X2X2X].%X1X-XOX4X5X-X|.+X`...+.].&X+X1X1X=X:X1X'.+X5X2X1X<X=X1X#X#X",
"5X*X).'.OX<X'.].2X.X(.'.$X;X1X2X2X&X;X$X$X*X>X}.OX2X*XXX`.X..XOX`.&X2X2X%X-X2X1X&X&XoX|.OX=X",
">X;X%X%X$X&X2X&X:X:X'.`.'.;X:X&XXX%X'.$X+X%X-X%X_.<X5X5X>X'.|.-X=X`.=X1X|.`.XX,X&X.X`.].|.+X"
};
