/* XPM */
static char *result[] = {
/* columns rows colors chars-per-pixel */
"46 46 227 2 ",
"   c #010101",
".  c #090301",
"X  c #0B0807",
"o  c #02030B",
"O  c #0A090C",
"+  c #130A05",
"@  c #19110F",
"#  c #010414",
"$  c #05061A",
"%  c #16151B",
"&  c #221D15",
"*  c #2D231D",
"=  c #030A27",
"-  c #120D2C",
";  c #081228",
":  c #16182B",
">  c #010D38",
",  c #071637",
"<  c #1C242D",
"1  c #2F312B",
"2  c #232B38",
"3  c #471812",
"4  c #54290C",
"5  c #375016",
"6  c #6D4B0A",
"7  c #75652B",
"8  c #061B48",
"9  c #081B54",
"0  c #092445",
"q  c #17274B",
"w  c #0B2752",
"e  c #143355",
"r  c #22354E",
"t  c #070F6A",
"y  c #102C68",
"u  c #293A66",
"i  c #1D4257",
"p  c #324756",
"a  c #12447B",
"s  c #274668",
"d  c #334A69",
"f  c #3C5163",
"g  c #33477E",
"h  c #3B657D",
"j  c #645144",
"k  c #727343",
"l  c #736B5B",
"z  c #666F6E",
"x  c #756F62",
"c  c #7C7562",
"v  c #863A00",
"b  c #9F3A00",
"n  c #CD3A01",
"m  c #BD5900",
"M  c #95690C",
"N  c #D54F00",
"B  c #D36B00",
"V  c #C87800",
"C  c #D97A02",
"Z  c #E46200",
"A  c #E87804",
"S  c #FF7802",
"D  c #847E71",
"F  c #A67B7F",
"G  c #ABBB26",
"H  c #D5870D",
"J  c #F78800",
"K  c #F6900D",
"L  c #E4AA00",
"P  c #F7A400",
"I  c #ECB700",
"U  c #DC8D30",
"Y  c #D8A625",
"T  c #FFC800",
"R  c #FDD701",
"E  c #F7E700",
"W  c #F2F201",
"Q  c #E0C42A",
"!  c #B88949",
"~  c #88826F",
"^  c #8C8675",
"/  c #928976",
"(  c #948C7D",
")  c #97917E",
"_  c #AB9570",
"`  c #C09C48",
"'  c #073A8C",
"]  c #1B37A0",
"[  c #175097",
"{  c #2B4A84",
"}  c #324D88",
"|  c #284F96",
" . c #2C5B9B",
".. c #365194",
"X. c #3D618D",
"o. c #1658AE",
"O. c #2657A7",
"+. c #265CB9",
"@. c #1762B6",
"#. c #3469AB",
"$. c #2965B4",
"%. c #3565B7",
"&. c #3875B8",
"*. c #45639B",
"=. c #425AB1",
"-. c #4A74B4",
";. c #155ECD",
":. c #166DD3",
">. c #2963C6",
",. c #356AC7",
"<. c #2769D2",
"1. c #2E7BD4",
"2. c #3675D6",
"3. c #1D70EB",
"4. c #2A76EC",
"5. c #367EE5",
"6. c #267BF6",
"7. c #4679D8",
"8. c #5174D2",
"9. c #477BE6",
"0. c #557CE6",
"q. c #467CF4",
"w. c #7F859E",
"e. c #4D8DB0",
"r. c #3A8FDC",
"t. c #368DEC",
"y. c #2A87FB",
"u. c #338AFB",
"i. c #2C92FD",
"p. c #3596FD",
"a. c #3B94FD",
"s. c #33A7FF",
"d. c #4C88CE",
"f. c #5893D9",
"g. c #6D95D1",
"h. c #5FA5D1",
"j. c #7CB1CC",
"k. c #4785EB",
"l. c #5689EA",
"z. c #469DEE",
"x. c #438BF5",
"c. c #4A89F7",
"v. c #4A83FB",
"b. c #538BF5",
"n. c #588CF8",
"m. c #4A97FB",
"M. c #5595F9",
"N. c #5C95FD",
"B. c #5C9BFE",
"V. c #6490E9",
"C. c #6394F4",
"Z. c #6998F5",
"A. c #6595FD",
"S. c #6B96FD",
"D. c #669BFD",
"F. c #6B9BFE",
"G. c #719BFE",
"H. c #4AA5FE",
"J. c #5CA3FF",
"K. c #5EBBFD",
"L. c #66A9EF",
"P. c #7AABEC",
"I. c #68AAF7",
"U. c #63A3FE",
"Y. c #73ABF4",
"T. c #6BB1FD",
"R. c #73B9FA",
"E. c #6DCCFF",
"W. c #72CAFE",
"Q. c #978E81",
"!. c #979283",
"~. c #9B9484",
"^. c #9C9887",
"/. c #9D9689",
"(. c #9F998A",
"). c #8E999F",
"_. c #A49B8A",
"`. c #A39C8D",
"'. c #A59E91",
"]. c #A89F92",
"[. c #A6A28E",
"{. c #A6A192",
"}. c #AAA494",
"|. c #ADA896",
" X c #ADA699",
".X c #AEA99A",
"XX c #B0A798",
"oX c #B2AB9D",
"OX c #B6B19F",
"+X c #B8B09F",
"@X c #8B93B2",
"#X c #9CA8BB",
"$X c #AFA9A0",
"%X c #B4AEA1",
"&X c #B8AFA4",
"*X c #B6B1A3",
"=X c #B9B3A5",
"-X c #BAB6A7",
";X c #BCB6AA",
":X c #BEB9AC",
">X c #BEB9B0",
",X c #C1BBAD",
"<X c #C4BDB2",
"1X c #D4D492",
"2X c #C6C0B4",
"3X c #C9C2B6",
"4X c #CBC5BA",
"5X c #CEC9BF",
"6X c #D1CABE",
"7X c #92A4C4",
"8X c #AEB9CB",
"9X c #8ABCF0",
"0X c #A8B6E2",
"qX c #ADC7D1",
"wX c #95C8F9",
"eX c #9ED6FB",
"rX c #B8D2ED",
"tX c #BAE2FF",
"yX c #CDCECE",
"uX c #D2CCC2",
"iX c #FAF4D8",
"pX c #C3DDF0",
"aX c #D0E8F0",
"sX c #DCE8F9",
"dX c #FCFAEA",
"fX c #E0EDF8",
"gX c #F9FEFB",
/* pixels */
"*X-XOX=X[.`..X X[._. XOX-X*XoX[.+XOX_.[..X*X-X*X^.(.%X X-X-X X( ^..X:X=X-X.X[. X|.[.oX=X*XOX",
") |.|.|.oX^..X2X*X|.oX,X2X,X=XOXXX[.`.}.{.[.oX=X-X}.*X.X*XoXOXOXOX*X.X|.:X2X=X^.~.}.~ !.,X_.",
"|.|.) / !.`. X:X2X.X~..X,X,X-X-X*X'.*X>X.XoX-X=X[.=X.X-X2X,X*X-X*XoX|.[.-X2X2X*X|.*X{.~ ^.,X",
"OX+X[._.{.^.(.`.(.{.[.^.oXOXOXoX;X:X*X-X:X:X.X X{.`.{.|.oX*X*X:X2X-XOX[.;X:X[..X-X-X2X2XoX*X",
"-X3X,X:X-X}.^.(./.^.{.( / !./. X}. X X X:X.X( '.-X X( `.OX|..X-XyX6XOX-X&X:X X/ }.=X{.*X:X*X",
",X,X3X-X X|.{.-X,X=X`.c c / /.`. X`. X{.}.*X}..X-X*XOX{.*X~.OX*X[.*X|.[.*X%X<X;X[.OX:X.X{.[.",
"|..X.XoX*X}. X%XoX3XXX) D ~.].$X_.^.`.%X>X-X:X%X{..X:X-X}.  . ) c / %X}.}.}.,X;X:X2X:X*X}.{.",
"~.^.oX{. X*X-X-X|.}.oX<X<X2X4X4X%X'.`.{.>X{.(. X X.X=X2Xo 0 ;   c x ^.}.(.*X,X;X2X4X>X:X*X{.",
".X}.}.-X>X*X=X2X*XoX.X X,X%X;X,X X'.:X;X`.}.}.}..X-X,X$ 2.x.<.y   oX*X X.X X[. XoX=X:X-X-X*X",
"%X'.!. X;X(.~.}.}.`.<X;X,X4X:X:X$X`._.=X}.~.oXXX'.`.  | M.x.c.k.{ o :X<X*X%X&XoX^ `.<XoX^.[.",
"(.'.(./.$X%X}.oX}.`.XX<X3X3X3X<X%X*X X=X%X`.;X,X,X+ ; 7.c.k.q.v.x.{ . <X:X*X<X-X`.`.*XoXoX}.",
"Q.D !.`.%X:X-X%X`./._.XX}.+X,X-X X X;X4XuX<X;X,XoX  d k.k.c.q.q.m.7.$ $X*X:X X X=XoX*X:X2X-X",
"<X>XD l ~ `.;X>X%X'.'./.`.`.oX=X X!.Q.^. XoX%X,X,X  g k.c.v.q.v.c.k.= %X{.&X X/.%X}.`.%X2X3X",
" X`.D !.'.}.;X*X$X'.%X&X X}.oX=X.X'.^.'.}.oX;X2X    { v.k.v.v.v.n.9.$ ].>X<X'.'.%X<X%X-X=XOX",
"-X$X.X X%X;X`.$X;XoXD /.%X'.oXoX{.*X;X*X}.'.,X      p b.n.q.v.v.n.=.o %X>X%X$X/.%X*X}.%X,X;X",
">X-X.X$X-X*X}.'.'.].x x `.%XoX*X.X$X>X;XoX`.        : *.8.0.n.n.n.u .   3X>X;X*X%X=X&X%XoX-X",
"`.{. X X:X<XoX( Q.].]. X'.}.%X=X.X X X'.!.  f <     : d u =.l.V.0.: . .   6X<X,X$X%X/.Q.`.[.",
"*X.X X:X:X-X-X-X&X,X3X3X5X=X=X=X;X'.~..X  i e.u ; g V.F.V.V.C.V.C.-.r $     $X].oXXX].Q.[.[.",
">X:X*X;X<X4X3X2X4X;X;X,X,X<X;X=X X}.=X  e &.#.%.0.S.F.F.F.Z.Z.G.Z.Z.N.k.O., . /.].`.].+X<X4X",
"$X*X,X3X,X-XoX X2X;X].}.Q.~.}. X}.oX  e &.O.&.l.A.C.C.G.S.Z.G.G.S.A.A.B.D.7.q . ].]./.`.=X;X",
"}.`.^.oX=XoXoX;X;X,X}.}./.(.,X X)   O -.&.$.l.C.C.A.S.F.S.S.F.S.S.S.S.G.N.B.k.8 + :X-X=X,XoX",
"*X{.].}.}.|.         XoXoX=X<X3X%X  u d.$.,.n.A.S.A.A.F.S.S.F.A.A.S.n.v.U.M.D.&.o <X;X%XoX}.",
";X=X;X;X[.  i h.e.2   %XoX,X3X3X6X  { ,.%.9.N.A.G.F.A.F.S.S.F.F.N.U.=.t l.B.B.l.> + &XoX'._.",
"2X<X3X,X(.  h.E.T.L.p   -X-X,X3X;X  } $.%.k.N.N.A.F.F.F.S.G.F.D.A.A.q # 7.J.U.n.9 + ,X&X=X=X",
"=XXX-X<X. = z.H.H.K.W.h   2X-X;X+ o | +.>.k.N.N.A.F.F.S.F.G.G.D.D.n.: - 7.B.U.b.8 +  X&X,X,X",
"oX[.-X<X  > 1.u.y.u.z.W.d   ,X`.. # O.+.>.k.c.n.N.A.S.Y.P.P.I.I.I.N.> t v.J.J.n.> & oX%XoXoX",
"oX.X.X%X  : rXpXrXP.:.:.t.w . =X  O  .@.>.2.k.m.M.Y.)._ _ ! F 7XP.z.] 9.B.A.D.0.$ &X,X+X%X;X",
"oXoXoX`.  % dXgXgXiXyX9XwXe.#       , @.<.4.t.k.g.! A J T T P K ! j.wXtXwX9X9X... ].,XoX,X;X",
"*X-X-X=XO o w.yXyXiXdXdXgXgX#XO       e <.6.t.w.U S N V E W E R A ` fXsXsXsX@XX }.,X;X}.}.}.",
"-X;XoX( X # d.$.+.d.0XfXdXgXgXz         0 #.h 4 V S N m E E E R A U iXsXgX8X$ +X}.oXoXXX,XoX",
"=X%XoX<X/.  &.E.a.u.t.c.f.j.tX^   O < :     1 7 v Z Z N B I R T J H 1XaX).#  X X,XoX_.].,X3X",
"}.*X.X=X<X  0 L.W.T.T.T.L.k.#X*   d L.f.X.e  .e.3 b C C n N K I L M k 1   ,X%XoX&X<X=XXX}.oX",
"{.(..X-X/. X  s R.eXtXtXtXeX1   ; d.H.m.H.H.a.i.&.* v V P K H H 6 @ .   ,X,X]. X X$X].<X$X'.",
":X.X.X.X X;X>Xo u g.qXpXqXp   o } x.t.u.a.a.p.u.s.r.q 5 G Q Y 4 .   ~.[.].;X X%X,X,X$X$X&X$X",
"*X<X2X4X4X<X<X<X+   % % o     O | 2.5.u.u.u.p.y.3.6.t.;.o.d j @   ;XoX X<X<X,X+XXXXX`.`.D _.",
"-X$X>X>XoXoXoXXX+X,X=XoX-X3X.XO 8 >.4.4.y.i.i.[ ' :.y.y.6.<.q   oXoX%X6X&X,X,XoX_./ x ( Q.x ",
"(.*X-X.X}..X<XoX].].%X$X=X*X>X>X  w :.y.i.6.y   o 0 ;.y.i.m.q + oX}.].].&X,X3X<X+X}.c ( ;X*X",
"|..X,XoX}.%X[._.$X].>X<X%X}. X;X;X. 8 [ [ 9   .     9 >.r.a   ,X,X;X<XoX].,X6X=X&X+X}.].XX=X",
"-X X(.[. X3XoX) '.$X>X&X'.$X X/._.=X+     . 3X<X}.oX. # = . oX_.+X,X=X$X`.].,X,X<X,X`.oX,XoX",
"-XoX}..X}.=X;X;X=X<X;X X$X$X/.^ `.*XoX&X%X>XuX<X%X/.'._.[.oX|.}.%X<X%XoXXXoX`.XX&X,X;X%X%X/.",
">X&XoX`._.oX'. X<X>X=X;X2X3X X/.%XoX) ^ }.oXoX,X,X<X;X;X%X;X<X,X,X;X}. X`.oX'.Q.].oX+X,X&X&X",
"<X;X;X,X].oX;X;X<X2XoX`.=X<X<X X_.`.}. X XoX[.&X;XoX&X,X4X,X<X;X%X=X%XXX=X%X=X%XoX&X]._.( ].",
"`.%X XXX;X;X<XuXuX3X&X%X%XoXoXXX=X%X].&X,X3X=XXXoX].~ / %X4X=X,X<X=X&X`./.;X<X:XoX<X4X_.].=X",
"'.%X;X X&X,X%X<X3X=X%X,X,X<X,X].oX,X;X$X3X4X,X[.oX`.^ ) ].;XoX;X,X=X;X:X}.XX<X<X,X,X,X,X=X&X",
"4X*X^.'. X,X`.].uX]./.'.oX&X<X<X<X*X*X$X.X=X;X'.XX,X&XoX'./ |.oX`.oX3X<X&X;X<X<X&X%XoX}.XX+X",
">X;X%X%X$X$X<X&X%X>X'.`.`.&X>X&X X%X'.%XoX%X-X&X_.,X4X3X:X'.}.;X;X_.=X,X].`. X,X&X X`.].}.oX"
};
