/* XPM */
static char *result[] = {
/* columns rows colors chars-per-pixel */
"46 46 239 2 ",
"   c #010001",
".  c #0C0501",
"X  c #01010B",
"o  c #0C0A07",
"O  c #120804",
"+  c #151209",
"@  c #1A150B",
"#  c #171106",
"$  c #010313",
"%  c #06071A",
"&  c #1A1917",
"*  c #261D11",
"=  c #271D0B",
"-  c #282319",
";  c #342C19",
":  c #36301E",
">  c #040B23",
",  c #070A27",
"<  c #13122C",
"1  c #081636",
"2  c #0C1334",
"3  c #211C38",
"4  c #1A233B",
"5  c #272829",
"6  c #3A3427",
"7  c #352D29",
"8  c #401000",
"9  c #52371C",
"0  c #3E4037",
"q  c #7E5400",
"w  c #4A462C",
"e  c #4B4837",
"r  c #594B36",
"t  c #5C553C",
"y  c #4E4C2E",
"u  c #6D5430",
"i  c #6E681D",
"p  c #061549",
"a  c #0B184C",
"s  c #0C224D",
"d  c #1B365A",
"f  c #1A2B4D",
"g  c #24354B",
"h  c #232E51",
"j  c #143271",
"k  c #213D72",
"l  c #333C6F",
"z  c #151063",
"x  c #3B4253",
"c  c #264879",
"v  c #325473",
"b  c #3C656D",
"n  c #534E47",
"m  c #555141",
"M  c #515457",
"N  c #665C4B",
"B  c #676345",
"V  c #736A57",
"C  c #727351",
"Z  c #78756B",
"A  c #4B7153",
"S  c #CC2000",
"D  c #924C01",
"F  c #B54800",
"G  c #B3770B",
"H  c #987F2E",
"J  c #D64904",
"K  c #D25500",
"L  c #D66301",
"P  c #D77801",
"I  c #EB7201",
"U  c #877857",
"Y  c #847C6A",
"T  c #5C8071",
"R  c #8E8600",
"E  c #B48910",
"W  c #948636",
"Q  c #BCA233",
"!  c #B0903A",
"~  c #CD8B03",
"^  c #E29500",
"/  c #EC8C05",
"(  c #C1A510",
")  c #EBA904",
"_  c #F4A801",
"`  c #FAB300",
"'  c #EEBD00",
"]  c #FFC800",
"[  c #E9D400",
"{  c #F6D901",
"}  c #EDCA01",
"|  c #E9E401",
" . c #F9E901",
".. c #A48E4F",
"X. c #938B69",
"o. c #96926D",
"O. c #928E7A",
"+. c #948D74",
"@. c #95917C",
"#. c #9A947D",
"$. c #9B9678",
"%. c #8E8B70",
"&. c #A39C7C",
"*. c #AB9A76",
"=. c #B19B7A",
"-. c #AC9370",
";. c #B5A47A",
":. c #B5B17D",
">. c #AAA47E",
",. c #968257",
"<. c #C89352",
"1. c #DED760",
"2. c #2A3585",
"3. c #093F93",
"4. c #1C4C90",
"5. c #274989",
"6. c #274B97",
"7. c #35548F",
"8. c #3B619D",
"9. c #3358AA",
"0. c #3E54B0",
"q. c #1A63A1",
"w. c #366BB2",
"e. c #1354B5",
"r. c #4A688E",
"t. c #4153A0",
"y. c #487AB7",
"u. c #4D6EAE",
"i. c #125EC1",
"p. c #2057C6",
"a. c #3569CE",
"s. c #276DD6",
"d. c #326FD3",
"f. c #3B7EE2",
"g. c #2D76EA",
"h. c #4D75DA",
"j. c #4871CA",
"k. c #4877E9",
"l. c #4A7CF3",
"z. c #417DF4",
"x. c #4E77EB",
"c. c #927E8B",
"v. c #5483B4",
"b. c #3885D0",
"n. c #3685D0",
"m. c #3C90F5",
"M. c #4A8AD8",
"N. c #548BCC",
"B. c #6D95D3",
"V. c #4985EA",
"C. c #578AE8",
"Z. c #5694EB",
"A. c #4986F6",
"S. c #538CFB",
"D. c #558CF5",
"F. c #4994FB",
"G. c #5B92F5",
"H. c #5493FD",
"J. c #5C93FC",
"K. c #599BFF",
"L. c #5496F7",
"P. c #789DEA",
"I. c #6C9AF5",
"U. c #6495FD",
"Y. c #6996FB",
"T. c #659BFE",
"R. c #6C9BFC",
"E. c #6A95F6",
"W. c #729DFD",
"Q. c #719AF7",
"!. c #668FED",
"~. c #5AA2FE",
"^. c #5CAAFF",
"/. c #55A3EA",
"(. c #67A5FD",
"). c #73A3FE",
"_. c #78AAF7",
"`. c #6DB6FE",
"'. c #7FBCFD",
"]. c #78A8E8",
"[. c #6EA3D9",
"{. c #71C2FB",
"}. c #8F8D83",
"|. c #979481",
" X c #9A9582",
".X c #9D9984",
"XX c #9E9B89",
"oX c #99958C",
"OX c #A39C84",
"+X c #A39E8B",
"@X c #AB9F86",
"#X c #A49F90",
"$X c #A6A186",
"%X c #ABA285",
"&X c #A6A18D",
"*X c #AAA48D",
"=X c #AEA98C",
"-X c #AFAB84",
";X c #B6A888",
":X c #BAB48B",
">X c #A6A291",
",X c #ABA593",
"<X c #AEA995",
"1X c #ACA799",
"2X c #AEA99A",
"3X c #B1AB95",
"4X c #BCAE94",
"5X c #B2AC9B",
"6X c #B4A895",
"7X c #B4B095",
"8X c #B6B29A",
"9X c #BAB39C",
"0X c #B9B197",
"qX c #B3AEA1",
"wX c #BCB4A3",
"eX c #BAB5A6",
"rX c #87A6B4",
"tX c #C3B69B",
"yX c #C6B28C",
"uX c #C2B6A4",
"iX c #C4BAA5",
"pX c #C3BBAA",
"aX c #C0B7A8",
"sX c #C9BFB2",
"dX c #8988C0",
"fX c #84BCFB",
"gX c #8DB4EA",
"hX c #94AFC3",
"jX c #A5C1CB",
"kX c #86C9FF",
"lX c #9ACBFC",
"zX c #ACDAFF",
"xX c #A1D1FF",
"cX c #B8DCFD",
"vX c #B5E0FF",
"bX c #C0DEFD",
"nX c #C6E5FE",
"mX c #D0EAFF",
"MX c #E8F4E7",
/* pixels */
",X>X&X>X&X&X>X>X*X*X*X>X<X<X<X<X*X*X&X*X,X<X<X2X2X<X1X2X2X8X2X<X2X<X2X2X2X2X,X,X#X+X#X+X+X#X",
">X>X>X#XXX&X&X&X&X*XXX*X<X>X>X*X*X*X&X*X,X,X<X2X<X<X2X1X2XqX2X1X2X2X2X2X5X2X2X,X>X>X#X>X>X>X",
">X>X>X+XXX+X&XXX&XXXOX&X*X*X>X*X*X*X&X=X<X,X,X,X<X<X1X2X5X5X2X2X5X2X2X2X2X5X2X,X1X>X>X<X,X,X",
",X>X>X#X+X+X&X&XXX.XOX.XXX$X*X*X&X&X*X<X2X2X,X,X>X>X>X1X2X2X1X2X2X2X2X1X2X2X2X2X2X1X2X1X1X2X",
"1X>X>X1X>X+XXXXXXX.X$.$.o.o.$.%X$X&.*X*X<X*X>X,X>X>X>X>X>X>X>X2X2X1X1X2X1X2X2X1X2X2X2X2X2X2X",
"1X1X>X>X+X>X&XXXOXOX$.+.o.X.X.o.>.=X$X&X*X<X*X*X>X>X>X>X&XXXXXXXXX+X>X>X1X1X2X2X2X2XqX2X2XqX",
"+X>X>X>XXX&X&X&X+XOX#.o.$.o.e O + B =X=X*X*X<X*X=X>X<X,XXXXX|.|.@..XXX>X,X2X2XqXqXqXqXqX2X2X",
"#X+XXX>X&X&X&X&X+X$X$.X.X.6   , 1 X w *X3X*X<X<X<X<X2X2X>X.XO.%.O..XXXXX>X2X2X2XqXqXqXqXqX2X",
"XX+XXX&X&X&X>X&X&X$X>.o.:   j a.M.9.$ 7 %X<X*X<X<X<X7X1X>X.XO.O..X.XXX&X,X1X2XqX1XqXqX5X2X2X",
".X|.|..XXX&X&X&XOX#.&.w $ 9.A.A.C.E.8.  t 8X=X=X7X<X2X<X>XXX|..XXXXXXX>X1X1X2X2X1X1X2X2X2X2X",
"O.+.@.@..X.XXX&XOX#.C   6.S.l.k.Z.C.Z.d   C :X3X7X8X8X<X,XXXXX.X.X+X>X>X>X1X2XqX2X1X2X5XqX5X",
"@.@.O.@.@. X.X X X#.7 % j.D.k.k.G.C.G.5.  w -X0X8X8X8XqX2X>X>XXXXX>X,X>X,X1X2X2X1X1X2XqXqX5X",
"$.@.O.O.#..XOXOX.X$.+ , k.D.x.k.D.Z.F.5.  - &.tXtXiXiXiX8XqX<X>X>X>X>X,X<X<X1X2X1X2X5XqXqX5X",
".X|.@.@..XXX.XOXOX+.. 1 x.J.l.l.D.V.G.5.  + *.tXtXiXiXsXeX8X2X8X<X,X,X<X<X<X<X<X1X1XqX1X2X5X",
"XX X XXXXXXX$XOX&.%.. % k.J.A.D.A.A.D.7.    ..tX:X9XiXiXpXeX8XqX3X,X,X5X2X<X,X,X1X,X1X1X1X1X",
"&X&XXX&X*X$XXX$.%XX.  X j.K.l.A.l.V.D.6.    ; yX4X9X9XiXpXpX8X7X5X3X3X<X6X<X,X,X,X>X#X#X,X,X",
"*X+X,X*X,X,X@X&.;.U     8.K.l.A.A.V.F.c   X   y yX4XtXtXuXuXwXwX0X8X5X3X3X5X<X&X*X*X#X@X&X&X",
",X,X,X*X*X,X>X@X*.6     h S.S.S.l.f.n.d         t :X;XyX4XuXaXuX9X0X3X8XeX8X=X<X#X#X,X+X&X+X",
"*X,X,X,X6X3X3X;Xr   .   % h.T.!.0.d v 5     2 4   r yX%X4X4XtXtX0X0X7XeX%.; * m #X*X*X,X*X&X",
",X6X=X6X,X%X-Xm     X h u.E.I.P.B.B.B.r.< k C.C.k   r =.;X;X;X;X4X:X-Xt   X X   n ,X,X+X,X&X",
"<X3X=X=X*X%Xt   2 9.h.W.).W.W.Q.I.I.W.).!.!.U.D.m.2.  w =.-.;X;X:X;.w   d M.v.s   N &X%X,X,X",
"3X=X=X*XeXV   s l.).).W.Y.W.Q.W.I.I.E.Q.I.E.E.U.L.S.k   u -.-.-.;.e   c {.kXzXdX$ & OX3X=X,X",
"3X3X6X0X}.o p z.J.T.).).R.Y.Y.R.T.Y.R.R.T.Y.Y.U.U.J.A.s X D ....t . d /./._.bXnX4   O.6X=X*X",
"7X3X3X*X-   a.~.J.T.x.x.(.R.U.T.Y.U.R.R.R.Y.Y.U.J.G.H.6.X = H ..-   B.`./.[.bXmXx   O.9X3X6X",
"3X3X0X#.. , k.K.G.T.2.z Y.R.U.R.Y.R.T.U.R.U.T.U.J.S.L.6.    i W . % u.N.gXfXcXmXM    X9X0X0X",
"3X3X9XO.  2 A.H.K.U.3 % C.(.Y.R.W.R.Q.U.U.U.U.U.H.H.V.4.    i i   f 9.P.cXlXcXbXf   OX9X0X0X",
"=X6X3XOX+ % m.K.K.J., < l.(.R.(.W.W.Q.E.U.U.J.J.H.F.a.j     o * s n.u.lXbXnXcXgX% O OX9X8X0X",
",X=X=X*XV   5.(.~.J.2 2.T.T.(._.].].P.Y.Y.U.S.H.F.g.s.5.      X w.'.gXlXzXzXxXN.X @ OX7X3X3X",
"6X6X=X,X*Xe $ j.(.L.a.z.(.(.dX#.<.<.-.rX].R.J.A.s.q.b.v         8.lXvXzXlX_.fXv.  6 +X=X=X3X",
"<X,X6X$X$X&X; > x.K.J.C.C.c.I ` ] ] I J W A v.b.s.d.r.5         u.kXlXlX'.L.{.g   Z 6X#X=X&X",
"<X,X,X@X&.*X$.= > c l < u _ |  . . ./ J P R y 7.N.b & X & 5     u.kXkXkX`.{.7.  m *X@X@X,X&X",
",X>X&X=X&X$X7XY     . O D ] |  . .^ S L I ~ q A T &   g [._.g   p M.M.j.y.d   r +X+X+X>X+X@X",
"<X,X>X,X*X<X<X=X*     = P } [ | _ S L / L F W C . X 7./.L.L.A.f   % , X   O B &.&..XOXOXOX X",
",X,X>X,X,X,X<X8X7   V ! ~ ) [ ' J K / / D y b , > w.^.F.V.m.m.4.  . . + e X.;.$XOXOX X X X|.",
",X,X,X1X2X,X1XqX0 X MXMX1.) _ ^ P _ ~ D 7 q.e.p.b.F.F.m.m.s.s.4.X   6 o.=X%X@X+XOX X@.O.O.O.",
",X,X2X2X1X<X1XeXN X hXjX7XQ G E ( G 9 3 a.z.l.A.F.m.s.m.g.s.n.d   e :X:X@X,X*X&XOX X XO.O.O.",
",X>X1X2X1X,X<X1X,Xn   X   o o @ @ + X 6.(.H.H.d.2.p a 4.i.s.c   : -X3X*X=X<X,X&X+XOX|.@.}.O.",
"1X,X1X1X1X,X2X,X3X8XV 6 & o & o       l j.w.j $         1 ,     C 7X%X<X<X>X,X>X#X+XoX|. X|.",
",X,X,X1X1X,X,X,X1X,X<X2X>XoXoX}.Z Z V 0 X     O y C B ;       - &.*X3X<X<X<X,X>X#X+XXXXX.XoX",
"1X,X1X,X,X2X2X5XqXwX1X>XqX2X1X>X2X7X8XXXB e 0 Y -X-X:.:.B 5 5 Y <X3X3X<X<X<X,X,X,X,X>X+X+X+X",
",X<X1X<X6X<X5XqXaXwX*X,X,X>X>X+X+XOX+X+XOXOX>X=XOXOX&.>.>.OX=X*X,X<X3X2X>X,X1X1X>X1X>X#X+X+X",
"1X<X<X,X<X5XqXaXaXwX,X,X1X,X,X>X+X,X,X+X>X&X>X@X%X@X@XOX&.%X&X<X6X<X<X3X<X<X1X,X1X1X,X>X>X>X",
"3X1X<X5X3X5XwXpXsXwX,X,X,X,X#X,X>X&X*X&X,X*X*X&X*XOX+XOXOXOX@X,X2X<X,X2X8X2X5X5X2X1X<X,X>X>X",
"1X3X6X5X5X5XwXaXsXqX,X,X>X>X,X,X&X&X*X<X,X=X*X,X+X@X+X@X$X$X+X<X2X1X5X2X5X5X5XqX5X2X<X,X,X,X",
"5X<X<X6X5XwXuXwXpX5X,X1X,X>X1X2X,X,X<X*X*X<X<X&X+X*X+X@X$X$X,X<X6X2X5X5X<X5X8X8X<X5X<X<X,X,X",
"5X6X<X<X5XuXwXaXpX5X,X<X,X1X<X<X,X,X>X>X,X<X>X>X>X>X&X&X$X&X,X2X<X5X5X5X5X5X5X5X5X2X2X,X>X,X"
};
