/* XPM */
static char *result[] = {
/* columns rows colors chars-per-pixel */
"46 46 216 2 ",
"   c #010001",
".  c #0B0501",
"X  c #0B0A06",
"o  c #01010B",
"O  c #120704",
"+  c #191309",
"@  c #010313",
"#  c #06071A",
"$  c #1A1B1B",
"%  c #040B23",
"&  c #070A27",
"*  c #13122C",
"=  c #0C1334",
"-  c #081636",
";  c #211C38",
":  c #1A233B",
">  c #24262B",
",  c #352A2F",
"<  c #401000",
"1  c #623408",
"2  c #7E5400",
"3  c #45512B",
"4  c #794124",
"5  c #061549",
"6  c #0B184C",
"7  c #0C224D",
"8  c #1A2B4D",
"9  c #1B365A",
"0  c #24354B",
"q  c #232E51",
"w  c #151063",
"e  c #16356D",
"r  c #133073",
"t  c #333C6F",
"y  c #213D72",
"u  c #3B4253",
"i  c #264879",
"p  c #325473",
"a  c #3C656D",
"s  c #434C5E",
"d  c #695E54",
"f  c #617844",
"g  c #746A5A",
"h  c #756F62",
"j  c #7C7562",
"k  c #CC2000",
"l  c #924C01",
"z  c #B54800",
"x  c #B3770B",
"c  c #D64904",
"v  c #D25500",
"b  c #D66301",
"n  c #D77801",
"m  c #E46702",
"M  c #F27E01",
"N  c #847C6B",
"B  c #847C6C",
"V  c #847E71",
"C  c #5C8071",
"Z  c #8E8600",
"A  c #B48910",
"S  c #998736",
"D  c #B0903A",
"F  c #BCA233",
"G  c #CD8B03",
"H  c #EC8C05",
"J  c #E29500",
"K  c #C1A510",
"L  c #EBA904",
"P  c #F4A801",
"I  c #FAB300",
"U  c #EDCA01",
"Y  c #FFC800",
"T  c #E9D400",
"R  c #F6D901",
"E  c #E9E401",
"W  c #F9E901",
"Q  c #88826F",
"!  c #8B8474",
"~  c #8D8677",
"^  c #938A79",
"/  c #938C7D",
"(  c #96917D",
")  c #A88A77",
"_  c #C89352",
"`  c #DED760",
"'  c #2A3585",
"]  c #1C4C90",
"[  c #274989",
"{  c #36598D",
"}  c #274B97",
"|  c #324A94",
" . c #3B619D",
".. c #1354B5",
"X. c #3358AA",
"o. c #1A63A1",
"O. c #366BB2",
"+. c #4A688E",
"@. c #4D6EAE",
"#. c #487AB7",
"$. c #125EC1",
"%. c #2057C6",
"&. c #2D6AC9",
"*. c #3569CE",
"=. c #276DD6",
"-. c #3A76D8",
";. c #2976E6",
":. c #4871CA",
">. c #4D75DA",
",. c #4877E9",
"<. c #4E77EB",
"1. c #417DF4",
"2. c #4A7CF3",
"3. c #927E8B",
"4. c #5483B4",
"5. c #3685D0",
"6. c #3885D0",
"7. c #3C90F5",
"8. c #4A89C2",
"9. c #4A8AD8",
"0. c #5B8DD3",
"q. c #6D95D3",
"w. c #6EA3D9",
"e. c #4885E8",
"r. c #4B84EE",
"t. c #578AE8",
"y. c #5694EB",
"u. c #4583F2",
"i. c #4989F5",
"p. c #4A83FA",
"a. c #558CF5",
"s. c #538CFB",
"d. c #4695F9",
"f. c #4C93FD",
"g. c #5496F7",
"h. c #5B92F5",
"j. c #5493FD",
"k. c #5C93FC",
"l. c #599BFF",
"z. c #658BED",
"x. c #789DEA",
"c. c #6A95F6",
"v. c #6C9AF5",
"b. c #6495FD",
"n. c #6996FB",
"m. c #659BFE",
"M. c #6C9BFC",
"N. c #719AF7",
"B. c #729DFD",
"V. c #55A3EA",
"C. c #5AA2FE",
"Z. c #5CAAFF",
"A. c #7CA8E6",
"S. c #72AAEB",
"D. c #67A5FD",
"F. c #78AAF7",
"G. c #73A3FE",
"H. c #6DB6FE",
"J. c #7FBCFD",
"K. c #71C2FB",
"L. c #978E82",
"P. c #979184",
"I. c #9B9484",
"U. c #9C9887",
"Y. c #9D9689",
"T. c #9F9989",
"R. c #A39B8A",
"E. c #A39C8D",
"W. c #A59E91",
"Q. c #A89F92",
"!. c #A6A28E",
"~. c #B5B983",
"^. c #A6A192",
"/. c #AAA494",
"(. c #ADA896",
"). c #ADA699",
"_. c #AEA99A",
"`. c #B0A799",
"'. c #B2AB9D",
"]. c #B6B19F",
"[. c #B8B09F",
"{. c #87A6B4",
"}. c #AFA9A0",
"|. c #B4AEA1",
" X c #B8AFA4",
".X c #B6B1A3",
"XX c #B9B3A5",
"oX c #BAB6A8",
"OX c #BCB6AA",
"+X c #BEB9AC",
"@X c #BEB9B2",
"#X c #C1BBAE",
"$X c #C4BDB2",
"%X c #C6C0B4",
"&X c #C9C2B6",
"*X c #CAC5BA",
"=X c #CFC9BE",
"-X c #D1CABD",
";X c #8988C0",
":X c #94AFC3",
">X c #8DB4EA",
",X c #84BCFB",
"<X c #A5C1CB",
"1X c #86C9FF",
"2X c #9ACBFC",
"3X c #A1D1FF",
"4X c #ACDAFF",
"5X c #B8DCFD",
"6X c #CECBC3",
"7X c #D3CCC3",
"8X c #DCD5CB",
"9X c #E3F4DA",
"0X c #C0DEFD",
"qX c #C6E5FE",
"wX c #D0EAFF",
"eX c #ECF3F4",
/* pixels */
".XoX].[.!.T._._.!.E.(.].oX.X].!.'.].R.R._..XOX.XU.T.|.).oXoX_./ I._.+X.XoX_.E._.(.!.'.oX]..X",
"( (.(.(..XU.|.$X.X/.'.#X%X#XXX'.`.(.E./.^.^.'..XoX/.]._..X}.].].]..X'.(.+X%XoXU.P.(.! ( +X!.",
"(.(.( ^ P.E./.+X%X_.I._.#X#XoXoXXXE..X+X(.'.oXoX!.oX(.oX%X#X].oX.X].!.!.oX%X%XXX/..X^.N T.+X",
"[.[.!.R.^.U.T.E.T./.E.U.'.].].].oX+X.XOX+X+X_._.^.E./.(._..X.X+X&XoX.X!.oX+X!._.+XoX%X%X_..X",
"oX&X%X+XoX/.U.T.Y.U.^./ ^ I.T.(./.).)._.OX|./ E.oX(./ !..X(._.oX7X-X.X+X|.#X).^ /.oX/..XoX.X",
"#X#X%XoX_././.oX#XXX!.j j ~ T.E.).E.).^.W..X/._.oX].].^..XU.]..X!..X(.!..X|.$XoX!.].+X_.^.!.",
"(._.'._..X/._.}.].&X`.( B P.W.. + T.W.|.oXoX@X|.^._.+XoX^.(.( ( j ^ |.)././.#XOX+X%XoX.X(.^.",
"( R.'.^.)..XoXoX/./.'.#X%X%X  & -   E.^.@X/.T.)./.'..X%XXXU./ ! h h U./.T.|.#XOX%X*X%XoX.X^.",
"(././.OXOX XoX$XXX'.`.).OX  r -.9.X.@ #XE./././._.oX$X&X&X~ d ~ W._.oX_._.(.!._.'.oX+XOXoXoX",
"|.W.P.).OXE.I././.E.$XOX@ X.p.r.t.b. .  /.I.'.(.Q.E. X|.|.+XQ.Y.P.T.@X@X.X.X|.'.! E.$X'.U.!.",
"Y.W.T.Y.}.}./.`.Q.E.`.  } j.2.,.t.y.y.9   E.OX#X#X|. X`.T.).}.6X@XT.@X@X+XoX+XOXE.E..X'.'.^.",
"L.Q P.T.|.#XOX|.W.Y.R.# :.a.,.,.h.t.h.[   $X#X#X|.Q.W.'.XX}.).@X@X@XoX}..XOX_.).XX'.].+X%X+X",
"%X@XC N N Q.XX$X|.W.W.& ,.a.<.,.a.i.g.[   '.|.#X#XXX&X$XXXXX$X@X^.oX.X}./. X).Y.|.^.E.|.#X&X",
").E.Q P.E./.#X X}.W.}.= ,.k.2.2.a.e.h.[   '.OX%X*X7X7X&XOX}.E.W.P.L.).W.@X$XW.E.|.$X|.OXXX].",
"oX}.)./. XXXW.`.oX}.V % ,.k.r.s.i.e.h.|     oX+X'.XX=X$X'.'. X_.}./.).|.OX|.}.Y.|.XX/.|.#XOX",
"@XoX).}.XX X/.Q.W.W.h o :.l.p.2.u.e.a.|     /.[./.L.XX&X$X%X@X@X}.W.P./.*X@XOX|.|.oXoX'.'.oX",
"W.^./.).OX$X`.( L.Q.     .l.p.p.p.i.d.[       .X'./.`.#X=X&X#X#X'.(.'.XX$X6X$XXX|.|.R.L.E.!.",
".X_.).+X+X+XOXOX X#X    q i.s.s.u.-.5.9         (.+X`.'.#X#XXXOX#X#XOX$X|.|.'./.'.).W.L.!.!.",
"@X+X.X+X$X*X&X$X*X  .   # >.m.z.X.9 p >     : :   |.OX%X#X%X#X#XoXXX+XoX#X&X XL.E.E.E.[.%X*X",
"}..X#X$X#X+X|.).    o q @.v.v.x.q.q.q.+.> e <.t.y   (.E.[.XX`.`.E.E.oXoX  o o   /./.Y.W.XXOX",
"^.E.T.).XX'.'.  - X.>.B.G.B.B.N.N.N.B.G.z.h.k.a.i.r   ^.!./.[.$X_..X+X  9 9.8.:   OXXXOX#X'.",
".X/./././.).  6 2.G.G.B.n.M.B.B.v.v.v.v.v.N.c.b.l.s.y   (.#X#X%X_./.  i K.1X4X;X# &XOX|.'./.",
"OXXXOXOX/.X 5 1.m.b.G.G.M.M.M.M.n.c.n.M.n.n.n.b.m.k.i.7   ^ R.'.'.  9 V.V.S.qX0X:    X'.W.R.",
"$X%X$X#XY.  &.C.k.m.<.<.G.m.b.m.n.n.M.M.M.n.M.b.k.k.j.}   W.N ^ (.o q.K.y.w.0XwXu   #XXXXXXX",
"XX`.OX#X. & ,.g.j.m.' w n.M.b.M.M.M.b.n.M.m.b.b.k.a.g.]     %X#XX # @.0.F.>X5XwXs   (.XX#X+X",
"[.!.+X$X  - i.l.l.k.; # r.G.b.n.M.M.n.b.b.b.k.b.k.f.e.]     OXXX  0 X.x.5X2X5X5X0   '.'.'.'.",
"'.)._.|.  # 7.g.C.h.% * r.D.M.G.B.B.N.c.b.b.k.k.j.f.*.e     8X  7 6.:.>XqXqX5X>X# O #X X XOX",
"'.'.'.E.).  } D.C.c.5 ' m.m.D.F.A.A.x.n.n.n.j.j.f.;.=.[       o O.,X>X2X4X4X3X0.o (.#X'.#XXX",
".XOXOX X.X`.@ :.D.g.-.r.D.l.;X) _ _ ) {.w.D.y.u.-...6.p         +.2X4X4X2XF.,X4.  #XXX/././.",
"oX+X'./ L.E.|.% <.b.s.<.t.3.M I Y Y H c S C #.9.&.&.+.>         @.1X2X2XJ.g.J.0   |.`.'.#X X",
".X|.'.$XY.g L.).% i i * 4 P R W W R M c n Z 3 { 8.{ $   $ >     @.1XK.1XH.K.{   #X'.R.Q.#X$X",
"(..X'. X$X$X XQ..   . O l T E W W H z b m G 2 f C $   0 w.F.0   7 9.9.:.#.9   `. X$XXX'.(.'.",
"^.T._.oXE./.6X$X^.    < x U T E H k b H m z S f X o { y.y.d.i.8   # & o   O ).).).'.}.#X).W.",
"oX'._._.).OX@XOX|.  g D G L U U c v J J l 3 a % & #.Z.d.e.7.7.}   .   W.Q.#X`.|.#XXX}.). X}.",
".X+X%X*X*X$X$X$X@Xo eX9X` L I J n P G l , o...%.6.Z.d.7.7.;.=.] .   '.`.$X$X#X[.}.'.E.W.V Y.",
"oX|.@X@X'.'.'./.|.  :X<X~.F x A K x 1 ; *.1.2.p.d.;.=.7.;.=.5.9   '.|.=XXXXX$X`.E.^ g / L.j ",
"T. XOX_./._.$X'.Q./.o o o X . + + X   | m.l.f.*.' 5 6 ] $.=.i   './.Q./. XOX&X$X[./.j / OX.X",
"(._.#X'./.|.!.Q.)./.OX$X|.).  @       t :.O.r @       o - -     #XoX$X)./.$X-XXX X X/.Q.`.XX",
"oX_.T.!.).&X(.( W.|.@X XW.`._.Y.R.XX$X  o     $X^.|.+X'.      E.|.OXOX XE.W.#X#X$X#XQ.`.#X'.",
"OX_./._./.oXOXOXoX@XOX).|.}.Y.~ E.XX'..X.X+X6X$X XY.W.R.W._.(.Q. X$X|.`.`.'.E.`. X#XXX|.|.Y.",
"@X X).E.Y.|.W.).$XOXXXOX$X&X).Y. X`.( ! (. X'.OX#X&XXXXX|.OX$X#X$XOX/.).E.'.W.L./.`.[.#X XXX",
"$XOXOX#XQ.|.XX X$X&X.XE.XX$X$X).U.E.(./.(.`./. XXX'. X#X*X$X$XXX|. X X`.XX|.oX|.'. XQ.R./ Q.",
"E. X).`.#XXX$X7X7X$X X|. X).`.`.XX.XW. X$X&XXX`.|.E.Q ^ |.*XXX#X#XXX XE.U.XX$XOX'.$X*XR.Q. X",
"W.|.#X). X#X X$X&XXX X#X#X$X#X/.'.#XOX}.$X*XOX/.'.W.^ ( Q.XX'.+X#XXXOX#XQ.'.$X$X#X#X#X#X[.XX",
"*X.XU.E.).#XE.Q.*X).Y.W.}.oX$X$X$XXX X|.|..XOX^.`.#X X_.W.^ /._.E. X&X#X XOX$X$X X|.'./.'.[.",
"@XOX|..X}.|.$X X XOXW.E.W. XoX X).|.W.}.).'.+X XR.#X*X*X+XW./.+XXXE..X#XQ.E.).#X X).E.Q./.'."
};
