/* XPM */
static char *result[] = {
/* columns rows colors chars-per-pixel */
"46 46 221 2 ",
"   c #010102",
".  c #030806",
"X  c #01010B",
"o  c #050909",
"O  c #0B0B0B",
"+  c #0A0405",
"@  c #120001",
"#  c #1C0001",
"$  c #150409",
"%  c #010311",
"&  c #000813",
"*  c #040C1B",
"=  c #0F1211",
"-  c #121314",
";  c #191916",
":  c #1B1A1B",
">  c #181617",
",  c #250004",
"<  c #221B1B",
"1  c #300000",
"2  c #21201D",
"3  c #171C25",
"4  c #051931",
"5  c #081729",
"6  c #2A1B20",
"7  c #112436",
"8  c #282627",
"9  c #292B33",
"0  c #343233",
"q  c #470606",
"w  c #5C0605",
"e  c #541618",
"r  c #640100",
"t  c #6D0101",
"y  c #740202",
"u  c #780101",
"i  c #581B26",
"p  c #7C212A",
"a  c #42413B",
"s  c #243549",
"d  c #3E3F41",
"f  c #113052",
"g  c #3A424B",
"h  c #3D4D59",
"j  c #2D4050",
"k  c #395875",
"l  c #4B515E",
"z  c #4A4C4E",
"x  c #5B6157",
"c  c #656156",
"v  c #4B5568",
"b  c #585C6B",
"n  c #425879",
"m  c #58626C",
"M  c #5A6475",
"N  c #6D746C",
"B  c #656B76",
"V  c #747971",
"C  c #686F77",
"Z  c #890303",
"A  c #930001",
"S  c #9B0000",
"D  c #9A0904",
"F  c #8F0511",
"G  c #A30102",
"H  c #AC0202",
"J  c #B40101",
"K  c #BB0000",
"L  c #B11010",
"P  c #802F31",
"I  c #B43727",
"U  c #C30101",
"Y  c #CA0101",
"T  c #C10308",
"R  c #D30302",
"E  c #DB0402",
"W  c #DC0608",
"Q  c #DE1310",
"!  c #E30401",
"~  c #EC0102",
"^  c #E20A03",
"/  c #ED0905",
"(  c #E40409",
")  c #E70C0B",
"_  c #F40201",
"`  c #F20905",
"'  c #F70807",
"]  c #D83F32",
"[  c #BE4434",
"{  c #D05336",
"}  c #B35952",
"|  c #827077",
" . c #B07574",
".. c #904C47",
"X. c #D14849",
"o. c #C47B7E",
"O. c #D36854",
"+. c #7E837A",
"@. c #858573",
"#. c #8B8978",
"$. c #858779",
"%. c #938E7C",
"&. c #95917E",
"*. c #99937E",
"=. c #3D6B8D",
"-. c #3D6A93",
";. c #3C6B99",
":. c #3C739D",
">. c #2D7CAA",
",. c #3578A3",
"<. c #446C98",
"1. c #4D7597",
"2. c #517C9D",
"3. c #516F8D",
"4. c #6E7985",
"5. c #717D8A",
"6. c #467CA7",
"7. c #9F748B",
"8. c #947B98",
"9. c #8F7B98",
"0. c #A67587",
"q. c #A17D94",
"w. c #C27D85",
"e. c #3A86B9",
"r. c #468BB6",
"t. c #4792B9",
"y. c #4E8AAD",
"u. c #7990AE",
"i. c #4897C6",
"p. c #499FD2",
"a. c #519DCE",
"s. c #629BC0",
"d. c #57AED8",
"f. c #76AED1",
"g. c #68B8D5",
"h. c #70AAC9",
"j. c #55B5E2",
"k. c #64B9E6",
"l. c #6EBDF4",
"z. c #67C2DA",
"x. c #75C9DA",
"c. c #77C8E9",
"v. c #74D0E2",
"b. c #858A81",
"n. c #868A83",
"m. c #969283",
"M. c #9B9584",
"N. c #9D9985",
"B. c #9D968A",
"V. c #9E998B",
"C. c #8B819D",
"Z. c #94829D",
"A. c #908E80",
"S. c #BD828A",
"D. c #A09B87",
"F. c #A39E8C",
"G. c #B98A94",
"H. c #A29E94",
"J. c #A48E95",
"K. c #9FA08A",
"L. c #A6A18D",
"P. c #A9A38E",
"I. c #A6A291",
"U. c #ABA593",
"Y. c #AEA896",
"T. c #AEA999",
"R. c #A9A69A",
"E. c #B0A795",
"W. c #B1AA96",
"Q. c #B2AC9B",
"!. c #B6B09E",
"~. c #90A6B7",
"^. c #ACAEA1",
"/. c #B3AFA3",
"(. c #B4B2A3",
"). c #B3B2AA",
"_. c #BBB5AD",
"`. c #B9B9AB",
"'. c #B6BCBF",
"]. c #8F8CAA",
"[. c #C38287",
"{. c #D98A8F",
"}. c #D58D92",
"|. c #DA8C91",
" X c #D99698",
".X c #D0AEAC",
"XX c #E6B6B9",
"oX c #B5C0B7",
"OX c #D0CDBD",
"+X c #91ADC4",
"@X c #9DC8DA",
"#X c #B9CED8",
"$X c #B3D6DC",
"%X c #AFC8D3",
"&X c #89D8F8",
"*X c #8CC8F1",
"=X c #A9D6F4",
"-X c #B1D9E6",
";X c #BFF3E5",
":X c #B3EBF9",
">X c #C2CED9",
",X c #C8D3D9",
"<X c #CFD2D3",
"1X c #D7E3DD",
"2X c #CCE2E7",
"3X c #D6E4E4",
"4X c #C4E7F9",
"5X c #D7EEFE",
"6X c #D8F4FF",
"7X c #D1F1F6",
"8X c #E7EBEA",
"9X c #E2FBFF",
"0X c #E9F7F9",
"qX c #F6F5F5",
"wX c #F9F7F7",
"eX c #F9F6F8",
"rX c #F2FFFF",
"tX c #FDFEFE",
"yX c #F6F9F7",
"uX c #F1F4ED",
"iX c #CBD9E9",
/* pixels */
"Y.U.P.U.U.U.U.U.P.U.P.U.I.P.Y.Y.U.U.Y.I.U.U.I.R.U.U.U.T.^.^.W.Y.R.E.R.R.Y.T.Y.Y.U.L.I.I.L.F.",
"U.U.U.U.I.P.L.L.P.U.I.U.K.R.Y.U.U.Y.U.I.P.L.P.Y.Y.U.Y.U.Y.Y.W.U.U.E.T.Y.Y.T.R.L.L.L.F.I.H.L.",
"U.P.U.U.L.L.L.L.L.P.U.P.L.U.W.Y.T.Y.Y.Y.Y.Y.^.Y.U.U.Y.W.Q.!.^.T./.W.E.E.W.Q.T.R.Y.R.R.L.Y.U.",
"U.U.U.U.L.L.L.L.P.P.L.N.L.L.P.I.I.U.Y.Y.Y.W.!.T.R.I.T.^.Y.Q.^.W.Q.^.T.E./.Q.Q.Q.W./.W.Y.Y.R.",
"U.U.R.R.P.I.I.I.K.L.K.V.N.N.N.N.K.L.I.I.U.I.I.U.R.I.I.V.N.K.K.R.U.E.E.R.U.Y.Q.T.U.R.(.Q.Y.Y.",
"I.I.U.U.I.U.Y.U.L.K.N.L.N.M.M.M.N.K.U.U.R.R.U.U.I.I.I.L.K.I.I.R.H.H.R.R.R.U.U.Y.T.Q./.Q.Q.Q.",
"U.U.I.U.U.I.L.L.I.I.M.U.T.Y.R.T.!.T.T.(.^.(.(.(.(.(.`.(.).`.).^.^./.^.R.Q.T.T.Q.Q.T.W.W./.T.",
"L.L.L.L.U.L.N.L.K.K.R.N.@.$.+.@.$.$.b.b.$.b.b.b.b.b.b.+.+.V N N N V $.R.(.T.!.!.Q.(./.(.Q.R.",
"L.L.F.L.F.F.F.F.Q.^.z . . O o .   . . . . .                       .   < ^._.T.T.T.(.T.!.T.T.",
"F.L.F.N.D.D.F.F.`.x         o O $ + +   .               . . . . .       9 H.(.U.W.T.T.R.U.R.",
"M.D.M.%.*.*.m.D.x   0 +X9.q r y t r r r r r r r t t t t y y t w e V ~.9   0 T.U.U.Y.T.!.T.T.",
"D.D.M.*.M.*.%.A.<   b 9X1XX.! ! R R R E E ! ! ! ^ ! ! ! ! ^ / ^ ] uXtXb   8 H.!.W.T.T.U.T.!.",
"F.F.F.D.D.%.m.m.:   B 5X2XX.! R R R E ^ E E ^ ^ ^ ^ ! ! ^ ) ) ^ { 8XrXb   3 V.W.U.Q.Q.Q.!.!.",
"F.I.F.D.M.M.B.m.;   V 5X2X} K R E ! ~ ~ ~ ! ~ ~ ~ ~ ~ _ ~ ~ ( E [ 0XrXm % : B.U.L.Q.!.Q.!.^.",
"U.I.F.U.F.F.F.m.:   C 9X2X<XXXXX.X X}.}.}.}.}.}.}.{.}.{.{. X X.X.X8XtXB X : V.W.R.Y.W.T.T.T.",
"Y.U.F.F.E.F.P.F.2   5.5X#XqXtXtXtXtXtXtXtXtXtXtXtXtXtXtXtXtXtXtXeX1XtXC % : N.U.U.Y.I.U.T.U.",
"U.F.F.U.F.F.F.F.<   5.5X#X0XeXyXwXqXwXwXeXeXtXwXwXwXwXwXwXqXwXwXuX3XtXC o : V.E.F.U.F.F.L.I.",
"U.Y.W.W.E.E.P.B.;   5.9X#X8XeXyXwXwXwXwXwXeXwXwXwXwXwXwXqXwXwXwX8X1XtXM X : M.E.U.U.I.I.R.U.",
"U.E.U.E.!.E.W.F.:   4.9X#XeXrXtXtXtXtXtXtXtXtXtXtXtXtXtXtXtXtXtX8X3XrXm X > B.L.F.U.F.I.U.U.",
"Y.Y.U.E.Q.E.W.F.>   5.9X>X3X.X.X_._.)..X_._.).).).).).(.)._.oXoX<X0X0Xm X ; M.U.F.L.I.I.U.I.",
"E.R.Y.I.Y.P.U.F.>   4.7X$X*.R Y K K K K K K K K J J J K K J H D ..3X9Xm X : M.E.E.E.Y.R.I.I.",
"E.T.Y.Y.W.P.U.D.-   M :X$XO._ ! / ~ ~ / _ _ _ _ _ ` _ _ _ _ ' ' [ 7X0Xl + : B.Q.Q.Q.T.U.U.Y.",
"I.E.W.W.Y.W.W.V.-   M 4X$X} ( ) ) ) ) / / ` / ` / / ` ` ` ' ' ' I 2XrXl X > D.W.E.Q.E.Y.R.Y.",
"I.E.W.W.W.Y.!.V.- . M 7X$X .R W W ~ / _ _ _ _ _ _ _ ~ ( ! ! ) Q I ;X6Xh X > N.W.W.Q.Q.Q.U.Y.",
"R.Y.W.W.W.E.W.V.-   v =Xf.+Xq.w.[.0.S.G.G.J.G.G.G.G.[.S.w.o. .0.J.@X6Xh X ; V.!.Y.W.W.T.!.Y.",
"I.U.W.U.L.U.Y.F.=   M *Xp.j.k.k.g.z.z.z.z.z.v.x.x.x.g.g.g.g.g.k.k.f.:Xh   - D.W.P.Y.!.!.(.Q.",
"U.U.U.E.E.U.E.B.=   3.:Xl.k.a.a.i.t.e.e.>.>.e.>.,.,.r.r.t.a.d.k.c.&X:Xs   = V.W.Y.W.T.^.U.T.",
"L.I.E.W.E.Y.E.m.O   s 3.=.6.6.r.t.t.i.p.p.i.e.e.r.i.p.i.t.t.t.r.y.t.h.9   - H.W.U.Q.!.T.U.U.",
"P.P.E.E.E.E.W.D.O           X & * 5 7 k f.&Xc.&X=Xt.f 4 = * & & & X % %   - D.E.P.Y.W.Y.U.U.",
"P.P.E.E.U.P.P.J.o   3 9 > $ # , # +     % 5 7 7 7 X   @ , , , , $ $ 8 > . = M.U.L.P.U.I.R.U.",
"U.U.E.E.U.E.U.D.O   B 2X'.p S J H A u w 1 @ @ @ # 1 u G K Y K H F  .,Xd   > D.P.F.F.L.I.I.I.",
"E.P.P.U.E.P.P.D.=   h 4X,Xp K K K Y Y K G Z y u Z J R E E R R E H <X7Xz   < *.P.F.P.F.F.F.F.",
"U.U.E.E.E.W.W.D.O   d 4X%Xe F H G H J J H H G G G J K U Y Y U U Z oX2Xh X : *.D.M.N.M.m.&.&.",
"U.U.U.W.E.E.!.F.-   l 4X-X6 t Z A A S G G G S S A A A S G G G F i +X:Xg X 8 N.D.M.M.M.%.%.&.",
"L.F.U.E.E.E.W.F.-   v :X:Xu.].Z.7.0.7.0.0.0.7.8.8.9.Z.Z.Z.9.9.u.+X=X-X3   9 L.F.N.N.M.m.M.m.",
"U.U.U.E.E.E.E.W.0   * s =.2.2.2.1.1.1.<.=.-.-.;.-.-.;.<.<.:.:.:.-.<.n %   c Q.L.F.D.M.M.M.m.",
"U.H.U.U.U.U.H.!.L.a . .       X     X X X   X   % % X X % X X % % X +   8 U.P.F.F.F.F.D.V.V.",
"E.E.U.R.E.U.Y.I.W.P.c 8 < : : ; ; ; ; ; ; ; ; ; : > : < : 6 2 8 8 8 0 z D.Q.L.I.U.H.F.F.L.F.",
"E.Q.W.E.Q.R.Y.U.W.P.!.P.L.%.#.@.@.@.@.@.@.@.@.@.#.#.#.#.#.&.m.m.m.D.U.E.E.U.U.R.E.Q.R.I.F.L.",
"E.W.Q.E.E.E.E.T.!.W.W.P.P.L.P.P.L.L.P.D.L.D.K.K.M.F.V.D.L.D.L.L.H.L.L.U.Y.W.E.E.E.E.E.I.Y.I.",
"Q.Q.W.R.E.Q.E.E.!.!.!.W.P.L.L.L.L.L.L.L.L.*.P.K.*.L.*.*.D.L.L.L.P.U.U.W.W.Q.E.W.R.T.Y.L.U.I.",
"T.E.Q.E.E.Q.R.E.!.!.!.!.P.P.P.L.P.W.P.*.P.P.P.P.P.P.*.L.L.L.P.W.W.P.W.Q.Q.Q./.!.(.Q.E.W.Y.U.",
"T.E.Q.T.T.Q.E./.!.W.Q.Q.W.W.W.U.Y.W.Y.P.P.P.W.P.W.P.F.L.P.L.P.W.Y.Y.Q.Q.W.E.Q.W.W.W.E.U.Y.U.",
"Y.T.Q.T.T.T.Q.Q.W.Y.W.W.P.U.U.U.T.U.P.P.W.P.P.L.P.P.P.P.L.L.L.Y.P.P.W.Y.U.W.!.W.Y.I.R.U.U.U.",
"W.Y.Q.Q.Q.Q.Y.E.T.E.Y.R.U.U.W.W.Y.!.U.I.P.P.U.P.L.U.U.T.P.L.Y.W.U.U.Y.Q.Q.Q.Q.Q.W.U.L.E.I.U.",
"W.I.E.Q./.W.Y.E.Q.Q.W.E.Y.W.Q.W.Q.T.U.U.L.P.Y.U.P.U.Y.Y.U.U.Y.Q.W.Y.W.!./.W.Q.Q.E.U.U.P.U.U."
};
