/* XPM */
static char *result[] = {
/* columns rows colors chars-per-pixel */
"46 46 222 2 ",
"   c #000102",
".  c #050706",
"X  c #01010B",
"o  c #0B0B0B",
"O  c #120001",
"+  c #1C0001",
"@  c #150409",
"#  c #010311",
"$  c #020A18",
"%  c #0F1211",
"&  c #111413",
"*  c #161518",
"=  c #1B1B1B",
"-  c #250004",
";  c #300000",
":  c #25221E",
">  c #0F1927",
",  c #051931",
"<  c #311620",
"1  c #112436",
"2  c #2C2928",
"3  c #2E2C28",
"4  c #34322E",
"5  c #2D2D33",
"6  c #363431",
"7  c #393631",
"8  c #3C3935",
"9  c #3F3C39",
"0  c #470606",
"q  c #580E0E",
"w  c #640100",
"e  c #6D0101",
"r  c #740202",
"t  c #780101",
"y  c #581B26",
"u  c #413E3B",
"i  c #7C212A",
"p  c #44423E",
"a  c #113052",
"s  c #243549",
"d  c #3A424B",
"f  c #2D4050",
"g  c #3D4D59",
"h  c #395875",
"j  c #474544",
"k  c #404855",
"l  c #4B515E",
"z  c #595955",
"x  c #60594E",
"c  c #65655F",
"v  c #746B5C",
"b  c #4B5568",
"n  c #585C6B",
"m  c #425879",
"M  c #58626C",
"N  c #5A6475",
"B  c #7B7667",
"V  c #656B76",
"C  c #6B6F71",
"Z  c #890303",
"A  c #930001",
"S  c #9B0000",
"D  c #9A0904",
"F  c #8F0511",
"G  c #A30102",
"H  c #AC0202",
"J  c #B40101",
"K  c #BB0000",
"L  c #B11010",
"P  c #B43727",
"I  c #C30101",
"U  c #CA0101",
"Y  c #D30302",
"T  c #DB0402",
"R  c #DC0608",
"E  c #DE1310",
"W  c #E30401",
"Q  c #EC0102",
"!  c #E20A03",
"~  c #ED0905",
"^  c #E40409",
"/  c #E70C0B",
"(  c #F40201",
")  c #F50806",
"_  c #D83F32",
"`  c #BE4434",
"'  c #D05336",
"]  c #904C47",
"[  c #B35952",
"{  c #857D6C",
"}  c #837774",
"|  c #B07574",
" . c #D14849",
".. c #D36854",
"X. c #C47B7E",
"o. c #88826F",
"O. c #8B8474",
"+. c #8B8676",
"@. c #948B78",
"#. c #938C7D",
"$. c #96917D",
"%. c #3D6B8D",
"&. c #3D6A93",
"*. c #3C6B99",
"=. c #3C739D",
"-. c #2D7CAA",
";. c #3578A3",
":. c #516F8D",
">. c #446C98",
",. c #4D7597",
"<. c #517C9D",
"1. c #6E7985",
"2. c #717D8A",
"3. c #467CA7",
"4. c #9F748B",
"5. c #8F7B98",
"6. c #947B98",
"7. c #A67587",
"8. c #A17D94",
"9. c #3A86B9",
"0. c #4E8AAD",
"q. c #468BB6",
"w. c #4792B9",
"e. c #7990AE",
"r. c #4897C6",
"t. c #519DCE",
"y. c #499FD2",
"u. c #55A7D8",
"i. c #5BB9D9",
"p. c #70AAC9",
"a. c #76AED1",
"s. c #68B8D5",
"d. c #55B5E2",
"f. c #64B9E6",
"g. c #6EBDF4",
"h. c #67C2DA",
"j. c #75C9DA",
"k. c #74D0E2",
"l. c #978E82",
"z. c #979283",
"x. c #9B9484",
"c. c #9C9887",
"v. c #9D9689",
"b. c #9F9989",
"n. c #94829D",
"m. c #BD828A",
"M. c #A49B8A",
"N. c #A39C8D",
"B. c #A48E95",
"V. c #B98A94",
"C. c #A59E91",
"Z. c #A89F93",
"A. c #A6A28E",
"S. c #A6A192",
"D. c #AAA494",
"F. c #ADA896",
"G. c #ADA69A",
"H. c #AEA99A",
"J. c #B1A897",
"K. c #B0A799",
"L. c #B2AB9D",
"P. c #B6B19F",
"I. c #B8B09F",
"U. c #8F8CAA",
"Y. c #90A6B7",
"T. c #AFA9A0",
"R. c #B4AEA1",
"E. c #B8AFA4",
"W. c #B6B1A3",
"Q. c #B9B3A5",
"!. c #BDB8A7",
"~. c #B4B3A9",
"^. c #BCB6AA",
"/. c #BEB9AC",
"(. c #BBBBB8",
"). c #C38287",
"_. c #D98A8F",
"`. c #D58D92",
"'. c #DA8C91",
"]. c #D99698",
"[. c #D6AAA8",
"{. c #C0B7A9",
"}. c #C2BBAD",
"|. c #C3BDB2",
" X c #C5B8B6",
".X c #E6B6B9",
"XX c #B5C0B7",
"oX c #C6C0B4",
"OX c #C9C2B6",
"+X c #CAC4BA",
"@X c #CBC5BC",
"#X c #D1CCBD",
"$X c #91ADC4",
"%X c #9DC8DA",
"&X c #B6CCD6",
"*X c #B3D6DC",
"=X c #8CC8F1",
"-X c #89D8F8",
";X c #B1D9E6",
":X c #A9D6F4",
">X c #BFF3E5",
",X c #B3EBF9",
"<X c #D2CCC2",
"1X c #C2CED9",
"2X c #CDD1D2",
"3X c #D7E3DD",
"4X c #CBD9E9",
"5X c #CCE2E7",
"6X c #D6E4E4",
"7X c #C4E7F9",
"8X c #D7EEFE",
"9X c #D1F1F6",
"0X c #D8F4FF",
"qX c #E7EBEA",
"wX c #F1F4ED",
"eX c #E9F7F9",
"rX c #E2FBFF",
"tX c #F6F5F5",
"yX c #F8F7F7",
"uX c #F9F7F7",
"iX c #F2FFFF",
"pX c #FDFEFE",
/* pixels */
"W.!.P.!.A.N.H.G.A.M.F.P.!.W.L.A.L.L.M.A.H.~.!.Q.x.b.R.G.~.!.F.#.x.L./.W.^.H.A.G.F.A.L.Q.I.I.",
"z.F.A.D.P.c.L.|.W.D.K.oXoX!.!.L.L.D.N.S.S.S.L.W.!.D.R.H.~.L.P.P.L.W.L.F.^.oXQ.x.x.D.+.z.OX$.",
"D.F.$.@.z.C.D./.oXH.x.H.}.}.!.!.W.C.W.|.H.H.^.!.A.Q.G.!.OX/.P.^.P.P.A.A.^.oXoXQ.D.P.S.B b.XX",
"P.I.A.A.C.c.b.N.c.D.A.x.L.W.P.L.!.^.R.!./.!.H.G.S.C.D.D.H.W.W./.OX!.P.A.^./.A.F.!.!.OX+XH.W.",
"!.OX}./.^.G.c.c.v.c.S.#.@.z.b.G.G.G.G.G./.H.#.N.!.G.#.b.W.F.H.!.<X#XP.XXE.^.G.+.D.!.D.W.!.W.",
"}.}.OX!.F.D.D.~.}.Q.A.B B @.b.b.G.N.G.S.S.~.G.H.Q.W.W.S.W.x.P.W.A.W.F.S.W.R.OX^.A.P./.H.S.A.",
"D.H.L.H.P.D.H.R.L.+XK.$.{ z.S.G.b.b.N.R./.W./.R.D.H.!.!.A.A.$.$.B @.H.G.D.D.|././.oX^.W.G.S.",
"z.b.L.S.G.W.^.Q.F.D.L.}.|.oX#X@XR.C.N.Z.|.S.b.H.G.H.!.OX^.c.#.+.B v b.D.b.W.{.!.oX+X(.!.W.S.",
"H.D.D.^.^.R.^.|.W.L.z 4 4 4 4 4 3 3 4 6 3 3 3 3 3 4 4 8 8 : & : 2 3 4 p F.D.M.J.L.W./.^.!.W.",
"R.Z.z.G.^.N.x.D.D.c   X     o o @ . .           X         . . . X       5 T.P.L.O.A.|.L.v.A.",
"v.C.b.v.T.R.D.K.B . 5 $X5.0 w r e w w w w w w w w e e r r r e q q } Y.5   z /.^.N.N.W.H.L.D.",
"l.o.z.b.R.{.!.R.: . M rX3X .W T Y Y T T T T T W W W W W ! ! ~ ! _ wXiXn   p H.H.W.R.W./.oX^.",
"oX(.o.v B S.^.|.=   V 8X6X .W T Y Y T ! T T ! W T ! W ^ ! ! / ~ ' eXeXn   u G.v.R.S.N.R.oXOX",
"G.b.o.z.C.G.^.Q.*   C 8X5X[ K Y T W Q Q Q Q Q ( Q Q ( ( Q Q / T ` eXiXM # j C.C.R.|.R.!.Q.L.",
"/.T.H.G.R.!.N.G.=   C rX5X2X.X.X[.].`.`.`.`.`.`.'.`._._._.].].[.[.qXpXV X 9 G.v.R.W.S.R.|.!.",
"/.~.H.T.~.~.D.Z.=   2.0X&XtXpXpXpXpXpXpXpXpXiXpXpXpXiXpXpXpXiXpXuX3XpXV # j ^.R.R.^.^.R.L.!.",
"C.S.D.G./.|.K.#.=   2.8X&XwXuXuXtXuXuXuXyXuXuXpXuXuXuXuXuXuXuXuXwX6XpXV X j |.Q.R.R.M.l.M.A.",
"~.H.G./././.!.!.= . 2.rX*XwXuXuXuXtXuXuXuXyXuXuXuXuXtXuXuXtXyXuXqX3XpXV   p L.D.K.G.Z.l.D.N.",
"/./.Q./.|.+XOXoX=   1.rX&XyXpXpXpXpXpXpXpXpXpXpXpXpXpXpXpXpXpXpXeX5XiXM X j R.l.N.N.N.Q.|.+X",
"T.E./.|.}./.L.G.=   2.eX1X6X X X^.^.^.}.^.^.~.~.~.~.~.E.~.^.XXXX<XeXeXM . p {.!.D.D.v.N.Q.!.",
"D.N.N.G.Q.K.L.!.&   V 0X*X@.Y U I K K K K K K K J J K K K J H D ] 6XrXM X 9 D.E.|./.^.^.^.R.",
"R.S.D.D.D.H.K.Q.*   N ,X*X..) W ~ W Q ~ ( ( ( ( ( ( ( ( ( ( ) ) ` 9XeXl X u R.W.|.+X!.R.G.D.",
"!.Q.!.^.S.L.W.z.&   N 9X*X[ ^ / / / ~ ~ ~ ~ ~ ) ~ ~ ) ~ ) ) ) ) P 5XiXb . 8 H.E.E.!.E.R.C.N.",
"|.|.|.}.c.D.Q.Q.& . V 7X*X| Y R ^ ^ Q ( ( ( ( ( ( ( Q ^ ^ ^ ~ E P >X0Xk   u G.D.Q.Q.}.Q.Q.Q.",
"!.K.!.|.~.H.R.L.&   b :Xa.$X8.).).m.).B.V.V.V.V.V.V.).m.).X.| 7.B.%X0Xg X p OXH.N.L.G.E.|.!.",
"L.D.!.|.^. X^.G.%   N =Xy.d.f.f.i.s.h.h.h.h.k.k.j.j.s.s.s.s.i.f.s.a.,Xg   9 Q.}.}.Q.L.R.R.L.",
"G.G.H.R.C.S.OX|.&   :.,Xg.f.u.t.r.w.9.9.-.-.-.-.;.;.q.q.w.t.u.f.=X-X,Xf   8 F.O.M.E.|.R.R.Q.",
"L.R.K.S.K.H.!.oXo   s >.%.3.3.3.w.w.r.y.y.r.w.9.q.r.y.r.w.w.0.q.w.0.p.1   8 A.D.M.Z.{.R.{.!.",
"W.^.^.Q.R.K.F.{.o           X $ $ > 1 h a.-X-X-X:Xw.a , & $ $ $ $ X X #   u E.M.C.}.{.D.F.F.",
"^.!.L.#.l.C.R.Q.o   = 5 * @ + - +       X , , , 1 X   O - - - - @ @ 2 * X u R.L.Z.L.L.K.{.P.",
"W.R.R.}.M.v $.G.%   N 4X(.i S H H A r w ; O O O + ; t G K I K H F | 3Xs   8 K.K.{.L.M.Z.}. X",
"D.W.G.E.|.}.E.G.&   k 9X1Xi K K I U I K G Z r t Z J Y T T T Y Y L #X6Xk X p R.R.E.|.E.L.F.K.",
"S.b.H.!.M.D.<X(.%   s 8X&Xy A H H H J J H H G G G J K I I U I I Z XX5Xk X j F.G.K.L.G.(.K.C.",
"/.H.H.G.G.^.^.^.&   b 7X%X< w Z A A A G G G S S A A A S G G G F y $X,Xd X j G.L.^.!.T.G.E.T.",
"W.(.oX+X@X|.|.|.&   b ,X,Xe.U.n.4.7.4.7.7.7.4.6.6.5.n.n.n.n.5.e.$X:X;X>   j {.R.R.K.C.M.{ x.",
"!.H.|.(.L.L.L.D.B   $ s m <.0.<.,.,.,.>.&.&.&.*.&.&.*.>.>.*.=.=.*.:.m $   B  XK.M.@.v l.l.B ",
"N.R.^.H.D.H.|.L.Z.C       X   X   X X X   X X X # # X X # X X # # X     p Q.OX}.I.Z.B #.^.W.",
"D.H.}.L.D.R.Z.Z.J.D.O.j 9 6 6 8 8 7 4 6 8 7 4 4 6 6 7 7 8 u u u u u j x D.}.#X!.I.I.D.Z.L.Q.",
"!.F.c.A.G.OXK.$.Z.K.}.E.C.T.G.v.N.Q.|.R.E. X+X|.Z.L.}.K.Z.L.L.M.R.^.^.R.N.C.}.}.|.{.Z.K.}.L.",
"!.L.D.H.D.Q.!.^.^.}.^.G.T.T.x.+.C.W.L.W.R./.<X XE.v.Z.M.Z.K.J.Z.E. XR.L.F.K.N.J.Q.|.^.T.R.v.",
"/.E.T.N.M.R.N.G.|.^.Q.!.|. XH.x.R.K.z.O.F.R.L.!.|.|.Q.Q.R.^.|.^.|.^.D.G.N.L.C.#.D.K.E.{.Q.Q.",
" X^.^.|.Z.L.Q.E.OXOXP.N.^.|.|.G.M.N.D.F.F.K.D.Q.^.R.E.}.+X}.+X^.R.W.E.G.!.R.Q.R.L.E.Z.M.l.D.",
"b.E.K.K.!.^.+X<X<XOXR.W.R.G.L.K.Q.R.C.E.|.OXQ.J.L.N.o.@.R.+X^.{.}.Q.E.C.c.Q./.^.L.OX@XZ.Z.Q.",
"S.W.!.G.E.{.R.|.OXE.R.{.}. X}.D.R.}.!.K. X+X!.D.L.N.@.$.Z.Q.L.!.}.Q.^.{.D.K.<X/.{.{.Q.}.P.P.",
"+XQ.b.C.G.{.N.Z.@XG.x.Z.L.~.}.|. XW.~.R.R.W.!.S.K.|.E.H.N.@.D.H.N.E.OX|.R.^.}. XE.E.L.D.K.E.",
"/.~.R.W.L.R. XE.~.^.C.N.C.^.^.E.G.R.C.L.G.R.^.R.M.}.+X+X/.C.G.!.Q.N.W.}.G.M.G.}.R.G.M.Z.D.L."
};
