/* XPM */
static char *result[] = {
/* columns rows colors chars-per-pixel */
"46 46 199 2 ",
"   c #040304",
".  c #080708",
"X  c #0C0A0C",
"o  c #070608",
"O  c #110E0E",
"+  c #0F0D11",
"@  c #110E12",
"#  c #151215",
"$  c #16141A",
"%  c #19151B",
"&  c #1C1A1E",
"*  c #191515",
"=  c #211E1E",
"-  c #1B1723",
";  c #1D1A22",
":  c #1F1E2E",
">  c #1F1F34",
",  c #211D25",
"<  c #231F2B",
"1  c #211E35",
"2  c #242025",
"3  c #25212C",
"4  c #29242E",
"5  c #2D2C2B",
"6  c #252232",
"7  c #2B2633",
"8  c #2E2935",
"9  c #2C243C",
"0  c #2E2A39",
"q  c #312D35",
"w  c #312D3B",
"e  c #353434",
"r  c #34323B",
"t  c #3B3B3C",
"y  c #37383F",
"u  c #403C3C",
"i  c #322A42",
"p  c #363142",
"a  c #3D3C43",
"s  c #3A3644",
"d  c #2E2940",
"f  c #413F47",
"g  c #3F4044",
"h  c #444445",
"j  c #454449",
"k  c #4A464E",
"l  c #47494B",
"z  c #4B4B4D",
"x  c #4A4847",
"c  c #504E4C",
"v  c #53524F",
"b  c #444753",
"n  c #4C4C53",
"m  c #4A4C5A",
"M  c #514F55",
"N  c #524E5A",
"B  c #4F5155",
"V  c #4C515D",
"C  c #545353",
"Z  c #5A5956",
"A  c #54545B",
"S  c #59565A",
"D  c #57595D",
"F  c #5C5B5B",
"G  c #595757",
"H  c #615D5D",
"J  c #62615D",
"K  c #555661",
"L  c #5B5B62",
"P  c #595861",
"I  c #615E61",
"U  c #646363",
"Y  c #6A6764",
"T  c #696965",
"R  c #65696C",
"E  c #6C6C6B",
"W  c #666669",
"Q  c #706E6D",
"!  c #6F706E",
"~  c #72716F",
"^  c #6D6D73",
"/  c #6D6A7C",
"(  c #6A6476",
")  c #706C7C",
"_  c #6E7172",
"`  c #747473",
"'  c #757876",
"]  c #7B7B76",
"[  c #76757B",
"{  c #75797B",
"}  c #7B7C7B",
"|  c #78777A",
" . c #817E7C",
".. c #7D817E",
"X. c #82827D",
"o. c #6D6B81",
"O. c #7C7E82",
"+. c #737186",
"@. c #817F82",
"#. c #7E8382",
"$. c #7F8588",
"%. c #838584",
"&. c #848985",
"*. c #8A8B86",
"=. c #84868B",
"-. c #868A8A",
";. c #8B8C8B",
":. c #8A8784",
">. c #8D918C",
",. c #8E9087",
"<. c #92928D",
"1. c #9B9488",
"2. c #8B8D90",
"3. c #8E9392",
"4. c #8E9992",
"5. c #939592",
"6. c #959A95",
"7. c #9B9C95",
"8. c #969C99",
"9. c #9B9D9A",
"0. c #9A9692",
"q. c #908D85",
"w. c #A19B8F",
"e. c #A39D95",
"r. c #A09F9B",
"t. c #96A198",
"y. c #9DA29B",
"u. c #9CA097",
"i. c #A2A49D",
"p. c #AAA49D",
"a. c #A5A89E",
"s. c #ABA89C",
"d. c #9B9EA1",
"f. c #9FA2A1",
"g. c #A3A5A2",
"h. c #A5AAA3",
"j. c #ABACA5",
"k. c #A6ABA9",
"l. c #ACAEA9",
"z. c #A7A7A6",
"x. c #B3ACA5",
"c. c #B5AEAA",
"v. c #B2A6A3",
"b. c #AFB2A7",
"n. c #ADB2AD",
"m. c #ABB7AC",
"M. c #B2B2A6",
"N. c #B3B4AB",
"B. c #B6B9AC",
"V. c #BBBBAC",
"C. c #B9B6A8",
"Z. c #AFB4B2",
"A. c #B2B6B2",
"S. c #B5BBB4",
"D. c #BBBCB4",
"F. c #B8BBB8",
"G. c #C0BEBA",
"H. c #C0BFB4",
"J. c #B6C1B4",
"K. c #BCC2B6",
"L. c #BDC3BA",
"P. c #BEC9BB",
"I. c #BFC9B7",
"U. c #C0C2AE",
"Y. c #C3C4B4",
"T. c #C3C5BB",
"R. c #C4CBBE",
"E. c #CACCBE",
"W. c #C9C8B9",
"Q. c #CCD1BE",
"!. c #C6D1BE",
"~. c #D2D4BE",
"^. c #C4C7C2",
"/. c #C5CCC1",
"(. c #CBCDC2",
"). c #C6D1C2",
"_. c #CCD2C4",
"`. c #CED9C6",
"'. c #CDD5C9",
"]. c #D2D5C4",
"[. c #D4D9C5",
"{. c #DADBC6",
"}. c #D2D6CA",
"|. c #D4DACB",
" X c #DBDCCB",
".X c #D9D6CD",
"XX c #DBDDD1",
"oX c #D0CFC6",
"OX c #E0DECE",
"+X c #E3DFD4",
"@X c #DEE1CD",
"#X c #DEE1D3",
"$X c #E1E3CD",
"%X c #E2E2D4",
"&X c #E6E6D8",
"*X c #E7E9D9",
"=X c #EAEBDA",
"-X c #EAEAD6",
";X c #F2F3E3",
/* pixels */
"e.H < w w w 8 w w w w w w r w w r r p w y r w p w p p p p p p d i 0 9 i d 0 C.Y.h.k.k.z.z.j.",
"e.C 6 9 0 w w w w w r q w w w w w w w w 0 0 w w w w w w 0 w r 0 0 w 0 d 9 < s.K.N.l.N.N.z.j.",
"v.c < 0 0 q w w q w w q w w w 8 0 0 8 w w w w 0 w 0 0 d w i d w w 7 6 - $ 8 p.e.8.i.9.g.i.9.",
"e.M 6 0 w w w 8 w w w w w w w q r r w w w w w w 0 0 0 7 9 6 - 3 8 e s j s h }.oXT.G.F.D.F.N.",
"v.M < w 0 q 0 0 w q 8 8 8 8 7 7 7 7 3 4 4 3 3 , ; % % # @ X c Y ! ` ' O.A x W.(.D.c.c.n.h.z.",
"x.G < 7 7 7 8 7 4 4 4 4 4 4 3 < < ; , , ; & % % % $ # # @ # e.C.7.0.5.-.M c oXE.l.z.h.l.j.9.",
"c.G < 9 8 7 8 8 7 q 8 7 8 7 9 7 7 7 8 0 8 8 6 3 2 2 , , * = v.M.6.5.5.=.C C oXoXA.F.D.L.D.h.",
"v.G 6 9 9 7 8 8 8 8 8 8 8 8 8 8 7 7 6 6 6 3 3 q t a t f 5 5 H.j.8.8.8.2.C D  X XH.D.D.T.D.h.",
"v.M 1 9 8 8 7 < 4 < , , , ; & % % $ * @ X O J  .' ` W L n t W.x.7.8.5.5.A G _.M.0.i.9.g.7.*.",
"v.z - , < < < , , = - = % & % % # % $ * O O w.e.' } _ W N h ~.Y.n.i.5.3.A F $XW.Y.^.T.(.N.<.",
"c.S : 6 6 6 6 < < < < < 3 2 , = % % # @ . * s.7.' ' ` _ G x ~.U.A.n.g.3.C H @X].Q.].`.|.T.i.",
"c.M 1 9 9 7 6 < < < < < < - @ * * % * * O = H.i.~ } | [ D c {.~.N.z.9.2.A J @XQ._.}._.}.D.i.",
"c.z > 6 6 < , , , * # O X X v C z B C C n h E.s.X.' ` O.D c ~.x.,.&.} %.D U -X{.[.}._.'.K.7.",
"c.x $ # @ @ O X X X X X o X 1.0.! E R W D x {.W.g.6.=.O.A C $X].W.R.F.k.B J -X X[._._.'.L.8.",
"v.u   o o o o X O X X X   O w.,.E E _ R L v {.W.j.g.5.{ S v $X{.].!.R.S.B T =X@X'.|._.'.L.a.",
"c.t   o o o           o   * v.j.} %.#.{ D v  X_.b.g.5.O.D v $X~._._.L.n.z Q ;X@X X|.#X|.R.C.",
"C.e   o o o O = q e t l j g C.5.} { } } L Z ].s.<.&.} O.K v {.E.E.R.J.Z.m E %XK.C.M.l.N.y.X.",
"C.5   o   O J ` U F W L F c Y.5.6.6.>.$.D Z %XW.L.K.N.d.A C @X]._.!.P.Z.z T Q.M.B.B.N.T.j.*.",
"C.e       &  .} F D L D n x U.s.y.4.6.=.F C $X~._.R.K.k.v Z @X~.[.`./.Z.l Q &X@X#XXX|.|.R.i.",
"C.t   O X t 5.;.! ! E L A x K.a.9.4.6.$.L C {.W.Q.I.J.h.n F $X~.|.`.).Z.j ` %X{.|.|._.|.T.8.",
"x.C s L l G i.6.' _ ..R A z K.s.8.8.4.%.L Z {.Q.R.R.J.f.n U $XW.K.A.n.k.z ` +XE._._.).'.F.6.",
"j.T V / j D g.5.' ....R P v C.a.8.4.3.%.L F {.].Q.R.J.k.z J {.V.Y.K.D.n.z ' =X_.[._._.'.P.7.",
"8.R m / a H k.6.....{ _ L C V.7.3.&.%.$.L Z }.M.a.7.5.3.n H $X[.{.`./.S.l  .=X@X[.[._.|./.a.",
"5.^ g o.a U k.4.....#._ D G U.i.9.8.5.$.D F @XE.T.R.N.9.l U @X~.`.`.R.n.j  .=X[.[.'.'.|.T.g.",
"<.Q b o.s U l.8...#.#.{ D v Y.a.f.t.t.-.C F {.].[._.L.k.j T  XY.R.L.A.n.l ] =X[.[.'.'.|.L.a.",
"<.[ n +.p U j.8.#.#.&.{ D C U.i.y.t.8.=.n F {.~.].!.D.d.j T ].D.D.D.S.k.n ] =X[.|.)./.'.P.a.",
"0.} b +.w U j.6.%.%.%.} D F Y.b.g.f.y.2.P U $X[.}.'.L.A.M Y OX].|._./.S.j ] *X@X|.|.'.|./.b.",
"0.%.m +.q Q A.5.%.-.-.O.A Z D.7.&...` } D H ].i.<.*.O.` g Q  X].`.`.).S.g  .;X$X#X X#X#X_.S.",
"5.%.b +.r Z ` Y F F C A j H j.! F D c n a J [.b.7.;.} _ a ~ ].Y.T.L.D.Z.j ~  XN.M.j.j.b.i.1.",
"<.%.N o.r h c C F D D N f J W.N.l.y.8.=.A H %X|.}.'./.A.z Q  X(.R.T.L.Z.k ` W.b.B.N.B.D.n.;.",
"0.%.K o.r I 9.;.%.%.O.) k H V.a.y.5.6.=.A J @XR._.I.J.n.k T %X[.]._.R.S.k ' =X#X@X|.'.|.T.i.",
";.%.K ) w R 9.5.%...} R n H B.i.y.8.4.=.C J {.E._.R.K.n.j Q OXQ._._.L.S.j ] &X[._.`.'.'.L.i.",
";.O.K / q E 9.5.-.#.#._ m F C.a.y.t.4.-.V U {.E.(.R.J.m.k Q  XY.Y.D.A.F.l } &X].[._.'.'.L.8.",
"2.%.L / q Q i.6.-.#.#.{ m F C.h.a.y.6.>.B U  X(._.P.S.n.j ` .XD.D.D.S.Z.l ] &X X_._.'.'.P.9.",
";.=.P o.r ~ i.8.*.#.#.} M U D.N.k.j.f.8.A Y $X~.(./.L.^.M T %X}._.).).S.g  .*X{.}.'.).'.R.k.",
"2.;.L ) w ` z.0.*.;.-.=.C U M.<...{ E ` B Y (.7.*.#.` _ t Q  X_.Q.).P.S.a O.;X@X{.|.|.|.(.J.",
"@.Q N / r F ` I F D S S f F i.' E T Z m a Y {.D.S.j.5.$.y ~  XY.R.L.L.S.a } %XD.D.B.N.S.h.7.",
"` U k ( y k G C F I I L f H Y.N.b.k.y.2.n F #X_.R._.P.m.z Y XX_.R.R.L.S.l ` W.h.a.b.b.S.n.*.",
"c.N.[ ) t I r.;.;.-.%.) M Z V.g.f.t.9.2.z J  XR._.P.K.h.x T #X_.R.Y.P.S.j ~ #X X[.|.|.|._.i.",
"j.j.E / f F f.2.*.%.%.R n F C.i.y.t.8.;.l J {.E.R.I.J.l.j T XX_.R.P.L.S.h ~ XX_._._./._.R.i.",
"i.n.` / j I g.>.>.-.X.' B Z M.i.y.9.6.3.l F [.W.P.I.S.k.l T XX(.P.P.L.S.f ` XX]._.).).'.^.7.",
"M.D.&.[ n U h.6.>.>.&...B Z C.i.r.9.5.>.l H {.(.!.P.J.l.j Y  X(.P.P.P.S.t Q OX}._.).!.'.R.t.",
"Y.W.*.} f F N.y.t.6.,.&.n G D.n.z.g.f.9.n C  X[././.F.F.j G OX_.R.R.S.S.t Y %X_._.).R.'.R.h.",
"C.J.:.T k U M.i.u.6.>...h z M.5.;.;.| @.B z (.g.h.A.8.z.U T +XE.R./.D.^.G ` ;X X#XXX|.|.}.T.",
"Y.U.j.j.g.r.c.r.r.g.9.0.5.;.z.<.;.@.@.@.` Q <.` ` ~ _ | W Q ;.` ] ] } %.D T 9.:.X.:.X.X.X. .",
"E.E.Y.G.G.N.^.G.G.D.F.F.T.G.v.g.r.9.9.3.@.;.;. .*.;.;.2.E -.r.0.u.0.<.5.F :.r.:.,.,.<.0.,.,."
};
