/* XPM */
static char *result[] = {
/* columns rows colors chars-per-pixel */
"46 46 210 2 ",
"   c #275470",
".  c #3C697F",
"X  c #446E7C",
"o  c #486D7D",
"O  c #49727C",
"+  c #5E767E",
"@  c #58747C",
"#  c #64757B",
"$  c #64797D",
"%  c #6C7C7E",
"&  c #3F768B",
"*  c #456E86",
"=  c #437286",
"-  c #4B7483",
";  c #4E7886",
":  c #43748C",
">  c #4A768B",
",  c #4E7A8C",
"<  c #537584",
"1  c #557987",
"2  c #5C7C85",
"3  c #537B8B",
"4  c #5B7B8C",
"5  c #5A7683",
"6  c #4C7C93",
"7  c #447992",
"8  c #537E93",
"9  c #597C91",
"0  c #647C84",
"q  c #6C7E84",
"w  c #647D8C",
"e  c #657784",
"r  c #5E828B",
"t  c #538293",
"y  c #5B8494",
"u  c #5A8798",
"i  c #65848D",
"p  c #6A838C",
"a  c #6A8387",
"s  c #73858C",
"d  c #75898E",
"f  c #7B8A8E",
"g  c #7B8787",
"h  c #648493",
"j  c #6B8592",
"k  c #668A94",
"l  c #6C8B94",
"z  c #668D9A",
"x  c #6B8D9B",
"c  c #66879B",
"v  c #718792",
"b  c #748D95",
"n  c #7C8C93",
"m  c #728E9B",
"M  c #7B8E9D",
"N  c #798694",
"B  c #6D919C",
"V  c #749097",
"C  c #7B9295",
"Z  c #73929C",
"A  c #7A949B",
"S  c #7A9A9E",
"D  c #5E8FA4",
"F  c #658EA1",
"G  c #6A8EA2",
"H  c #718FA0",
"J  c #6D92A2",
"K  c #6896A2",
"L  c #7295A2",
"P  c #7C96A2",
"I  c #7499A2",
"U  c #7D9AA3",
"Y  c #769DAA",
"T  c #789EB0",
"R  c #7EA1A9",
"E  c #838D8D",
"W  c #878C86",
"Q  c #8C928F",
"!  c #9F9A84",
"~  c #95958B",
"^  c #9D9C8D",
"/  c #979588",
"(  c #828E93",
")  c #849495",
"_  c #8B9493",
"`  c #8B9996",
"'  c #83949B",
"]  c #8A969C",
"[  c #859A9E",
"{  c #8B999B",
"}  c #929994",
"|  c #9B9D94",
" . c #949C9C",
".. c #9B9D9A",
"X. c #929694",
"o. c #A39C86",
"O. c #AB9D85",
"+. c #A39E8B",
"@. c #AA9D8B",
"#. c #A49F91",
"$. c #9DA096",
"%. c #9CA19A",
"&. c #A9A286",
"*. c #A5A18D",
"=. c #ABA48C",
"-. c #AFA88F",
";. c #B1A58E",
":. c #B1A88E",
">. c #A4A293",
",. c #ABA593",
"<. c #ADA894",
"1. c #A4A49A",
"2. c #ADA99A",
"3. c #A5A89D",
"4. c #B0A695",
"5. c #B1A992",
"6. c #B1AB9A",
"7. c #8396A2",
"8. c #839BA3",
"9. c #8B9DA3",
"0. c #869DAB",
"q. c #919DA1",
"w. c #969DA8",
"e. c #87A1A6",
"r. c #8CA2A4",
"t. c #84A2AA",
"y. c #8CA3AA",
"u. c #8DA8AD",
"i. c #93A2A4",
"p. c #9BA4A4",
"a. c #94A8A7",
"s. c #93A5AB",
"d. c #9BA6A9",
"f. c #96A9AD",
"g. c #9BABAD",
"h. c #9CAAA7",
"j. c #9BB1AF",
"k. c #8BA7B2",
"l. c #90A6B1",
"z. c #94ACB3",
"x. c #9CADB2",
"c. c #94ABB8",
"v. c #9DB2B4",
"b. c #9BB3B9",
"n. c #96B0B8",
"m. c #A4AAA6",
"M. c #AAACA6",
"N. c #A3ABAB",
"B. c #A9ADAC",
"V. c #A4A6A6",
"C. c #B1AAA0",
"Z. c #A4B0AE",
"A. c #ACB1AE",
"S. c #A2AEB3",
"D. c #A6AFB5",
"F. c #A4B2B4",
"G. c #ABB3B3",
"H. c #ACB9B6",
"J. c #A4B4BB",
"K. c #ACB7B9",
"L. c #ADBABC",
"P. c #A5B9BD",
"I. c #B2B6B5",
"U. c #B2B9B6",
"Y. c #B8B9B7",
"T. c #B4BBBB",
"R. c #BBBDBC",
"E. c #B6B6B8",
"W. c #C1BEBB",
"Q. c #B7C2BB",
"!. c #BCC1BE",
"~. c #ACBBC2",
"^. c #B4BDC2",
"/. c #B5BFC5",
"(. c #B4C2C4",
"). c #BCC4C3",
"_. c #BDC6CA",
"`. c #BECACA",
"'. c #BFC8C7",
"]. c #C3C5C4",
"[. c #C9C6C4",
"{. c #C4C9C6",
"}. c #CAC9C7",
"|. c #C1C7CA",
" X c #C4CBCB",
".X c #CBCDCC",
"XX c #D2CECD",
"oX c #CDD1CE",
"OX c #C7D0CE",
"+X c #D2D1CE",
"@X c #C5CFD1",
"#X c #CBCFD0",
"$X c #CED2D2",
"%X c #CBD4D6",
"&X c #D3D4D4",
"*X c #D8D6D6",
"=X c #D5D8D6",
"-X c #DADAD6",
";X c #D4D6D8",
":X c #D6D9D9",
">X c #DBDBDA",
",X c #D9D7D8",
"<X c #E1DEDD",
"1X c #DCE1DC",
"2X c #E2E2DE",
"3X c #DEE1E1",
"4X c #E4E4E2",
"5X c #E9E7E3",
"6X c #E8E8E8",
"7X c #F2F3F2",
/* pixels */
"o.o.o.*.>.*.>.*.=.=.*.2.i.8 6 t & w C.M.d o @ N ( n A 7.P F 8 < Q >.@.o.+.+.@.,.,.,.,.,.,.4.",
"o.o.*.+.+.+.+.*.>.$.$...d.F 7 7 7 6 ] d.2 O 9.&X&X&X=XL.l.T D t a _ #.+.+.+.#.,.#.,.,.4.4.4.",
"o.o.>.+.+.>.*.>.1._ E M.K.l.n.J : : > 3 * A 3X4X4X4X5X}.q.M u u 6 r ) | #.+.o.*.#.#.,.4.4.,.",
"+.+.+.+.+.+.*.1. .f i.OXK.N.&XT.N c > & & l.4X4X2X2X-X).R.E.B.L , y x b _ | | *.4.>.,.5.4.4.",
"! ^ >.*.+.+.#.%.) s L.{.r.S.[.}.].).S.M l j s.T.^.J.7.A &X<X&X{.8.j ~.0.5 b >.,.,.,.<.4.4.4.",
"^ *.*.*.| >.1. .P h y.a.r..X}.R..X#X).'.b.i @ + 4 4 > 1 g.}.#X&Xv.a L.).H h ] 1.#.,.4.4.4.4.",
"*.*.o.+.>.| } f.u.U u z L.>X Xs.S.D.D.(.a.i.r.r.f.t.J h 9.q. .D.c.B w E.}.c.H V.<.>.<.4.,.,.",
"*.*.*.>...' 8.Z.!.~.G F `.oXd.K./.T.K.r.L.;X&X&X-X:XF.9.%X#XE.9.P Y h G.&X|.7.A m.<.2.#.@.2.",
"o.*.*.+.) Z l.Y.XX).J Y /.V.K.&X:X1X`.y.&X-X-X*X>X4Xi.) 3X>X>X.XJ.L y J.oX.X9.t U 1.6.@.@.,.",
"&.*.+.%.A Z s.[.&Xx.u U S.G.$X,X:X1X XJ.;X&X*X*X:X>Xd.x.>X-X:X>X$Xx.h R  XXXS.J m ' C.4.,.4.",
"&.&.$.[ P x.].XX/.c z L.{.&X*X&X&X:X$X(.$X&X$X&X&X$Xx.(.-X*X*X*X=X|.U B |.&X[.K.v.) #.#.@.,.",
"*.>. .V 7.#X,XXXu.t k.#X&X&X&X&X&X=X$X X#X&X#X+X&X@Xx.).:X&X&X*X*X%XP.B T.*X[.|.).j.w.#.,.,.",
"=.>.d Z L.oXXX|.J y ~.&X&X&X&X&XoXoX$XoX$X&X$X&X&X%X`.OXoX&X&X&X&X:X`.U i.&X+XT.u.K ) >.,.#.",
">.` i y.$X+X-XP.u I #X=X*X*X=X&X]. X&XoXXX#X$X.XoX&X X.XoX&X&X&X*X-X@Xt.A ).oX[.t.K l | 4.@.",
"a.V l ~.=X-X-Xt.t z.=X=X=X,X-X X).=X$XoX$X&X&XoX$X&X X}.#X&X$X&X*X=XOXt.k j.]..XF.z B X.@.@.",
"e.i g.:X>X<X XL u P.>X=X-X=X:XK.).&XoXoX.X&XoX$X&X&X&X&X&X&X&X&X=X=XOXn.z S ).}. Xg.A  .+.@.",
"V v $X4X>X>X~.z Z T.&X=X,X>X Xx. X$X&XoX X&X&X&X&X&X=X$X$X&X&X*X:X=XoX`.I r G..XXX+XU.$.@.@.",
"A v F.=X2X:Xx.i y. X}.}.&X@XS.(.=X&X*X$XoX&X&X&X&X*X XT.&X&X&X=X:XoXOX XF.A A T..X!.Q.3.@.@.",
"^ E < Z n.F.a.' T.+X[.{.b.h J.-X*X:X&X.X%X*X*X*X&X=X~.e.OX&XoX`.{.$X).j.oX X[ b z.8.@ g ,.O.",
"/ E ; > t V g.F..XXX.XT.y O ~.,X:X-X$X X&X*X;X:X*X;Xc.J (. XL.e.'.oXF.y.%X X8.r U c o $ <.O.",
"^ W r B J 8.r.a.].[.[.0., t (.-X-X>X X).:X:X:X-X>X%Xk.L v.H.u.F.+X}.g.a. XD.w ' %XP.5 $ ,.O.",
"| ) V g.s.0.U A ].[.T.H t z (.*X:X3XK.(.>X:X:X:X%X_.R B F.F.g.!..X).u.r.].s.e G.<X].+ # =.O.",
"` f F.}.T.A R S N.W.d.L t e.{..X*X;Xx.L.:X&X$X(.P.v.t.B x.R.].}.^.S.r.U.{.] S.&X,X).N # =.=.",
"V C oX:X X' A r. .M.S.L 6 x.}.].#X).s.(.oX Xf.f.F.g.R B f.!. X].F.f.F.Q.h.g.>X-XXX).E._ &.4.",
"l y.>X>X-XG.' S.R.Y.G.z 3 x.}..X'.j.).oX).s.i.T.Q.x.t.x f.R.[.].G.F.g.8.j v.1X*X$X]..XR.*.,.",
"A [ =X2X2X*Xs.9.G.E.' h y ~.XX!.[ r.OX}.L.P v.!.N.i.u.J y.G.].).g.V b e.5 f.>X>X:X).oX[.>.,.",
"v.h.F.1X>X<XJ.h v M c , u F.I.f.4 R %X].f.S x.G.i.d.u.Z 8.y.x.l.x 4 P l.s p.).).^.v.x.q.E { ",
"j.F.n ].2X>X9.p z.A 3 > t q.B.s.> B ).!.A z D.G.V.x.U y V V c y 3 9 p _ Y.}.h.S t.U w 4 8.B ",
"' ' ` ].1XT.j 9.2XoX4   w R.*XL.y U T.F.x V T.I.x.A 3 - < b 7.M 3 < v ].>X-Xs.r A 9.s.y.P b ",
" .f n ~.v.p h ~.2X-Xs.w f.XX*XF.l r.N.0.H 8.).r.d w w P ] T.#XG.c @ d.,X<X&XS - A F.Q.G.' ' ",
"$.} s 8.c - b (.-X&X4X4X>X<X#X] r.Z.{ A 7.7.q # d.|.&X>X:X].G.x.b a ^.,X-X/.k X Z v._  .V.#.",
"&.^ f c 3 ; z..X].}.=X2X4X>XL.n U.).n 4 b p ] |.6X6X6X4X.XG.D.s.b d..X$X.Xs.1 & y 8.% X.2.>.",
"&.*._ y t 3 (.:X.X).F.U.&X=XH.] Q.H.h ; X p 3X7X4X2X>XoXH.i.U.g.l f.].}.R.9.l y = @ E 1.,.>.",
"&.>.| s u i _.}.).L.r.h.Q.!.U.i.h.V 3 3 O b &X5X4X:X).G.Z.p.G.g.p 9.].].A.r.d.9.# % %.<.@.o.",
"*.*.#.} l k L.E.G.x.y.H.h.m.B.V.l 1 , 3 ; i ).2XoX{.G.%.i.G.G.w.b 9.I.B.N.a.m.1.| ,.,.,.>.*.",
"*.*.^ >.) i g.G.g.s.r.v.h.p.B.i.4 > 1 1 O 2 K.&X{.U.A.u.[ Z.A.d.m C p.N.p.[ m.2.5.,.>.*.+.o.",
",.*.*.$.` a d.T.g.s.U U x.V.M.] 4 , 1 , - 2 p..X].Y.G.y.m a.K.S.M b d.N.8.C m.<.-.*.=.>.+.o.",
"<.<.=.>.%.f ' U.g.e.U P 9.N.M.` 1 - < 1 1 < f !.}.A.A.r.b [ S.y.i V K.g.S S a.,.,.,.=.,.^ +.",
"<.<.*.>.1. .n s.f.S I A ' {  .f 1 < < < r < 0 T.}.A.m.h.M l j 3 > y 8.0.B S %.,.<.<.-.<.~ ^ ",
"=.<.<.=.*.1.E j H F F x Z P A 4 , 4 1 < 3 1 0 G.[.G.m.i.A l 3 : : 6 y J B C | ,.5.<.,.2.~ ~ ",
"<.<.<.<.,.>.$.n j h 9 y 9 x 9 - - < @ - - < e N.R.N.%.w.9.p 4 > > > j Z l _ #.4.5.<.5.1.+.+.",
"*.,.<.<.<.,.,.1.1.X.d a p a $ e $ # # $ $ + $ ) V.p.p.s.A 0 q 0 0 g X._ _ ..,.4.<.2.6.6.#.,.",
">.,.<.<.<.<.<.<.4.<.<.>.>.^ | #.*.^ +.^ / ~ W W f ] ' n i a | ^ o.,.>.#.>.,.#.1.<.4.6.6.>.,.",
"*.,.<.<.>.<.,.,.,.-.<.5.5.5.;.;.:.=.5.;.&.=.o./ f ( ' j O % ,.:.&.o.o.&.,.,.,.,.,.2.6.6.<.,.",
"<.<.,.,.<.<.=.<.<.-.=.=.-.=.<.-.=.=.=.&.=.&.&.^ _ n q.M X r <.:.=.=.o.o.,.,.#.<.2.6.6.6.,.,.",
"*.*.,.=.<.<.<.<.=.<.,.,.&.*.=.=.o.=.-.=.=.+.+.} E f q.b O r 3.:.;.=.o.o.5.#.@.,.6.6.C.6.2.<."
};
