/* XPM */
static char *result[] = {
/* columns rows colors chars-per-pixel */
"46 46 218 2 ",
"   c #275470",
".  c #3C697F",
"X  c #73695B",
"o  c #446E7C",
"O  c #486D7D",
"+  c #49727C",
"@  c #58747C",
"#  c #5E767E",
"$  c #7C7262",
"%  c #64757B",
"&  c #64797D",
"*  c #6C7C7E",
"=  c #877E6C",
"-  c #837E70",
";  c #898376",
":  c #928A76",
">  c #938C7D",
",  c #3F768B",
"<  c #456E86",
"1  c #437286",
"2  c #4B7483",
"3  c #4E7886",
"4  c #43748C",
"5  c #4A768B",
"6  c #4E7A8C",
"7  c #537584",
"8  c #5A7683",
"9  c #557987",
"0  c #5C7C85",
"q  c #537B8B",
"w  c #5B7B8C",
"e  c #487791",
"r  c #427B93",
"t  c #4C7C93",
"y  c #537E93",
"u  c #597C91",
"i  c #657784",
"p  c #647C84",
"a  c #6C7E84",
"s  c #647D8C",
"d  c #5E828B",
"f  c #538293",
"g  c #5B8494",
"h  c #5A8798",
"j  c #6A8387",
"k  c #65848D",
"l  c #6A838C",
"z  c #7B8787",
"x  c #73858C",
"c  c #75898E",
"v  c #7B8A8E",
"b  c #648493",
"n  c #6B8592",
"m  c #668A94",
"M  c #6C8B94",
"N  c #66879B",
"B  c #668D9A",
"V  c #6B8D9B",
"C  c #718792",
"Z  c #748D95",
"A  c #7C8C93",
"S  c #728E9B",
"D  c #7A8B9A",
"F  c #6D919C",
"G  c #7B9295",
"H  c #77969B",
"J  c #73929C",
"K  c #7A949B",
"L  c #5E8FA4",
"P  c #658EA1",
"I  c #6A8EA2",
"U  c #718FA0",
"Y  c #6D92A2",
"T  c #6896A2",
"R  c #7295A2",
"E  c #7C96A2",
"W  c #7499A2",
"Q  c #7D9AA3",
"!  c #769DAA",
"~  c #789EB0",
"^  c #7EA1A9",
"/  c #878C86",
"(  c #838D8D",
")  c #978F82",
"_  c #8C928F",
"`  c #969283",
"'  c #9B9584",
"]  c #92958F",
"[  c #9D9689",
"{  c #9F9989",
"}  c #828E93",
"|  c #849495",
" . c #8B9493",
".. c #8B9996",
"X. c #83949B",
"o. c #8A969C",
"O. c #859A9E",
"+. c #8B999B",
"@. c #939993",
"#. c #949896",
"$. c #999D94",
"%. c #939D9C",
"&. c #A39C88",
"*. c #A39C8D",
"=. c #A59E91",
"-. c #98A29C",
";. c #A7A28E",
":. c #A6A192",
">. c #ABA494",
",. c #ADA895",
"<. c #ADA69A",
"1. c #AEA99A",
"2. c #B0A79A",
"3. c #B2AB9D",
"4. c #B7B19F",
"5. c #8396A2",
"6. c #839BA3",
"7. c #8B9DA3",
"8. c #869DAB",
"9. c #919DA1",
"0. c #969DA8",
"q. c #87A1A6",
"w. c #8CA2A4",
"e. c #84A2AA",
"r. c #8CA3AA",
"t. c #8DA8AD",
"y. c #93A2A4",
"u. c #9BA4A4",
"i. c #94A8A7",
"p. c #9CAAA7",
"a. c #93A5AB",
"s. c #9BA6A9",
"d. c #96A9AD",
"f. c #9CAAAD",
"g. c #9BB1AF",
"h. c #8BA7B2",
"j. c #94ACB3",
"k. c #92A8B4",
"l. c #9CADB2",
"z. c #9DB2B4",
"x. c #96B0B8",
"c. c #9BB3B9",
"v. c #A3A8A6",
"b. c #AAABA5",
"n. c #A3ABAB",
"m. c #A9ADAC",
"M. c #B4ADA1",
"N. c #B8AFA4",
"B. c #A4B0AE",
"V. c #ACB1AE",
"C. c #B6B1A3",
"Z. c #B9B3A5",
"A. c #B6B4A9",
"S. c #BCB6AA",
"D. c #BEB9AB",
"F. c #A2AEB3",
"G. c #A6AFB5",
"H. c #A4B2B4",
"J. c #ABB3B3",
"K. c #ACB9B6",
"L. c #A4B4BB",
"P. c #ACB7B9",
"I. c #A5B9BD",
"U. c #ADBABC",
"Y. c #B2B6B5",
"T. c #B2B9B6",
"R. c #B8B9B7",
"E. c #B6B6B8",
"W. c #B4BBBB",
"Q. c #BBBDBC",
"!. c #C1BBAD",
"~. c #C3BDB2",
"^. c #C1BEBB",
"/. c #B7C2BB",
"(. c #BCC1BE",
"). c #C6C0B4",
"_. c #C9C2B6",
"`. c #CAC4BA",
"'. c #ACBBC2",
"]. c #B4BDC2",
"[. c #B5BFC5",
"{. c #B4C2C4",
"}. c #BCC4C3",
"|. c #BFC8C7",
" X c #BDC6CA",
".X c #BECACA",
"XX c #C3C5C4",
"oX c #C9C6C4",
"OX c #C4C9C6",
"+X c #CAC9C7",
"@X c #C1C7CA",
"#X c #C4CBCB",
"$X c #CBCDCC",
"%X c #D1CAC1",
"&X c #D2CECD",
"*X c #C7D0CE",
"=X c #CDD1CE",
"-X c #D2D1CE",
";X c #C5CFD1",
":X c #CBCFD0",
">X c #CED2D2",
",X c #CBD4D6",
"<X c #D3D4D4",
"1X c #D8D6D6",
"2X c #D5D8D6",
"3X c #DADAD6",
"4X c #D4D6D8",
"5X c #D9D7D8",
"6X c #D6D9D9",
"7X c #DBDBDA",
"8X c #E1DEDD",
"9X c #DCE1DC",
"0X c #E2E2DE",
"qX c #DEE1E1",
"wX c #E4E4E2",
"eX c #E9E7E4",
"rX c #E8E9E8",
"tX c #F2F3F2",
/* pixels */
"C.S.4.Z.;.{ 1.1.;.&.<.4.y.y t f 4 s *.=.c O 7 v } A K 5.E P y 7 _ ,.D.C.S.<.;.,.,.&.4.A.4.4.",
"> ,.,.;.4.' M.~.4.;.3.~.s.P r r , t  .s.0 + 7.4X>X<X4XK.k.~ L f k ..3.1.D.~.S.' ` ,.; ) _.> ",
",.,.> : ` ;.>.D.)._ ( m.J.h.c.Y 4 4 4 y 1 K 7XeXwXeXeXoX9.D h h t d | ;.S.).).Z.,.Z.=.= { /.",
"4.4.,.;.*.' $.*.{ v y.=XP.n.1XW.C N e < . k.eXwXwX0X7X}.Q.R.G.S 6 g M Z  .D.;.2.D.Z.)._.1.Z.",
"D._.!.D.S.<.' [ | C W.#X7.H.oX+XXXXXF.D V n a.W.].L.5.H 4X8X-X+X6.n '.8.w Z <.> >.Z.,.3.!.4.",
"!.!.).S.,.,.,.,XH b 7.i.w.$X+X(.#X>X}..Xc.k # 8 w w 5 9 f.#X$X<Xz.k P. XS s o.S.*.4.S.1.>.&.",
",.2.3.3.3.>.rXi.t.! h B U.9X@Xa.F.G.G.{.i.w.w.w.a.r.R b 7.%.9.G.k.F a E.@Xk.S !.D.).D.4.<.:.",
"> &.3.:.<.| 6.H.(.U.I P .X$Xs.P.}.W.J.w.W.4X<X-X7X6Xz.7.4X:XE.7.E ! b J.1X@XE K ).`./.D.C.=.",
"1.,.>.S.| R k.R.&X}.V ! [.n.Y.4X6X9X#Xr.>X7X1X3X7XqXy...9X7X7X#XL.W u L.=X$X8.g Q Z.D.S.Z.Z.",
"M.=.) <.H J 0.oX<Xl.h Q F.m.:X5X6X9X.XI.<X<X1X<X6X7Xd.f.7X7X1X7X>Xl.b e.#X&Xl.Y J | ~.3.{ :.",
"[ *.{ o.K l.@X&X[.B F I.OX<X<X6X1X1X>X{.>X<X<X<X4X>Xl.{.6X1X1X1X6X XH F @X<XXXU.z.| 4.3.3.>.",
") - ` J 5.:X1X&Xh.f r.>X1X2X<X<X<X4X>X@X>X<X$X<X>X#XF. X1X4X1X1X6X1XI.F W.1XoXoX.Xg.|.D.).D.",
").R.Z J K.-X&X@XY g I.1X1X<X4X-X*X*X<X=X>X<X<X>X=X>X.X$X*X<X<X<X<X7X.XW w.2X-XW.t.H G 4.!._.",
",.&.k r.>X-X3XI.g W *X2X1X1X2X<XXX*X-X=X$X>X:X&X<X<X*X*X=X<X<X<X1X6X;Xe.G }.=XoXq.L m =XZ.4.",
"p.Z M U.1X3X7Xe.h j.4X6X1X1X6XOX}.4X>X=X>X<X<X>X=X<X$X#X-X>X<X<X6X1X,Xe.m g.OX+XK.B F #.!.D.",
"8.m d.7X7X8X@XR h L.7X6X6X6X6XJ.}.>X-X=X$X<X$X>X<X<X<X:X<X<X<X<X<X1X*Xc.B H }.+XOXf.H %.2.D.",
"F C >XwX7X7X'.B J W.-X6X6X7X@Xf.#X<X=X=X$X>X<X<X<X<X4X>X<X<X1X4X<X<X=X.XW d J.=X&X-XT.` *.;.",
"| c H.4X9X7Xl.k a.#X+X#X,X;XH.}.6X<X1X>X=X>X<X<X<X1X#XW.4X>X-X6X9X-X*X*XH.H G W.$X(./.` ;.;.",
"D.( 7 J x.H.a.| W.-XoXoXz.n L.6X6X3X<X$X<X1X1X1X<X6XI.6.*X<X=X.X.X>X}.B.*X@XO.Z j.K # z ~.`.",
"1.( 3 5 f J d.J.$X&X$XU.g + '.5X7X7X>X@X<X4X4X6X1X4Xc.Y {.*XK.w.}.>XH.w.>X#X8.d Q B o & Z.S.",
">.( d F Y 6.w.i.XXoXoX8.6 f {.3X3X7X@X.X6X6X6X3X7X,Xh.W c.K.r.B.=X+Xf.t.@XH.k X.4XL.8 % !.3.",
"$.| Z l.a.e.Q H XX+XE.Y f B }.1X7X7XP.}.7X1X7X2X,X X^ F H.H.f.}.&X}.t.w.@X0.i J.8X@X8 % 1.>.",
"..v J.$XU.K ^ H m.Q.s.R f e.OX=X6X4Xl.I.6X6X>X{.I.z.e.Y l.(.XX#X].F.w.T.OXO.n.<X1XXXv % =.*.",
"Z K $X1XoXo.H 7.y.b.G.R 6 x.oXXX$X Xa./.*X@Xd.d.H.f.Q F d.(.+XXXH.a.H./.n.p.7X3X&X[.E. .Z.Z.",
"M r.7X7X7XJ.X.F.Q.R.J.m y l.oX$X|.g.{.=XXXa.y.W./.l.e.V d.Q.XXXXJ.H.j.6.x z.9X6X<X}.$XQ.!.S.",
"H O.7X0X9X1Xa.7.J.E.X.b g '.&X}.O.w.>X+XU.K l.}.f.y.t.F r.J.XX}.l.G Z e.8 a.7X7X6XOX*XoXM.3.",
"z.p.J.7X7X8XH.n M D b 6 g H.Y.d.w ^ *XXXd.W l.J.u.s.r.F 6.r.z.k.V 9 Q a.x u.}.|.].z.f.9.} +.",
"g.H.v |.wX7X7.k j.E u 5 f 9.m.a.6 B OX(.H V H.V.s.l.6.b J S n g q w n  .R.+Xp.K q.Q s w 6.F ",
"X.X.+.@X9XU.n 7.0X*Xw   s Q.<XP.h Q Q.l.V J W.T.n.K q 2 7 C 7.D u 7 x [.7X7Xd.d K 7.r.r.Q Z ",
"%.z G U.z.l n '.0X3Xs.s s.<X5XG.M w.G.7.J 8.}.7.C s s E o.W.:XJ.b @ f.7X0X4XK 2 K H./.J.}  .",
"C.@.x 6.n 2 V [.9X-X0XwX7X8X>XO.7.m.+.G 5.K a i s.@X4X7X6XXXP.f.Z l ].7X3X].b o J z...%.!.XX",
",.4.v N t 2 l.$XXX+X2X0XwX7XU.A K.}.G w Z l o.@XeXrXrXqX$XJ.G.a.C d.$X&X$Xa.9 , g O.a ] 2.3.",
":.{  .b f q {.1X$X}.H.T.2X3XK.O./.K.b 5 o j 9XtXeX9X7X>XK.i.Y.f.M s.OX#XQ.7.V g 1 @ ( D.M.=.",
"S.1.7XM g b .X$X}.P.w.n.T.(.T.y.d.Z w q + Z 4XeXwX6X}.J.B.u.K.s.l 6.XXXXJ.+.s.+.% * <X<.M.b.",
"M.!.).@.M m U.E.H.l.a.K.p.v.V.v.Z 3 6 q 3 k (.0X-XOXJ.y.y.J.J.0.Z 7.Y.V.n.i.!.3.eX3.*.*.= ' ",
"S.3.R.~.| k f.J.z.a.6.g.p.s.m.%.w 5 9 9 + d J.2XOXT.V.i.O.B.V.a.S | 0.v.u.O.~.2.*.> X > ) $ ",
"*.M.S.3...l s.R.n.r.Q Q f.v.m...w 3 9 9 3 0 u.$X`.T.Y.e.Z s.E.F.D Z n.n.6.G 0X).4.;.= > S.C.",
">.3.!.3.>.v X.W.f.8.6.K 9.n.b...q 2 9 6 9 7 v (.XXY.m.y.V O.F.r.d G H.l.H H -.D.!.4.=.=.2.Z.",
"D.,.{ :.>.XXD 7.i.W W H X.+.%.A 9 7 7 7 q 7 p W.+Xm.n.s.G M b q 5 g 6.8.F H -.!.!.N.*.3.!.3.",
"Z.3.>.,.,.Z.( n U I P I S E K w 3 w 9 7 q 0 p J.XXY.v.y.X.M q 4 r 6 g Y T G $.2.N.~.S.M.M.[ ",
"S.N.M.[ [ M.*.} C b u g u I s < 2 7 7 2 2 7 i n.Q.b.-.0.7.k w 5 4 < n S C o.=.> >.2.N.!.N.!.",
"^.!.Z.!.=.2.!.Z.^.] x j a l & i & % % % # % & } s.s.-.y.K i a a a v #._ _ =.!.2.3.N.>.[ > >.",
"&.N.2.2.!.!.~.%X%X_.M.N.M.<.3.<.Z.N.=.M.A.A./ / ( | X.D s j $.!.!.Z.N.*.[ N.~.!.3.~.`.&.=.N.",
"=.M.!.>.M.!.N.~._.Z.M.!.!.~.D.<.3.!.S.M.^.`.!.` } } X.C + a 2.!.!.Z.S.!.=.M.^.^.!.!.!.!.4.2.",
"^.M.&.=.2.!.*.=.^.b.` =.3.S.!.~.^.N.N.3.3.N.!.=. .A 9.Z O 0 ,.2.=.3.~.~.N.Z.!.~.N.N.2.>.2.4.",
"!.S.M.N.3.N.~.N.N.S.=.*.=.N.S.N.<.M.=.3.3.3.S.] } v 9.G 2 0 ,.S.!.&.N.!.2.[ 2.!.M.2.*.>.>.4."
};
